EncodeSansExpanded-ExtraLight.ufo
<glyph name="exclam" format="2">
  <advance width="505.5555555555556"/>
  <unicode hex="0021"/>
  <outline>
    <contour>
      <point x="222.55555555555554" y="328.00000000000006" type="line"/>
      <point x="283.33333333333337" y="328.00000000000006" type="line"/>
      <point x="300.33333333333337" y="895.8888888888889" type="line"/>
      <point x="300.33333333333337" y="1480.0" type="line"/>
      <point x="205.2222222222222" y="1480.0" type="line"/>
      <point x="205.2222222222222" y="895.8888888888889" type="line"/>
    </contour>
    <contour>
      <point x="252.7777777777778" y="-10.555555555555557" type="curve" smooth="yes"/>
      <point x="296.8888888888889" y="-10.555555555555557"/>
      <point x="327.4444444444445" y="17.333333333333343"/>
      <point x="327.4444444444445" y="61.11111111111114" type="curve" smooth="yes"/>
      <point x="327.4444444444445" y="104.88888888888894"/>
      <point x="297.11111111111114" y="134.66666666666674"/>
      <point x="252.7777777777778" y="134.66666666666674" type="curve" smooth="yes"/>
      <point x="208.44444444444446" y="134.66666666666674"/>
      <point x="178.1111111111111" y="105.11111111111116"/>
      <point x="178.1111111111111" y="61.11111111111114" type="curve" smooth="yes"/>
      <point x="178.1111111111111" y="17.11111111111112"/>
      <point x="208.66666666666666" y="-10.555555555555557"/>
    </contour>
  </outline>
</glyph>
<glyph name="quotedbl" format="2">
  <advance width="759.7777777777778"/>
  <unicode hex="0022"/>
  <outline>
    <contour>
      <point x="191.55555555555554" y="946.4444444444445" type="line"/>
      <point x="244.8888888888889" y="946.4444444444445" type="line"/>
      <point x="268.2222222222223" y="1616.0" type="line"/>
      <point x="168.2222222222222" y="1616.0" type="line"/>
    </contour>
    <contour>
      <point x="514.8888888888889" y="946.4444444444445" type="line"/>
      <point x="568.2222222222223" y="946.4444444444445" type="line"/>
      <point x="591.5555555555557" y="1616.0" type="line"/>
      <point x="491.55555555555554" y="1616.0" type="line"/>
    </contour>
  </outline>
</glyph>
<glyph name="dollar" format="2">
  <advance width="1166.4444444444446"/>
  <unicode hex="0024"/>
  <outline>
    <contour>
      <point x="517.1111111111111" y="-18.11111111111111" type="curve" smooth="yes"/>
      <point x="868.5555555555555" y="-18.11111111111111"/>
      <point x="1066.5555555555557" y="126.33333333333334"/>
      <point x="1066.5555555555557" y="388.55555555555554" type="curve" smooth="yes"/>
      <point x="1066.5555555555557" y="597.7777777777778"/>
      <point x="938.3333333333334" y="717.5555555555555"/>
      <point x="617.2222222222223" y="780.1111111111111" type="curve" smooth="yes"/>
      <point x="541.2222222222223" y="794.8888888888889" type="line" smooth="yes"/>
      <point x="285.7777777777778" y="845.2222222222223"/>
      <point x="193.77777777777783" y="929.5555555555555"/>
      <point x="193.77777777777783" y="1104.0" type="curve" smooth="yes"/>
      <point x="193.77777777777783" y="1303.6666666666665"/>
      <point x="338.66666666666674" y="1415.6666666666665"/>
      <point x="632.4444444444445" y="1415.6666666666665" type="curve" smooth="yes"/>
      <point x="756.5555555555557" y="1415.6666666666665"/>
      <point x="880.5555555555557" y="1397.5555555555554"/>
      <point x="1003.2222222222223" y="1360.111111111111" type="curve"/>
      <point x="1003.2222222222223" y="1444.7777777777778" type="line"/>
      <point x="889.6666666666667" y="1480.111111111111"/>
      <point x="762.6666666666667" y="1498.111111111111"/>
      <point x="634.8888888888889" y="1498.111111111111" type="curve" smooth="yes"/>
      <point x="277.8888888888889" y="1498.111111111111"/>
      <point x="99.88888888888889" y="1343.111111111111"/>
      <point x="99.88888888888889" y="1099.3333333333333" type="curve" smooth="yes"/>
      <point x="99.88888888888889" y="887.7777777777777"/>
      <point x="230.0" y="762.6666666666666"/>
      <point x="521.0" y="706.1111111111111" type="curve" smooth="yes"/>
      <point x="597.0" y="691.3333333333333" type="line" smooth="yes"/>
      <point x="863.4444444444445" y="638.8888888888889"/>
      <point x="972.6666666666666" y="562.0"/>
      <point x="972.6666666666666" y="385.33333333333337" type="curve" smooth="yes"/>
      <point x="972.6666666666666" y="176.11111111111114"/>
      <point x="824.8888888888889" y="64.33333333333339"/>
      <point x="518.7777777777778" y="64.33333333333339" type="curve" smooth="yes"/>
      <point x="402.22222222222223" y="64.33333333333339"/>
      <point x="263.0" y="82.77777777777784"/>
      <point x="119.22222222222223" y="130.5555555555556" type="curve"/>
      <point x="119.22222222222223" y="45.888888888888886" type="line"/>
      <point x="248.0" y="2.222222222222223"/>
      <point x="391.33333333333337" y="-18.11111111111111"/>
    </contour>
    <contour>
      <point x="541.6666666666666" y="-240.0" type="line"/>
      <point x="626.5555555555557" y="-240.0" type="line"/>
      <point x="626.5555555555557" y="3.3333333333333464" type="line"/>
      <point x="541.6666666666666" y="3.333333333333345" type="line"/>
    </contour>
    <contour>
      <point x="541.6666666666666" y="1476.6666666666667" type="line"/>
      <point x="626.5555555555557" y="1476.6666666666667" type="line"/>
      <point x="626.5555555555557" y="1720.0" type="line"/>
      <point x="541.6666666666666" y="1720.0" type="line"/>
    </contour>
  </outline>
</glyph>
<glyph name="ampersand" format="2">
  <advance width="1632.5555555555557"/>
  <unicode hex="0026"/>
  <outline>
    <contour>
      <point x="1588.5555555555557" y="-20.0" type="line"/>
      <point x="1632.5555555555557" y="49.333333333333385" type="line"/>
      <point x="769.8888888888889" y="654.2222222222223" type="line" smooth="yes"/>
      <point x="506.11111111111114" y="842.1111111111111"/>
      <point x="449.33333333333337" y="935.0"/>
      <point x="449.33333333333337" y="1085.111111111111" type="curve" smooth="yes"/>
      <point x="449.33333333333337" y="1293.4444444444443"/>
      <point x="575.3333333333334" y="1415.6666666666665"/>
      <point x="886.1111111111111" y="1415.6666666666665" type="curve" smooth="yes"/>
      <point x="997.0" y="1415.6666666666665"/>
      <point x="1091.5555555555557" y="1401.7777777777778"/>
      <point x="1171.2222222222222" y="1378.3333333333333" type="curve"/>
      <point x="1171.2222222222222" y="1463.0" type="line"/>
      <point x="1096.3333333333335" y="1484.4444444444443"/>
      <point x="1000.3333333333334" y="1498.111111111111"/>
      <point x="886.2222222222223" y="1498.111111111111" type="curve" smooth="yes"/>
      <point x="525.5555555555555" y="1498.111111111111"/>
      <point x="355.4444444444444" y="1344.4444444444443"/>
      <point x="355.4444444444444" y="1086.3333333333333" type="curve" smooth="yes"/>
      <point x="355.4444444444444" y="906.3333333333334"/>
      <point x="442.3333333333333" y="782.3333333333334"/>
      <point x="725.8888888888889" y="584.8888888888889" type="curve" smooth="yes"/>
    </contour>
    <contour>
      <point x="759.8888888888889" y="-18.0" type="curve" smooth="yes"/>
      <point x="1157.7777777777778" y="-18.0"/>
      <point x="1372.3333333333335" y="164.77777777777777"/>
      <point x="1372.3333333333335" y="486.5555555555556" type="curve" smooth="yes"/>
      <point x="1372.3333333333335" y="583.1111111111111"/>
      <point x="1356.5555555555557" y="678.6666666666667"/>
      <point x="1323.3333333333335" y="768.1111111111111" type="curve"/>
      <point x="1237.3333333333333" y="768.1111111111111" type="line"/>
      <point x="1270.5555555555557" y="678.6666666666667"/>
      <point x="1290.2222222222222" y="579.2222222222223"/>
      <point x="1290.2222222222222" y="488.2222222222223" type="curve" smooth="yes"/>
      <point x="1290.2222222222222" y="206.00000000000003"/>
      <point x="1105.3333333333333" y="61.44444444444449"/>
      <point x="764.8888888888889" y="61.44444444444449" type="curve" smooth="yes"/>
      <point x="396.4444444444445" y="61.44444444444449"/>
      <point x="264.1111111111112" y="210.11111111111114"/>
      <point x="264.1111111111112" y="408.6666666666667" type="curve" smooth="yes"/>
      <point x="264.1111111111112" y="567.8888888888889"/>
      <point x="345.66666666666674" y="684.2222222222222"/>
      <point x="528.1111111111111" y="756.6666666666666" type="curve"/>
      <point x="475.0" y="820.0" type="line"/>
      <point x="276.55555555555554" y="738.1111111111111"/>
      <point x="170.2222222222222" y="592.5555555555555"/>
      <point x="170.2222222222222" y="400.3333333333333" type="curve" smooth="yes"/>
      <point x="170.2222222222222" y="159.33333333333334"/>
      <point x="347.3333333333333" y="-18.0"/>
    </contour>
  </outline>
</glyph>
<glyph name="quotesingle" format="2">
  <advance width="436.44444444444446"/>
  <unicode hex="0027"/>
  <outline>
    <contour>
      <point x="191.55555555555554" y="946.4444444444445" type="line"/>
      <point x="244.8888888888889" y="946.4444444444445" type="line"/>
      <point x="268.2222222222223" y="1616.0" type="line"/>
      <point x="168.2222222222222" y="1616.0" type="line"/>
    </contour>
  </outline>
</glyph>
<glyph name="parenleft" format="2">
  <advance width="713.1111111111111"/>
  <unicode hex="0028"/>
  <outline>
    <contour>
      <point x="539.0" y="-440.0" type="curve"/>
      <point x="649.7777777777778" y="-440.0" type="line"/>
      <point x="359.55555555555566" y="-126.22222222222223"/>
      <point x="249.00000000000006" y="215.44444444444443"/>
      <point x="249.00000000000006" y="588.0" type="curve" smooth="yes"/>
      <point x="249.00000000000006" y="960.5555555555555"/>
      <point x="359.55555555555566" y="1302.2222222222222"/>
      <point x="649.7777777777778" y="1616.0" type="curve"/>
      <point x="539.0" y="1616.0" type="line"/>
      <point x="270.88888888888886" y="1320.5555555555557"/>
      <point x="155.0" y="966.1111111111111"/>
      <point x="155.0" y="588.0" type="curve" smooth="yes"/>
      <point x="155.0" y="209.88888888888889"/>
      <point x="270.88888888888886" y="-144.55555555555557"/>
    </contour>
  </outline>
</glyph>
<glyph name="parenright" format="2">
  <advance width="713.1111111111111"/>
  <unicode hex="0029"/>
  <outline>
    <contour>
      <point x="63.333333333333286" y="-440.0" type="curve"/>
      <point x="174.11111111111114" y="-440.0" type="line"/>
      <point x="442.2222222222223" y="-144.55555555555557"/>
      <point x="558.1111111111112" y="209.88888888888889"/>
      <point x="558.1111111111112" y="588.0" type="curve" smooth="yes"/>
      <point x="558.1111111111112" y="966.1111111111111"/>
      <point x="442.2222222222223" y="1320.5555555555557"/>
      <point x="174.11111111111114" y="1616.0" type="curve"/>
      <point x="63.333333333333286" y="1616.0" type="line"/>
      <point x="353.5555555555555" y="1302.2222222222222"/>
      <point x="464.1111111111111" y="960.5555555555555"/>
      <point x="464.1111111111111" y="588.0" type="curve" smooth="yes"/>
      <point x="464.1111111111111" y="215.44444444444443"/>
      <point x="353.5555555555555" y="-126.22222222222223"/>
    </contour>
  </outline>
</glyph>
<glyph name="asterisk" format="2">
  <advance width="919.5555555555557"/>
  <unicode hex="002A"/>
  <outline>
    <contour>
      <point x="494.11111111111114" y="1196.6666666666667" type="line"/>
      <point x="690.3333333333334" y="1242.7777777777778" type="line"/>
      <point x="889.5555555555557" y="1306.5555555555554" type="line"/>
      <point x="865.7777777777778" y="1378.2222222222222" type="line"/>
      <point x="668.4444444444445" y="1314.4444444444446" type="line"/>
      <point x="480.44444444444446" y="1235.4444444444443" type="line"/>
      <point x="497.8888888888889" y="1438.0" type="line"/>
      <point x="497.8888888888889" y="1616.0" type="line"/>
      <point x="421.6666666666667" y="1616.0" type="line"/>
      <point x="421.6666666666667" y="1438.0" type="line"/>
      <point x="439.1111111111111" y="1235.4444444444443" type="line"/>
      <point x="251.11111111111111" y="1314.4444444444446" type="line"/>
      <point x="53.77777777777779" y="1378.2222222222222" type="line"/>
      <point x="30.0" y="1306.5555555555554" type="line"/>
      <point x="229.22222222222223" y="1242.7777777777778" type="line"/>
      <point x="425.44444444444446" y="1196.6666666666667" type="line"/>
      <point x="293.44444444444446" y="1043.0" type="line"/>
      <point x="180.88888888888889" y="890.6666666666666" type="line"/>
      <point x="242.77777777777783" y="845.5555555555555" type="line"/>
      <point x="355.33333333333337" y="997.7777777777777" type="line"/>
      <point x="459.7777777777778" y="1172.5555555555554" type="line"/>
      <point x="564.2222222222223" y="997.7777777777777" type="line"/>
      <point x="676.7777777777778" y="845.5555555555555" type="line"/>
      <point x="738.6666666666667" y="890.6666666666666" type="line"/>
      <point x="626.1111111111112" y="1043.0" type="line"/>
    </contour>
  </outline>
</glyph>
<glyph name="plus" format="2">
  <advance width="1112.888888888889"/>
  <unicode hex="002B"/>
  <outline>
    <contour>
      <point x="514.4444444444445" y="372.0" type="line"/>
      <point x="598.4444444444445" y="372.0" type="line"/>
      <point x="598.4444444444445" y="720.3333333333333" type="line"/>
      <point x="927.1111111111111" y="720.3333333333333" type="line"/>
      <point x="927.1111111111111" y="799.6666666666667" type="line"/>
      <point x="598.4444444444445" y="799.6666666666667" type="line"/>
      <point x="598.4444444444445" y="1148.0" type="line"/>
      <point x="514.4444444444445" y="1148.0" type="line"/>
      <point x="514.4444444444445" y="799.6666666666667" type="line"/>
      <point x="185.77777777777777" y="799.6666666666667" type="line"/>
      <point x="185.77777777777777" y="720.3333333333333" type="line"/>
      <point x="514.4444444444445" y="720.3333333333333" type="line"/>
    </contour>
  </outline>
</glyph>
<glyph name="comma" format="2">
  <advance width="465.5555555555556"/>
  <unicode hex="002C"/>
  <outline>
    <contour>
      <point x="175.55555555555554" y="-303.33333333333337" type="curve"/>
      <point x="231.44444444444449" y="-303.33333333333337" type="line"/>
      <point x="274.4444444444445" y="-206.66666666666666"/>
      <point x="307.2222222222223" y="-88.22222222222221"/>
      <point x="307.2222222222223" y="39.111111111111136" type="curve" smooth="yes"/>
      <point x="307.2222222222223" y="108.00000000000006"/>
      <point x="277.11111111111114" y="136.88888888888897"/>
      <point x="230.55555555555557" y="136.88888888888897" type="curve" smooth="yes"/>
      <point x="186.55555555555554" y="136.88888888888897"/>
      <point x="158.1111111111111" y="106.88888888888894"/>
      <point x="158.1111111111111" y="64.11111111111114" type="curve" smooth="yes"/>
      <point x="158.1111111111111" y="19.444444444444457"/>
      <point x="188.66666666666666" y="-10.555555555555557"/>
      <point x="232.7777777777778" y="-10.555555555555557" type="curve" smooth="yes"/>
      <point x="247.22222222222226" y="-10.555555555555557" type="line"/>
      <point x="237.66666666666669" y="14.22222222222223" type="line"/>
      <point x="237.66666666666669" y="-89.55555555555556"/>
      <point x="214.22222222222223" y="-187.11111111111111"/>
    </contour>
  </outline>
</glyph>
<glyph name="hyphen" format="2">
  <advance width="932.7777777777778"/>
  <unicode hex="002D"/>
  <outline>
    <contour>
      <point x="185.77777777777777" y="520.0" type="line"/>
      <point x="747.0" y="520.0" type="line"/>
      <point x="747.0" y="601.1111111111111" type="line"/>
      <point x="185.77777777777777" y="601.1111111111111" type="line"/>
    </contour>
  </outline>
</glyph>
<glyph name="period" format="2">
  <advance width="465.5555555555556"/>
  <unicode hex="002E"/>
  <outline>
    <contour>
      <point x="232.7777777777778" y="-10.555555555555557" type="curve" smooth="yes"/>
      <point x="276.8888888888889" y="-10.555555555555557"/>
      <point x="307.4444444444445" y="17.77777777777779"/>
      <point x="307.4444444444445" y="62.22222222222226" type="curve" smooth="yes"/>
      <point x="307.4444444444445" y="106.66666666666673"/>
      <point x="277.11111111111114" y="136.88888888888897"/>
      <point x="232.7777777777778" y="136.88888888888897" type="curve" smooth="yes"/>
      <point x="188.44444444444446" y="136.88888888888897"/>
      <point x="158.1111111111111" y="106.88888888888894"/>
      <point x="158.1111111111111" y="62.22222222222226" type="curve" smooth="yes"/>
      <point x="158.1111111111111" y="17.555555555555568"/>
      <point x="188.66666666666666" y="-10.555555555555557"/>
    </contour>
  </outline>
</glyph>
<glyph name="slash" format="2">
  <advance width="640.5555555555557"/>
  <unicode hex="002F"/>
  <outline>
    <contour>
      <point x="0.0" y="-240.0" type="line"/>
      <point x="90.11111111111119" y="-240.0" type="line"/>
      <point x="640.5555555555557" y="1616.0" type="line"/>
      <point x="550.4444444444445" y="1616.0" type="line"/>
    </contour>
  </outline>
</glyph>
<glyph name="zero" format="2">
  <advance width="1371.888888888889"/>
  <unicode hex="0030"/>
  <note>
600
</note>
  <outline>
    <contour>
      <point x="685.8888888888889" y="-18.11111111111111" type="curve" smooth="yes"/>
      <point x="1011.5555555555555" y="-18.11111111111111"/>
      <point x="1226.888888888889" y="185.11111111111111"/>
      <point x="1226.888888888889" y="740.0" type="curve" smooth="yes"/>
      <point x="1226.888888888889" y="1294.888888888889"/>
      <point x="1017.2222222222223" y="1498.111111111111"/>
      <point x="685.8888888888889" y="1498.111111111111" type="curve" smooth="yes"/>
      <point x="354.55555555555554" y="1498.111111111111"/>
      <point x="145.0" y="1294.888888888889"/>
      <point x="145.0" y="740.0" type="curve" smooth="yes"/>
      <point x="145.0" y="185.11111111111111"/>
      <point x="360.22222222222223" y="-18.11111111111111"/>
    </contour>
    <contour>
      <point x="686.0" y="65.22222222222229" type="curve" smooth="yes"/>
      <point x="417.11111111111114" y="65.22222222222229"/>
      <point x="238.66666666666674" y="219.5555555555556"/>
      <point x="238.66666666666674" y="743.7777777777778" type="curve" smooth="yes"/>
      <point x="238.66666666666674" y="1260.4444444444443"/>
      <point x="417.33333333333337" y="1414.7777777777778"/>
      <point x="686.0" y="1414.7777777777778" type="curve" smooth="yes"/>
      <point x="954.5555555555555" y="1414.7777777777778"/>
      <point x="1133.2222222222222" y="1260.4444444444443"/>
      <point x="1133.2222222222222" y="736.2222222222222" type="curve" smooth="yes"/>
      <point x="1133.2222222222222" y="219.5555555555556"/>
      <point x="954.5555555555555" y="65.22222222222229"/>
    </contour>
  </outline>
</glyph>
<glyph name="one" format="2">
  <advance width="809.4444444444446"/>
  <unicode hex="0031"/>
  <outline>
    <contour>
      <point x="497.55555555555554" y="0.0" type="line"/>
      <point x="588.2222222222223" y="0.0" type="line"/>
      <point x="588.2222222222223" y="1484.111111111111" type="line"/>
      <point x="527.0" y="1484.111111111111" type="line"/>
      <point x="27.33333333333334" y="1127.3333333333333" type="line"/>
      <point x="27.33333333333334" y="1027.4444444444443" type="line"/>
      <point x="527.0" y="1380.4444444444443" type="line"/>
      <point x="497.55555555555554" y="1400.7777777777778" type="line"/>
    </contour>
  </outline>
</glyph>
<glyph name="two" format="2">
  <advance width="1079.888888888889"/>
  <unicode hex="0032"/>
  <outline>
    <contour>
      <point x="80.1111111111111" y="0.0" type="line"/>
      <point x="1001.3333333333334" y="0.0" type="line"/>
      <point x="1001.3333333333334" y="80.88888888888894" type="line"/>
      <point x="175.22222222222229" y="80.88888888888894" type="line"/>
      <point x="188.33333333333343" y="51.5555555555556" type="line"/>
      <point x="627.4444444444446" y="560.0" type="line" smooth="yes"/>
      <point x="831.4444444444445" y="795.8888888888889"/>
      <point x="899.1111111111112" y="930.0"/>
      <point x="899.1111111111112" y="1104.7777777777778" type="curve" smooth="yes"/>
      <point x="899.1111111111112" y="1372.7777777777778"/>
      <point x="734.5555555555557" y="1498.111111111111"/>
      <point x="435.55555555555554" y="1498.111111111111" type="curve" smooth="yes"/>
      <point x="289.77777777777777" y="1498.111111111111"/>
      <point x="162.11111111111111" y="1475.6666666666667"/>
      <point x="62.1111111111111" y="1438.111111111111" type="curve"/>
      <point x="62.1111111111111" y="1353.4444444444443" type="line"/>
      <point x="175.1111111111111" y="1395.0"/>
      <point x="297.1111111111111" y="1415.6666666666665"/>
      <point x="433.55555555555554" y="1415.6666666666665" type="curve" smooth="yes"/>
      <point x="682.7777777777778" y="1415.6666666666665"/>
      <point x="807.1111111111111" y="1316.6666666666665"/>
      <point x="807.1111111111111" y="1098.0" type="curve" smooth="yes"/>
      <point x="807.1111111111111" y="956.3333333333334"/>
      <point x="744.4444444444445" y="826.0"/>
      <point x="561.8888888888889" y="613.1111111111111" type="curve" smooth="yes"/>
      <point x="80.1111111111111" y="51.22222222222226" type="line"/>
    </contour>
  </outline>
</glyph>
<glyph name="three" format="2">
  <advance width="1091.6666666666667"/>
  <unicode hex="0033"/>
  <outline>
    <contour>
      <point x="450.6666666666667" y="-18.11111111111111" type="curve" smooth="yes"/>
      <point x="836.8888888888889" y="-18.11111111111111"/>
      <point x="1012.2222222222223" y="142.77777777777777"/>
      <point x="1012.2222222222223" y="405.11111111111114" type="curve" smooth="yes"/>
      <point x="1012.2222222222223" y="622.4444444444445"/>
      <point x="867.2222222222223" y="756.7777777777778"/>
      <point x="601.5555555555557" y="783.1111111111111" type="curve"/>
      <point x="601.5555555555557" y="754.1111111111111" type="line"/>
      <point x="816.4444444444446" y="795.8888888888889"/>
      <point x="960.1111111111112" y="925.4444444444445"/>
      <point x="960.1111111111112" y="1128.888888888889" type="curve" smooth="yes"/>
      <point x="960.1111111111112" y="1359.111111111111"/>
      <point x="788.1111111111111" y="1498.111111111111"/>
      <point x="487.66666666666663" y="1498.111111111111" type="curve" smooth="yes"/>
      <point x="356.77777777777777" y="1498.111111111111"/>
      <point x="231.44444444444443" y="1479.6666666666667"/>
      <point x="115.88888888888889" y="1443.7777777777778" type="curve"/>
      <point x="115.88888888888889" y="1361.2222222222222" type="line"/>
      <point x="241.2222222222222" y="1401.111111111111"/>
      <point x="364.8888888888889" y="1417.5555555555554"/>
      <point x="483.3333333333333" y="1417.5555555555554" type="curve" smooth="yes"/>
      <point x="731.1111111111111" y="1417.5555555555554"/>
      <point x="868.8888888888889" y="1309.0"/>
      <point x="868.8888888888889" y="1125.0" type="curve" smooth="yes"/>
      <point x="868.8888888888889" y="903.7777777777778"/>
      <point x="697.8888888888889" y="801.0"/>
      <point x="386.6666666666667" y="801.0" type="curve" smooth="yes"/>
      <point x="300.55555555555554" y="801.0" type="line"/>
      <point x="300.55555555555554" y="720.3333333333333" type="line"/>
      <point x="510.0" y="720.3333333333333" type="line" smooth="yes"/>
      <point x="788.1111111111111" y="720.3333333333333"/>
      <point x="921.7777777777777" y="608.1111111111111"/>
      <point x="921.7777777777777" y="408.55555555555554" type="curve" smooth="yes"/>
      <point x="921.7777777777777" y="188.22222222222226"/>
      <point x="777.8888888888889" y="62.44444444444449"/>
      <point x="452.8888888888889" y="62.44444444444449" type="curve" smooth="yes"/>
      <point x="330.8888888888889" y="62.44444444444449"/>
      <point x="195.11111111111111" y="84.66666666666671"/>
      <point x="63.44444444444444" y="127.88888888888894" type="curve"/>
      <point x="63.44444444444444" y="45.33333333333333" type="line"/>
      <point x="182.44444444444446" y="3.8888888888888884"/>
      <point x="323.55555555555554" y="-18.11111111111111"/>
    </contour>
  </outline>
</glyph>
<glyph name="four" format="2">
  <advance width="1274.7777777777778"/>
  <unicode hex="0034"/>
  <outline>
    <contour>
      <point x="56.666666666666664" y="376.88888888888886" type="line"/>
      <point x="1225.7777777777778" y="376.88888888888886" type="line"/>
      <point x="1225.7777777777778" y="457.33333333333337" type="line"/>
      <point x="134.88888888888894" y="457.33333333333337" type="line"/>
      <point x="153.88888888888897" y="426.6666666666667" type="line"/>
      <point x="838.1111111111111" y="1480.0" type="line"/>
      <point x="739.2222222222222" y="1480.0" type="line"/>
      <point x="56.666666666666664" y="428.55555555555554" type="line"/>
    </contour>
    <contour>
      <point x="900.2222222222222" y="0.0" type="line"/>
      <point x="988.1111111111112" y="0.0" type="line"/>
      <point x="988.1111111111112" y="980.0" type="line"/>
      <point x="915.6666666666666" y="980.0" type="line"/>
      <point x="900.2222222222222" y="457.33333333333337" type="line"/>
    </contour>
  </outline>
</glyph>
<glyph name="five" format="2">
  <advance width="1109.3333333333335"/>
  <unicode hex="0035"/>
  <outline>
    <contour>
      <point x="478.44444444444446" y="-18.11111111111111" type="curve" smooth="yes"/>
      <point x="848.6666666666667" y="-18.11111111111111"/>
      <point x="1040.0" y="133.33333333333334"/>
      <point x="1040.111111111111" y="414.55555555555554" type="curve" smooth="yes"/>
      <point x="1040.2222222222222" y="674.2222222222223"/>
      <point x="867.0" y="808.0"/>
      <point x="391.33333333333337" y="835.7777777777778" type="curve" smooth="yes"/>
      <point x="184.22222222222223" y="847.7777777777778" type="line"/>
      <point x="251.11111111111117" y="797.7777777777778" type="line"/>
      <point x="296.7777777777778" y="1430.6666666666667" type="line"/>
      <point x="249.8888888888889" y="1400.888888888889" type="line"/>
      <point x="977.8888888888889" y="1400.888888888889" type="line"/>
      <point x="977.8888888888889" y="1480.0" type="line"/>
      <point x="212.22222222222223" y="1480.0" type="line"/>
      <point x="159.88888888888889" y="767.4444444444445" type="line"/>
      <point x="367.0" y="755.4444444444445" type="line" smooth="yes"/>
      <point x="806.0" y="729.8888888888889"/>
      <point x="949.5555555555555" y="627.1111111111111"/>
      <point x="949.5555555555555" y="414.33333333333337" type="curve" smooth="yes"/>
      <point x="949.5555555555555" y="179.22222222222226"/>
      <point x="794.3333333333333" y="62.88888888888894"/>
      <point x="480.6666666666667" y="62.88888888888894" type="curve" smooth="yes"/>
      <point x="354.8888888888889" y="62.88888888888894"/>
      <point x="219.11111111111111" y="85.11111111111117"/>
      <point x="91.22222222222221" y="128.33333333333337" type="curve"/>
      <point x="91.22222222222221" y="45.77777777777778" type="line"/>
      <point x="208.33333333333334" y="6.0"/>
      <point x="349.44444444444446" y="-18.11111111111111"/>
    </contour>
  </outline>
</glyph>
<glyph name="six" format="2">
  <advance width="1247.2222222222222"/>
  <unicode hex="0036"/>
  <outline>
    <contour>
      <point x="701.4444444444445" y="-18.11111111111111" type="curve" smooth="yes"/>
      <point x="976.8888888888889" y="-18.11111111111111"/>
      <point x="1170.1111111111113" y="125.11111111111111"/>
      <point x="1170.1111111111113" y="405.11111111111114" type="curve" smooth="yes"/>
      <point x="1170.1111111111113" y="689.4444444444445"/>
      <point x="982.3333333333334" y="833.1111111111111"/>
      <point x="662.5555555555557" y="833.1111111111111" type="curve" smooth="yes"/>
      <point x="505.33333333333337" y="833.1111111111111"/>
      <point x="332.44444444444446" y="783.6666666666667"/>
      <point x="224.00000000000006" y="702.7777777777778" type="curve"/>
      <point x="224.00000000000006" y="616.5555555555555" type="line"/>
      <point x="336.33333333333337" y="712.0"/>
      <point x="519.2222222222223" y="753.2222222222222"/>
      <point x="653.3333333333334" y="753.2222222222222" type="curve" smooth="yes"/>
      <point x="928.7777777777778" y="753.2222222222222"/>
      <point x="1080.4444444444443" y="639.1111111111111"/>
      <point x="1080.4444444444443" y="402.6666666666667" type="curve" smooth="yes"/>
      <point x="1080.4444444444443" y="168.6666666666667"/>
      <point x="925.4444444444445" y="61.77777777777783"/>
      <point x="701.4444444444445" y="61.77777777777783" type="curve" smooth="yes"/>
      <point x="411.8888888888889" y="61.77777777777783"/>
      <point x="242.66666666666674" y="232.11111111111114"/>
      <point x="242.66666666666674" y="687.7777777777777" type="curve" smooth="yes"/>
      <point x="242.66666666666674" y="710.5555555555555" type="line" smooth="yes"/>
      <point x="242.66666666666674" y="1188.5555555555554"/>
      <point x="432.7777777777778" y="1417.111111111111"/>
      <point x="807.8888888888889" y="1417.111111111111" type="curve" smooth="yes"/>
      <point x="895.4444444444445" y="1417.111111111111"/>
      <point x="1012.1111111111112" y="1404.6666666666665"/>
      <point x="1101.0" y="1368.5555555555554" type="curve"/>
      <point x="1101.0" y="1451.5555555555557" type="line"/>
      <point x="1013.3333333333334" y="1486.0"/>
      <point x="904.7777777777778" y="1498.111111111111"/>
      <point x="804.1111111111111" y="1498.111111111111" type="curve" smooth="yes"/>
      <point x="378.6666666666667" y="1498.111111111111"/>
      <point x="151.2222222222222" y="1232.111111111111"/>
      <point x="151.2222222222222" y="693.3333333333334" type="curve" smooth="yes"/>
      <point x="151.2222222222222" y="187.77777777777777"/>
      <point x="359.3333333333333" y="-18.11111111111111"/>
    </contour>
  </outline>
</glyph>
<glyph name="seven" format="2">
  <advance width="1012.4444444444445"/>
  <unicode hex="0037"/>
  <outline>
    <contour>
      <point x="202.0" y="0.0" type="line"/>
      <point x="300.55555555555566" y="0.0" type="line"/>
      <point x="950.6666666666667" y="1428.7777777777778" type="line"/>
      <point x="950.6666666666667" y="1480.0" type="line"/>
      <point x="15.777777777777775" y="1480.0" type="line"/>
      <point x="15.777777777777775" y="1399.111111111111" type="line"/>
      <point x="879.5555555555555" y="1399.111111111111" type="line"/>
      <point x="856.0" y="1430.6666666666665" type="line"/>
    </contour>
  </outline>
</glyph>
<glyph name="eight" format="2">
  <advance width="1371.888888888889"/>
  <unicode hex="0038"/>
  <outline>
    <contour>
      <point x="695.4444444444445" y="-18.11111111111111" type="curve" smooth="yes"/>
      <point x="1051.888888888889" y="-18.11111111111111"/>
      <point x="1244.2222222222222" y="135.33333333333334"/>
      <point x="1244.2222222222222" y="379.11111111111114" type="curve" smooth="yes"/>
      <point x="1244.2222222222222" y="587.4444444444445"/>
      <point x="1099.5555555555557" y="714.7777777777778"/>
      <point x="731.6666666666667" y="776.8888888888889" type="curve" smooth="yes"/>
      <point x="392.7777777777778" y="833.7777777777778"/>
      <point x="277.00000000000006" y="934.3333333333334"/>
      <point x="277.00000000000006" y="1121.7777777777778" type="curve" smooth="yes"/>
      <point x="277.00000000000006" y="1306.2222222222222"/>
      <point x="412.44444444444446" y="1418.888888888889"/>
      <point x="679.7777777777778" y="1418.888888888889" type="curve" smooth="yes"/>
      <point x="943.6666666666667" y="1418.888888888889"/>
      <point x="1098.4444444444443" y="1316.111111111111"/>
      <point x="1098.4444444444443" y="1119.2222222222222" type="curve" smooth="yes"/>
      <point x="1098.4444444444443" y="947.0"/>
      <point x="1005.0" y="839.3333333333334"/>
      <point x="783.7777777777778" y="760.2222222222223" type="curve"/>
      <point x="860.8888888888889" y="722.6666666666666" type="line"/>
      <point x="1071.4444444444446" y="794.7777777777778"/>
      <point x="1185.3333333333335" y="929.0"/>
      <point x="1185.3333333333335" y="1124.3333333333333" type="curve" smooth="yes"/>
      <point x="1185.3333333333335" y="1358.2222222222222"/>
      <point x="999.5555555555557" y="1498.111111111111"/>
      <point x="682.4444444444445" y="1498.111111111111" type="curve" smooth="yes"/>
      <point x="368.0" y="1498.111111111111"/>
      <point x="184.44444444444443" y="1355.4444444444443"/>
      <point x="184.44444444444443" y="1118.7777777777778" type="curve" smooth="yes"/>
      <point x="184.44444444444443" y="897.3333333333334"/>
      <point x="327.77777777777777" y="762.8888888888889"/>
      <point x="706.8888888888889" y="697.6666666666666" type="curve" smooth="yes"/>
      <point x="1029.5555555555557" y="641.4444444444445"/>
      <point x="1152.0" y="552.0"/>
      <point x="1152.0" y="373.6666666666667" type="curve" smooth="yes"/>
      <point x="1152.0" y="171.33333333333337"/>
      <point x="993.3333333333333" y="61.11111111111116"/>
      <point x="697.4444444444445" y="61.11111111111116" type="curve" smooth="yes"/>
      <point x="386.44444444444446" y="61.11111111111116"/>
      <point x="217.88888888888894" y="171.7777777777778"/>
      <point x="217.88888888888894" y="384.44444444444446" type="curve" smooth="yes"/>
      <point x="217.88888888888894" y="554.6666666666666"/>
      <point x="332.2222222222223" y="693.3333333333333"/>
      <point x="558.5555555555555" y="750.8888888888889" type="curve"/>
      <point x="470.1111111111111" y="788.1111111111111" type="line"/>
      <point x="255.2222222222222" y="720.7777777777777"/>
      <point x="127.33333333333331" y="583.0"/>
      <point x="127.33333333333331" y="376.8888888888889" type="curve" smooth="yes"/>
      <point x="127.33333333333331" y="119.66666666666667"/>
      <point x="326.44444444444446" y="-18.11111111111111"/>
    </contour>
  </outline>
</glyph>
<glyph name="nine" format="2">
  <advance width="1247.2222222222222"/>
  <unicode hex="0039"/>
  <outline>
    <contour>
      <point x="545.7777777777778" y="1498.111111111111" type="curve" smooth="yes"/>
      <point x="270.3333333333333" y="1498.111111111111"/>
      <point x="77.11111111111111" y="1354.888888888889"/>
      <point x="77.11111111111111" y="1074.888888888889" type="curve" smooth="yes"/>
      <point x="77.11111111111111" y="790.5555555555555"/>
      <point x="264.8888888888889" y="646.8888888888889"/>
      <point x="584.6666666666666" y="646.8888888888889" type="curve" smooth="yes"/>
      <point x="741.8888888888889" y="646.8888888888889"/>
      <point x="914.7777777777778" y="696.3333333333333"/>
      <point x="1023.2222222222222" y="777.2222222222222" type="curve"/>
      <point x="1023.2222222222222" y="863.4444444444445" type="line"/>
      <point x="910.8888888888889" y="768.0"/>
      <point x="728.0" y="726.7777777777778"/>
      <point x="593.8888888888889" y="726.7777777777778" type="curve" smooth="yes"/>
      <point x="318.4444444444445" y="726.7777777777778"/>
      <point x="166.77777777777783" y="840.8888888888889"/>
      <point x="166.77777777777783" y="1077.3333333333333" type="curve" smooth="yes"/>
      <point x="166.77777777777783" y="1311.3333333333333"/>
      <point x="321.7777777777778" y="1418.2222222222222"/>
      <point x="545.7777777777778" y="1418.2222222222222" type="curve" smooth="yes"/>
      <point x="835.3333333333333" y="1418.2222222222222"/>
      <point x="1004.5555555555555" y="1247.888888888889"/>
      <point x="1004.5555555555555" y="792.2222222222223" type="curve" smooth="yes"/>
      <point x="1004.5555555555555" y="769.4444444444445" type="line" smooth="yes"/>
      <point x="1004.5555555555555" y="291.44444444444446"/>
      <point x="814.4444444444445" y="62.88888888888894"/>
      <point x="439.33333333333337" y="62.88888888888894" type="curve" smooth="yes"/>
      <point x="351.77777777777777" y="62.88888888888894"/>
      <point x="235.11111111111111" y="75.33333333333339"/>
      <point x="146.22222222222223" y="111.4444444444445" type="curve"/>
      <point x="146.22222222222223" y="28.444444444444446" type="line"/>
      <point x="233.88888888888889" y="-6.0"/>
      <point x="342.44444444444446" y="-18.11111111111111"/>
      <point x="443.11111111111114" y="-18.11111111111111" type="curve" smooth="yes"/>
      <point x="868.5555555555557" y="-18.11111111111111"/>
      <point x="1096.0" y="247.88888888888889"/>
      <point x="1096.0" y="786.6666666666666" type="curve" smooth="yes"/>
      <point x="1096.0" y="1292.2222222222222"/>
      <point x="887.8888888888889" y="1498.111111111111"/>
    </contour>
  </outline>
</glyph>
<glyph name="colon" format="2">
  <advance width="465.5555555555556"/>
  <unicode hex="003A"/>
  <outline>
    <contour>
      <point x="232.7777777777778" y="-10.555555555555557" type="curve" smooth="yes"/>
      <point x="276.8888888888889" y="-10.555555555555557"/>
      <point x="307.4444444444445" y="17.77777777777779"/>
      <point x="307.4444444444445" y="62.22222222222226" type="curve" smooth="yes"/>
      <point x="307.4444444444445" y="106.66666666666673"/>
      <point x="277.11111111111114" y="136.88888888888897"/>
      <point x="232.7777777777778" y="136.88888888888897" type="curve" smooth="yes"/>
      <point x="188.44444444444446" y="136.88888888888897"/>
      <point x="158.1111111111111" y="106.88888888888894"/>
      <point x="158.1111111111111" y="62.22222222222226" type="curve" smooth="yes"/>
      <point x="158.1111111111111" y="17.555555555555568"/>
      <point x="188.66666666666666" y="-10.555555555555557"/>
    </contour>
    <contour>
      <point x="232.7777777777778" y="944.2222222222222" type="curve" smooth="yes"/>
      <point x="276.8888888888889" y="944.2222222222222"/>
      <point x="307.4444444444445" y="972.5555555555555"/>
      <point x="307.4444444444445" y="1017.0" type="curve" smooth="yes"/>
      <point x="307.4444444444445" y="1061.4444444444443"/>
      <point x="277.11111111111114" y="1091.6666666666667"/>
      <point x="232.7777777777778" y="1091.6666666666667" type="curve" smooth="yes"/>
      <point x="188.44444444444446" y="1091.6666666666667"/>
      <point x="158.1111111111111" y="1061.6666666666667"/>
      <point x="158.1111111111111" y="1017.0" type="curve" smooth="yes"/>
      <point x="158.1111111111111" y="972.3333333333333"/>
      <point x="188.66666666666666" y="944.2222222222222"/>
    </contour>
  </outline>
</glyph>
<glyph name="semicolon" format="2">
  <advance width="465.5555555555556"/>
  <unicode hex="003B"/>
  <outline>
    <contour>
      <point x="175.55555555555554" y="-303.33333333333337" type="curve"/>
      <point x="231.44444444444449" y="-303.33333333333337" type="line"/>
      <point x="274.4444444444445" y="-206.66666666666666"/>
      <point x="307.2222222222223" y="-88.22222222222221"/>
      <point x="307.2222222222223" y="39.111111111111136" type="curve" smooth="yes"/>
      <point x="307.2222222222223" y="108.00000000000006"/>
      <point x="277.11111111111114" y="136.88888888888897"/>
      <point x="230.55555555555557" y="136.88888888888897" type="curve" smooth="yes"/>
      <point x="186.55555555555554" y="136.88888888888897"/>
      <point x="158.1111111111111" y="106.88888888888894"/>
      <point x="158.1111111111111" y="64.11111111111114" type="curve" smooth="yes"/>
      <point x="158.1111111111111" y="19.444444444444457"/>
      <point x="188.66666666666666" y="-10.555555555555557"/>
      <point x="232.7777777777778" y="-10.555555555555557" type="curve" smooth="yes"/>
      <point x="247.22222222222226" y="-10.555555555555557" type="line"/>
      <point x="237.66666666666669" y="14.22222222222223" type="line"/>
      <point x="237.66666666666669" y="-89.55555555555556"/>
      <point x="214.22222222222223" y="-187.11111111111111"/>
    </contour>
    <contour>
      <point x="232.7777777777778" y="944.2222222222222" type="curve" smooth="yes"/>
      <point x="276.8888888888889" y="944.2222222222222"/>
      <point x="307.4444444444445" y="972.5555555555555"/>
      <point x="307.4444444444445" y="1017.0" type="curve" smooth="yes"/>
      <point x="307.4444444444445" y="1061.4444444444443"/>
      <point x="277.11111111111114" y="1091.6666666666667"/>
      <point x="232.7777777777778" y="1091.6666666666667" type="curve" smooth="yes"/>
      <point x="188.44444444444446" y="1091.6666666666667"/>
      <point x="158.1111111111111" y="1061.6666666666667"/>
      <point x="158.1111111111111" y="1017.0" type="curve" smooth="yes"/>
      <point x="158.1111111111111" y="972.3333333333333"/>
      <point x="188.66666666666666" y="944.2222222222222"/>
    </contour>
  </outline>
</glyph>
<glyph name="equal" format="2">
  <advance width="1112.888888888889"/>
  <unicode hex="003D"/>
  <outline>
    <contour>
      <point x="185.77777777777777" y="906.1111111111111" type="line"/>
      <point x="927.1111111111111" y="906.1111111111111" type="line"/>
      <point x="927.1111111111111" y="985.4444444444445" type="line"/>
      <point x="185.77777777777777" y="985.4444444444445" type="line"/>
    </contour>
    <contour>
      <point x="185.77777777777777" y="534.5555555555555" type="line"/>
      <point x="927.1111111111111" y="534.5555555555555" type="line"/>
      <point x="927.1111111111111" y="613.8888888888889" type="line"/>
      <point x="185.77777777777777" y="613.8888888888889" type="line"/>
    </contour>
  </outline>
</glyph>
<glyph name="greater" format="2">
  <advance width="1112.888888888889"/>
  <unicode hex="003E"/>
  <outline>
    <contour>
      <point x="185.77777777777777" y="395.66666666666663" type="line"/>
      <point x="927.1111111111111" y="723.5555555555555" type="line"/>
      <point x="927.1111111111111" y="796.4444444444445" type="line"/>
      <point x="185.77777777777777" y="1124.3333333333333" type="line"/>
      <point x="185.77777777777777" y="1037.4444444444443" type="line"/>
      <point x="853.4444444444445" y="747.3333333333334" type="line"/>
      <point x="853.4444444444445" y="773.2222222222222" type="line"/>
      <point x="185.77777777777777" y="482.55555555555554" type="line"/>
    </contour>
  </outline>
</glyph>
<glyph name="question" format="2">
  <advance width="959.4444444444446"/>
  <unicode hex="003F"/>
  <outline>
    <contour>
      <point x="413.55555555555554" y="312.8888888888889" type="line"/>
      <point x="474.33333333333337" y="312.8888888888889" type="line"/>
      <point x="485.33333333333337" y="675.0" type="line"/>
      <point x="790.1111111111111" y="782.1111111111111"/>
      <point x="891.8888888888889" y="908.2222222222222"/>
      <point x="891.8888888888889" y="1128.3333333333333" type="curve" smooth="yes"/>
      <point x="891.8888888888889" y="1359.111111111111"/>
      <point x="719.8888888888889" y="1498.111111111111"/>
      <point x="419.44444444444446" y="1498.111111111111" type="curve" smooth="yes"/>
      <point x="288.55555555555554" y="1498.111111111111"/>
      <point x="163.22222222222223" y="1479.6666666666667"/>
      <point x="47.666666666666664" y="1443.7777777777778" type="curve"/>
      <point x="47.666666666666664" y="1360.111111111111" type="line"/>
      <point x="173.0" y="1400.0"/>
      <point x="296.44444444444446" y="1416.4444444444443"/>
      <point x="414.8888888888889" y="1416.4444444444443" type="curve" smooth="yes"/>
      <point x="662.8888888888889" y="1416.4444444444443"/>
      <point x="800.6666666666666" y="1308.2222222222222"/>
      <point x="800.6666666666666" y="1124.7777777777778" type="curve" smooth="yes"/>
      <point x="800.6666666666666" y="934.1111111111111"/>
      <point x="702.2222222222222" y="828.4444444444445"/>
      <point x="397.77777777777777" y="732.5555555555555" type="curve"/>
    </contour>
    <contour>
      <point x="444.0" y="-10.555555555555557" type="curve" smooth="yes"/>
      <point x="490.00000000000006" y="-10.555555555555557"/>
      <point x="518.6666666666667" y="19.222222222222232"/>
      <point x="518.6666666666667" y="61.11111111111114" type="curve" smooth="yes"/>
      <point x="518.6666666666667" y="104.88888888888894"/>
      <point x="488.33333333333337" y="134.66666666666674"/>
      <point x="444.0" y="134.66666666666674" type="curve" smooth="yes"/>
      <point x="399.66666666666663" y="134.66666666666674"/>
      <point x="369.3333333333333" y="105.11111111111116"/>
      <point x="369.3333333333333" y="61.11111111111114" type="curve" smooth="yes"/>
      <point x="369.3333333333333" y="19.00000000000001"/>
      <point x="399.88888888888886" y="-10.555555555555557"/>
    </contour>
  </outline>
</glyph>
<glyph name="at" format="2">
  <advance width="2103.3333333333335"/>
  <unicode hex="0040"/>
  <outline>
    <contour>
      <point x="1105.4444444444446" y="-460.0" type="curve" smooth="yes"/>
      <point x="1250.111111111111" y="-460.0"/>
      <point x="1400.1111111111113" y="-440.1111111111111"/>
      <point x="1529.2222222222222" y="-404.1111111111111" type="curve"/>
      <point x="1529.2222222222222" y="-324.55555555555554" type="line"/>
      <point x="1379.2222222222222" y="-364.3333333333333"/>
      <point x="1248.2222222222222" y="-382.3333333333333"/>
      <point x="1105.4444444444446" y="-382.3333333333333" type="curve" smooth="yes"/>
      <point x="512.6666666666667" y="-382.3333333333333"/>
      <point x="220.8888888888889" y="-82.66666666666664"/>
      <point x="220.8888888888889" y="523.7777777777778" type="curve" smooth="yes"/>
      <point x="220.8888888888889" y="1113.2222222222222"/>
      <point x="508.8888888888889" y="1420.3333333333333"/>
      <point x="1057.7777777777778" y="1420.3333333333333" type="curve" smooth="yes"/>
      <point x="1604.888888888889" y="1420.3333333333333"/>
      <point x="1887.2222222222222" y="1121.2222222222222"/>
      <point x="1887.5555555555557" y="555.4444444444445" type="curve" smooth="yes"/>
      <point x="1887.7777777777778" y="199.8888888888889"/>
      <point x="1767.2222222222222" y="59.000000000000036"/>
      <point x="1624.7777777777778" y="59.000000000000036" type="curve" smooth="yes"/>
      <point x="1521.5555555555557" y="59.000000000000036"/>
      <point x="1464.7777777777778" y="105.88888888888893"/>
      <point x="1464.7777777777778" y="251.44444444444446" type="curve" smooth="yes"/>
      <point x="1464.7777777777778" y="728.8888888888889" type="line" smooth="yes"/>
      <point x="1464.7777777777778" y="1009.3333333333334"/>
      <point x="1312.888888888889" y="1096.111111111111"/>
      <point x="1052.111111111111" y="1096.111111111111" type="curve" smooth="yes"/>
      <point x="944.3333333333334" y="1096.111111111111"/>
      <point x="818.8888888888889" y="1077.888888888889"/>
      <point x="722.8888888888889" y="1041.6666666666667" type="curve"/>
      <point x="722.8888888888889" y="959.5555555555555" type="line"/>
      <point x="840.0" y="1001.1111111111111"/>
      <point x="958.8888888888889" y="1015.5555555555555"/>
      <point x="1049.3333333333333" y="1015.5555555555555" type="curve" smooth="yes"/>
      <point x="1256.6666666666667" y="1015.5555555555555"/>
      <point x="1375.3333333333335" y="958.1111111111111"/>
      <point x="1375.3333333333335" y="728.1111111111111" type="curve" smooth="yes"/>
      <point x="1375.3333333333335" y="222.7777777777778" type="line"/>
      <point x="1275.3333333333335" y="116.00000000000003"/>
      <point x="1142.4444444444443" y="62.5555555555556"/>
      <point x="1006.6666666666667" y="62.5555555555556" type="curve" smooth="yes"/>
      <point x="827.5555555555557" y="62.5555555555556"/>
      <point x="744.7777777777778" y="142.8888888888889"/>
      <point x="744.7777777777778" y="276.55555555555554" type="curve" smooth="yes"/>
      <point x="744.7777777777778" y="406.6666666666667"/>
      <point x="830.2222222222223" y="475.77777777777777"/>
      <point x="1031.888888888889" y="500.66666666666663" type="curve" smooth="yes"/>
      <point x="1412.2222222222222" y="548.6666666666666" type="line"/>
      <point x="1419.2222222222222" y="623.4444444444445" type="line"/>
      <point x="1029.6666666666667" y="575.4444444444445" type="line" smooth="yes"/>
      <point x="764.5555555555555" y="544.0"/>
      <point x="649.4444444444445" y="448.55555555555554"/>
      <point x="649.4444444444445" y="270.44444444444446" type="curve" smooth="yes"/>
      <point x="649.4444444444445" y="91.44444444444444"/>
      <point x="778.2222222222222" y="-16.333333333333336"/>
      <point x="998.2222222222222" y="-16.333333333333336" type="curve" smooth="yes"/>
      <point x="1149.2222222222222" y="-16.333333333333336"/>
      <point x="1292.2222222222222" y="44.222222222222214"/>
      <point x="1375.888888888889" y="130.11111111111111" type="curve"/>
      <point x="1386.6666666666667" y="130.11111111111111" type="line"/>
      <point x="1413.7777777777778" y="41.11111111111111"/>
      <point x="1487.2222222222222" y="-16.333333333333336"/>
      <point x="1614.3333333333335" y="-16.333333333333336" type="curve" smooth="yes"/>
      <point x="1810.7777777777778" y="-16.333333333333336"/>
      <point x="1966.4444444444443" y="149.44444444444446"/>
      <point x="1968.3333333333335" y="561.5555555555555" type="curve" smooth="yes"/>
      <point x="1970.2222222222222" y="1160.0"/>
      <point x="1651.6666666666667" y="1498.0"/>
      <point x="1057.7777777777778" y="1498.0" type="curve" smooth="yes"/>
      <point x="465.8888888888889" y="1498.0"/>
      <point x="135.0" y="1160.0"/>
      <point x="135.0" y="520.0" type="curve" smooth="yes"/>
      <point x="135.0" y="-123.77777777777779"/>
      <point x="467.77777777777777" y="-458.1111111111111"/>
    </contour>
  </outline>
</glyph>
<glyph name="B" format="2">
  <advance width="1352.0"/>
  <unicode hex="0042"/>
  <anchor x="690.1111111111111" y="0.0" name="bottom"/>
  <anchor x="690.1111111111111" y="1480.0" name="top"/>
  <outline>
    <contour>
      <point x="603.1111111111111" y="-10.555555555555557" type="curve" smooth="yes"/>
      <point x="1083.0" y="-10.555555555555557"/>
      <point x="1262.111111111111" y="133.33333333333334"/>
      <point x="1262.111111111111" y="401.6666666666667" type="curve" smooth="yes"/>
      <point x="1262.111111111111" y="600.1111111111111"/>
      <point x="1153.0" y="743.8888888888889"/>
      <point x="889.1111111111112" y="769.8888888888889" type="curve"/>
      <point x="883.4444444444446" y="754.1111111111111" type="line"/>
      <point x="1121.7777777777778" y="786.1111111111111"/>
      <point x="1218.4444444444446" y="919.4444444444445"/>
      <point x="1218.4444444444446" y="1104.0" type="curve" smooth="yes"/>
      <point x="1218.4444444444446" y="1362.888888888889"/>
      <point x="1048.3333333333335" y="1494.3333333333333"/>
      <point x="641.8888888888889" y="1494.3333333333333" type="curve" smooth="yes"/>
      <point x="471.22222222222223" y="1494.3333333333333"/>
      <point x="352.22222222222223" y="1481.3333333333333"/>
      <point x="211.2222222222222" y="1452.7777777777778" type="curve"/>
      <point x="211.2222222222222" y="15.777777777777777" type="line"/>
      <point x="364.3333333333333" y="-4.111111111111112"/>
      <point x="469.1111111111111" y="-10.555555555555557"/>
    </contour>
    <contour>
      <point x="612.3333333333334" y="69.5555555555556" type="curve" smooth="yes"/>
      <point x="486.7777777777778" y="69.5555555555556"/>
      <point x="397.2222222222223" y="75.22222222222227"/>
      <point x="301.2222222222223" y="90.66666666666671" type="curve"/>
      <point x="301.2222222222223" y="1386.7777777777778" type="line"/>
      <point x="394.66666666666674" y="1404.3333333333333"/>
      <point x="494.4444444444445" y="1414.2222222222222"/>
      <point x="646.7777777777778" y="1414.2222222222222" type="curve" smooth="yes"/>
      <point x="990.6666666666666" y="1414.2222222222222"/>
      <point x="1129.6666666666667" y="1324.888888888889"/>
      <point x="1129.6666666666667" y="1102.888888888889" type="curve" smooth="yes"/>
      <point x="1129.6666666666667" y="890.4444444444445"/>
      <point x="988.8888888888889" y="800.8888888888889"/>
      <point x="704.4444444444445" y="800.8888888888889" type="curve" smooth="yes"/>
      <point x="283.2222222222223" y="800.8888888888889" type="line"/>
      <point x="283.2222222222223" y="720.4444444444445" type="line"/>
      <point x="719.8888888888889" y="720.4444444444445" type="line" smooth="yes"/>
      <point x="1025.888888888889" y="720.4444444444445"/>
      <point x="1172.2222222222222" y="625.3333333333334"/>
      <point x="1172.2222222222222" y="406.22222222222223" type="curve" smooth="yes"/>
      <point x="1172.2222222222222" y="183.8888888888889"/>
      <point x="1044.3333333333333" y="69.5555555555556"/>
    </contour>
  </outline>
</glyph>
<glyph name="F" format="2">
  <advance width="1251.111111111111"/>
  <unicode hex="0046"/>
  <outline>
    <contour>
      <point x="211.2222222222222" y="0.0" type="line"/>
      <point x="301.88888888888897" y="0.0" type="line"/>
      <point x="301.88888888888897" y="1397.6666666666665" type="line"/>
      <point x="1169.6666666666667" y="1397.6666666666665" type="line"/>
      <point x="1169.6666666666667" y="1480.0" type="line"/>
      <point x="211.2222222222222" y="1480.0" type="line"/>
    </contour>
    <contour>
      <point x="282.33333333333337" y="716.7777777777777" type="line"/>
      <point x="1069.0" y="716.7777777777777" type="line"/>
      <point x="1069.0" y="799.1111111111111" type="line"/>
      <point x="282.33333333333337" y="799.1111111111111" type="line"/>
    </contour>
  </outline>
</glyph>
<glyph name="I" format="2">
  <advance width="513.1111111111112"/>
  <unicode hex="0049"/>
  <anchor x="256.44444444444446" y="0.0" name="bottom"/>
  <anchor x="301.88888888888897" y="0.0" name="ogonek"/>
  <anchor x="256.5555555555556" y="1520.0" name="top"/>
  <outline>
    <contour>
      <point x="211.2222222222222" y="0.0" type="line"/>
      <point x="301.88888888888897" y="0.0" type="line"/>
      <point x="301.88888888888897" y="1480.0" type="line"/>
      <point x="211.2222222222222" y="1480.0" type="line"/>
    </contour>
  </outline>
</glyph>
<glyph name="J" format="2">
  <advance width="513.1111111111112"/>
  <unicode hex="004A"/>
  <anchor x="362.33333333333337" y="0.0" name="bottom"/>
  <anchor x="256.6666666666667" y="1520.0" name="top"/>
  <outline>
    <contour>
      <point x="64.66666666666671" y="-341.0" type="line"/>
      <point x="229.3333333333334" y="-147.55555555555554"/>
      <point x="288.66666666666674" y="24.555555555555564"/>
      <point x="301.88888888888897" y="253.7777777777778" type="curve"/>
      <point x="301.88888888888897" y="1480.0" type="line"/>
      <point x="211.44444444444443" y="1480.0" type="line"/>
      <point x="211.44444444444443" y="286.8888888888889" type="line" smooth="yes"/>
      <point x="211.44444444444443" y="58.22222222222223"/>
      <point x="147.1111111111111" y="-122.55555555555554"/>
      <point x="3.111111111111109" y="-296.1111111111111" type="curve"/>
    </contour>
  </outline>
</glyph>
<glyph name="K" format="2">
  <advance width="1338.2222222222222"/>
  <unicode hex="004B"/>
  <anchor x="683.7777777777778" y="0.0" name="bottom"/>
  <anchor x="683.4444444444445" y="1480.0" name="top"/>
  <outline>
    <contour>
      <point x="1212.3333333333333" y="0.0" type="line"/>
      <point x="1324.111111111111" y="0.0" type="line"/>
      <point x="671.5555555555557" y="776.1111111111111" type="line"/>
      <point x="670.8888888888889" y="747.3333333333334" type="line"/>
      <point x="1281.6666666666667" y="1480.0" type="line"/>
      <point x="1172.7777777777778" y="1480.0" type="line"/>
      <point x="573.3333333333334" y="757.7777777777778" type="line"/>
    </contour>
    <contour>
      <point x="211.2222222222222" y="0.0" type="line"/>
      <point x="301.88888888888897" y="0.0" type="line"/>
      <point x="301.88888888888897" y="1480.0" type="line"/>
      <point x="211.2222222222222" y="1480.0" type="line"/>
    </contour>
    <contour>
      <point x="283.2222222222223" y="718.3333333333333" type="line"/>
      <point x="627.3333333333334" y="718.3333333333333" type="line"/>
      <point x="627.3333333333334" y="803.0" type="line"/>
      <point x="283.2222222222223" y="803.0" type="line"/>
    </contour>
  </outline>
</glyph>
<glyph name="L" format="2">
  <advance width="1175.0"/>
  <unicode hex="004C"/>
  <anchor x="683.3333333333334" y="0.0" name="bottom"/>
  <anchor x="763.0" y="1616.0" name="caronalt"/>
  <anchor x="826.4444444444445" y="782.6666666666667" name="periodcentered"/>
  <anchor x="256.5555555555556" y="778.4444444444445" name="slash"/>
  <anchor x="256.5555555555556" y="1520.0" name="top"/>
  <outline>
    <contour>
      <point x="211.2222222222222" y="0.0" type="line"/>
      <point x="1153.5555555555557" y="0.0" type="line"/>
      <point x="1153.5555555555557" y="82.77777777777783" type="line"/>
      <point x="301.88888888888897" y="82.77777777777783" type="line"/>
      <point x="301.88888888888897" y="1480.0" type="line"/>
      <point x="211.2222222222222" y="1480.0" type="line"/>
    </contour>
  </outline>
</glyph>
<glyph name="M" format="2">
  <advance width="1885.1111111111113"/>
  <unicode hex="004D"/>
  <anchor x="944.3333333333334" y="0.0" name="bottom"/>
  <anchor x="944.3333333333334" y="1480.0" name="top"/>
  <outline>
    <contour>
      <point x="215.2222222222222" y="0.0" type="line"/>
      <point x="302.2222222222223" y="0.0" type="line"/>
      <point x="302.2222222222223" y="1405.888888888889" type="line"/>
      <point x="258.11111111111114" y="1405.888888888889" type="line"/>
      <point x="895.7777777777778" y="201.11111111111111" type="line"/>
      <point x="989.3333333333334" y="201.11111111111111" type="line"/>
      <point x="1623.7777777777778" y="1405.888888888889" type="line"/>
      <point x="1582.888888888889" y="1405.888888888889" type="line"/>
      <point x="1582.888888888889" y="0.0" type="line"/>
      <point x="1669.888888888889" y="0.0" type="line"/>
      <point x="1669.888888888889" y="1480.0" type="line"/>
      <point x="1567.888888888889" y="1480.0" type="line"/>
      <point x="928.2222222222222" y="253.22222222222229" type="line"/>
      <point x="961.4444444444445" y="253.22222222222229" type="line"/>
      <point x="317.2222222222223" y="1480.0" type="line"/>
      <point x="215.2222222222222" y="1480.0" type="line"/>
    </contour>
  </outline>
</glyph>
<glyph name="P" format="2">
  <advance width="1325.888888888889"/>
  <unicode hex="0050"/>
  <outline>
    <contour>
      <point x="211.2222222222222" y="0.0" type="line"/>
      <point x="301.88888888888897" y="0.0" type="line"/>
      <point x="301.88888888888897" y="524.1111111111111" type="line"/>
      <point x="398.44444444444446" y="514.6666666666666"/>
      <point x="472.66666666666674" y="510.77777777777777"/>
      <point x="565.6666666666667" y="510.77777777777777" type="curve" smooth="yes"/>
      <point x="1028.2222222222222" y="510.77777777777777"/>
      <point x="1221.4444444444443" y="689.2222222222222"/>
      <point x="1221.4444444444443" y="1006.3333333333334" type="curve" smooth="yes"/>
      <point x="1221.4444444444443" y="1345.111111111111"/>
      <point x="1005.2222222222223" y="1494.3333333333333"/>
      <point x="613.6666666666667" y="1494.3333333333333" type="curve" smooth="yes"/>
      <point x="468.22222222222223" y="1494.3333333333333"/>
      <point x="352.55555555555554" y="1481.888888888889"/>
      <point x="211.2222222222222" y="1453.7777777777778" type="curve"/>
    </contour>
    <contour>
      <point x="565.8888888888889" y="591.2222222222223" type="curve" smooth="yes"/>
      <point x="465.00000000000006" y="591.2222222222223"/>
      <point x="385.66666666666674" y="597.0"/>
      <point x="301.88888888888897" y="608.6666666666667" type="curve"/>
      <point x="301.88888888888897" y="1387.0" type="line"/>
      <point x="394.66666666666674" y="1404.3333333333333"/>
      <point x="492.8888888888889" y="1413.888888888889"/>
      <point x="616.2222222222222" y="1413.888888888889" type="curve" smooth="yes"/>
      <point x="955.3333333333333" y="1413.888888888889"/>
      <point x="1128.0" y="1289.2222222222222"/>
      <point x="1128.0" y="1004.4444444444445" type="curve" smooth="yes"/>
      <point x="1128.0" y="732.3333333333334"/>
      <point x="972.3333333333333" y="591.2222222222223"/>
    </contour>
  </outline>
</glyph>
<glyph name="Q" format="2">
  <advance width="1589.7777777777778"/>
  <unicode hex="0051"/>
  <outline>
    <contour>
      <point x="1412.6666666666667" y="-191.88888888888894" type="curve"/>
      <point x="1424.1111111111113" y="-110.1111111111111" type="line"/>
      <point x="1178.3333333333335" y="-92.88888888888887"/>
      <point x="892.6666666666667" y="-53.88888888888887"/>
      <point x="711.8888888888889" y="17.222222222222246" type="curve"/>
      <point x="693.4444444444445" y="-5.999999999999993" type="line"/>
      <point x="1184.1111111111113" y="-56.22222222222222"/>
      <point x="1454.7777777777778" y="200.33333333333334"/>
      <point x="1454.7777777777778" y="740.0" type="curve" smooth="yes"/>
      <point x="1454.7777777777778" y="1279.6666666666667"/>
      <point x="1179.7777777777778" y="1498.111111111111"/>
      <point x="794.8888888888889" y="1498.111111111111" type="curve" smooth="yes"/>
      <point x="410.0" y="1498.111111111111"/>
      <point x="135.0" y="1268.5555555555557"/>
      <point x="135.0" y="738.8888888888889" type="curve" smooth="yes"/>
      <point x="135.0" y="150.33333333333334"/>
      <point x="423.77777777777777" y="-103.88888888888891"/>
    </contour>
    <contour>
      <point x="794.8888888888889" y="66.55555555555561" type="curve" smooth="yes"/>
      <point x="459.8888888888889" y="66.55555555555561"/>
      <point x="229.88888888888897" y="255.00000000000006"/>
      <point x="229.88888888888897" y="744.2222222222222" type="curve" smooth="yes"/>
      <point x="229.88888888888897" y="1224.7777777777778"/>
      <point x="460.4444444444445" y="1413.4444444444443"/>
      <point x="794.8888888888889" y="1413.4444444444443" type="curve" smooth="yes"/>
      <point x="1129.3333333333335" y="1413.4444444444443"/>
      <point x="1359.888888888889" y="1224.4444444444443"/>
      <point x="1359.888888888889" y="735.7777777777778" type="curve" smooth="yes"/>
      <point x="1359.888888888889" y="255.5555555555556"/>
      <point x="1129.6666666666667" y="66.55555555555561"/>
    </contour>
  </outline>
</glyph>
<glyph name="T" format="2">
  <advance width="1260.0"/>
  <unicode hex="0054"/>
  <anchor x="630.0" y="0.0" name="bottom"/>
  <anchor x="630.0" y="794.4444444444445" name="center"/>
  <anchor x="630.0" y="1520.0" name="top"/>
  <outline>
    <contour>
      <point x="584.6666666666666" y="0.0" type="line"/>
      <point x="675.3333333333334" y="0.0" type="line"/>
      <point x="675.3333333333334" y="1397.2222222222222" type="line"/>
      <point x="1239.888888888889" y="1397.2222222222222" type="line"/>
      <point x="1239.888888888889" y="1480.0" type="line"/>
      <point x="20.11111111111111" y="1480.0" type="line"/>
      <point x="20.11111111111111" y="1397.2222222222222" type="line"/>
      <point x="584.6666666666666" y="1397.2222222222222" type="line"/>
    </contour>
  </outline>
</glyph>
<glyph name="U" format="2">
  <advance width="1557.6666666666667"/>
  <unicode hex="0055"/>
  <anchor x="780.0" y="0.0" name="bottom"/>
  <anchor x="937.8888888888889" y="3.777777777777777" name="ogonek"/>
  <anchor x="780.0" y="1520.0" name="top"/>
  <anchor x="1266.0" y="1480.0" name="topright"/>
  <outline>
    <contour>
      <point x="780.0" y="-18.11111111111111" type="curve" smooth="yes"/>
      <point x="1170.3333333333335" y="-18.11111111111111"/>
      <point x="1354.3333333333335" y="159.11111111111114"/>
      <point x="1354.3333333333335" y="573.1111111111111" type="curve" smooth="yes"/>
      <point x="1354.3333333333335" y="1480.0" type="line"/>
      <point x="1266.0" y="1480.0" type="line"/>
      <point x="1266.0" y="561.5555555555555" type="line" smooth="yes"/>
      <point x="1266.0" y="212.00000000000006"/>
      <point x="1111.5555555555557" y="65.11111111111117"/>
      <point x="780.0" y="65.11111111111117" type="curve" smooth="yes"/>
      <point x="448.44444444444446" y="65.11111111111117"/>
      <point x="294.00000000000006" y="212.00000000000006"/>
      <point x="294.00000000000006" y="561.5555555555555" type="curve" smooth="yes"/>
      <point x="294.00000000000006" y="1480.0" type="line"/>
      <point x="203.33333333333331" y="1480.0" type="line"/>
      <point x="203.33333333333331" y="573.1111111111111" type="line" smooth="yes"/>
      <point x="203.33333333333331" y="159.11111111111114"/>
      <point x="389.1111111111111" y="-18.11111111111111"/>
    </contour>
  </outline>
</glyph>
<glyph name="V" format="2">
  <advance width="1413.2222222222222"/>
  <unicode hex="0056"/>
  <outline>
    <contour>
      <point x="643.1111111111111" y="0.0" type="line"/>
      <point x="770.1111111111112" y="0.0" type="line"/>
      <point x="1390.2222222222222" y="1480.0" type="line"/>
      <point x="1296.2222222222222" y="1480.0" type="line"/>
      <point x="699.4444444444445" y="48.6666666666667" type="line"/>
      <point x="720.7777777777778" y="48.6666666666667" type="line"/>
      <point x="122.66666666666674" y="1480.0" type="line"/>
      <point x="22.999999999999996" y="1480.0" type="line"/>
    </contour>
  </outline>
</glyph>
<glyph name="W" format="2">
  <advance width="2296.5555555555557"/>
  <unicode hex="0057"/>
  <anchor x="1149.2222222222222" y="0.0" name="bottom"/>
  <anchor x="1149.2222222222222" y="1520.0" name="top"/>
  <outline>
    <contour>
      <point x="564.2222222222222" y="0.0" type="line"/>
      <point x="686.3333333333334" y="0.0" type="line"/>
      <point x="1160.7777777777778" y="1423.0" type="line"/>
      <point x="1134.6666666666667" y="1423.0" type="line"/>
      <point x="1610.2222222222222" y="0.0" type="line"/>
      <point x="1732.3333333333335" y="0.0" type="line"/>
      <point x="2215.888888888889" y="1480.0" type="line"/>
      <point x="2124.6666666666665" y="1480.0" type="line"/>
      <point x="1661.0" y="50.88888888888893" type="line"/>
      <point x="1681.2222222222222" y="50.88888888888893" type="line"/>
      <point x="1207.7777777777778" y="1480.0" type="line"/>
      <point x="1090.111111111111" y="1480.0" type="line"/>
      <point x="617.5555555555555" y="50.88888888888893" type="line"/>
      <point x="638.5555555555557" y="50.88888888888893" type="line"/>
      <point x="175.3333333333334" y="1480.0" type="line"/>
      <point x="78.77777777777777" y="1480.0" type="line"/>
    </contour>
  </outline>
</glyph>
<glyph name="X" format="2">
  <advance width="1380.4444444444443"/>
  <unicode hex="0058"/>
  <outline>
    <contour>
      <point x="1232.2222222222222" y="0.0" type="line"/>
      <point x="1346.5555555555557" y="0.0" type="line"/>
      <point x="745.2222222222223" y="749.8888888888889" type="line"/>
      <point x="690.3333333333334" y="817.7777777777778" type="line"/>
      <point x="158.4444444444445" y="1480.0" type="line"/>
      <point x="44.1111111111111" y="1480.0" type="line"/>
      <point x="633.0" y="747.5555555555555" type="line"/>
      <point x="687.8888888888889" y="679.6666666666666" type="line"/>
    </contour>
    <contour>
      <point x="32.11111111111109" y="0.0" type="line"/>
      <point x="143.66666666666674" y="0.0" type="line"/>
      <point x="687.8888888888889" y="679.6666666666666" type="line"/>
      <point x="745.2222222222223" y="749.8888888888889" type="line"/>
      <point x="1333.5555555555557" y="1480.0" type="line"/>
      <point x="1224.0" y="1480.0" type="line"/>
      <point x="690.3333333333334" y="817.7777777777778" type="line"/>
      <point x="633.0" y="747.5555555555555" type="line"/>
    </contour>
  </outline>
</glyph>
<glyph name="Y" format="2">
  <advance width="1260.0"/>
  <unicode hex="0059"/>
  <anchor x="629.8888888888889" y="0.0" name="bottom"/>
  <anchor x="629.8888888888889" y="1520.0" name="top"/>
  <anchor x="15.777777777777777" y="1480.0" name="topleft"/>
  <outline>
    <contour>
      <point x="584.8888888888889" y="0.0" type="line"/>
      <point x="675.5555555555557" y="0.0" type="line"/>
      <point x="675.5555555555557" y="709.8888888888889" type="line"/>
      <point x="651.5555555555557" y="641.6666666666666" type="line"/>
      <point x="1269.7777777777778" y="1480.0" type="line"/>
      <point x="1164.4444444444443" y="1480.0" type="line"/>
      <point x="610.0" y="724.6666666666667" type="line"/>
      <point x="655.1111111111112" y="724.6666666666667" type="line"/>
      <point x="92.55555555555563" y="1480.0" type="line"/>
      <point x="-18.444444444444454" y="1480.0" type="line"/>
      <point x="608.8888888888889" y="641.6666666666666" type="line"/>
      <point x="584.8888888888889" y="710.2222222222223" type="line"/>
    </contour>
  </outline>
</glyph>
<glyph name="Z" format="2">
  <advance width="1268.5555555555557"/>
  <unicode hex="005A"/>
  <anchor x="634.3333333333334" y="0.0" name="bottom"/>
  <anchor x="634.3333333333334" y="1520.0" name="top"/>
  <outline>
    <contour>
      <point x="70.77777777777779" y="0.0" type="line"/>
      <point x="1197.7777777777778" y="0.0" type="line"/>
      <point x="1197.7777777777778" y="80.88888888888894" type="line"/>
      <point x="167.1111111111112" y="80.88888888888894" type="line"/>
      <point x="178.44444444444454" y="53.33333333333338" type="line"/>
      <point x="1184.0" y="1428.111111111111" type="line"/>
      <point x="1184.0" y="1480.0" type="line"/>
      <point x="84.55555555555556" y="1480.0" type="line"/>
      <point x="84.55555555555556" y="1399.111111111111" type="line"/>
      <point x="1087.6666666666665" y="1399.111111111111" type="line"/>
      <point x="1076.3333333333333" y="1426.6666666666665" type="line"/>
      <point x="70.77777777777779" y="51.88888888888893" type="line"/>
    </contour>
  </outline>
</glyph>
<glyph name="bracketleft" format="2">
  <advance width="713.1111111111111"/>
  <unicode hex="005B"/>
  <outline>
    <contour>
      <point x="231.2222222222222" y="-440.0" type="line"/>
      <point x="751.0" y="-440.0" type="line"/>
      <point x="751.0" y="-359.5555555555555" type="line"/>
      <point x="321.2222222222223" y="-359.5555555555555" type="line"/>
      <point x="321.2222222222223" y="1535.5555555555554" type="line"/>
      <point x="752.1111111111111" y="1535.5555555555554" type="line"/>
      <point x="752.1111111111111" y="1616.0" type="line"/>
      <point x="231.2222222222222" y="1616.0" type="line"/>
    </contour>
  </outline>
</glyph>
<glyph name="backslash" format="2">
  <advance width="648.1111111111112"/>
  <unicode hex="005C"/>
  <outline>
    <contour>
      <point x="554.2222222222223" y="-240.0" type="line"/>
      <point x="648.1111111111112" y="-240.0" type="line"/>
      <point x="93.88888888888897" y="1616.0" type="line"/>
      <point x="0.0" y="1616.0" type="line"/>
    </contour>
  </outline>
</glyph>
<glyph name="bracketright" format="2">
  <advance width="713.1111111111111"/>
  <unicode hex="005D"/>
  <outline>
    <contour>
      <point x="-37.88888888888888" y="-440.0" type="line"/>
      <point x="481.8888888888889" y="-440.0" type="line"/>
      <point x="481.8888888888889" y="1616.0" type="line"/>
      <point x="-39.0" y="1616.0" type="line"/>
      <point x="-39.0" y="1535.5555555555554" type="line"/>
      <point x="391.88888888888886" y="1535.5555555555554" type="line"/>
      <point x="391.88888888888886" y="-359.5555555555555" type="line"/>
      <point x="-37.88888888888888" y="-359.5555555555555" type="line"/>
    </contour>
  </outline>
</glyph>
<glyph name="asciicircum" format="2">
  <advance width="1213.3333333333335"/>
  <unicode hex="005E"/>
  <outline>
    <contour>
      <point x="109.55555555555554" y="740.0" type="line"/>
      <point x="212.6666666666667" y="740.0" type="line"/>
      <point x="616.5555555555557" y="1425.6666666666667" type="line"/>
      <point x="596.7777777777778" y="1425.6666666666667" type="line"/>
      <point x="1000.6666666666666" y="740.0" type="line"/>
      <point x="1103.7777777777778" y="740.0" type="line"/>
      <point x="663.0" y="1480.0" type="line"/>
      <point x="548.4444444444445" y="1480.0" type="line"/>
    </contour>
  </outline>
</glyph>
<glyph name="underscore" format="2">
  <advance width="1234.5555555555557"/>
  <unicode hex="005F"/>
  <outline>
    <contour>
      <point x="99.44444444444444" y="-80.55555555555561" type="line"/>
      <point x="1135.1111111111113" y="-80.55555555555561" type="line"/>
      <point x="1135.1111111111113" y="-0.1111111111111115" type="line"/>
      <point x="99.44444444444444" y="-0.1111111111111115" type="line"/>
    </contour>
  </outline>
</glyph>
<glyph name="b" format="2">
  <advance width="1242.5555555555557"/>
  <unicode hex="0062"/>
  <anchor x="623.2222222222223" y="0.0" name="bottom"/>
  <anchor x="236.55555555555557" y="1616.0" name="top"/>
  <outline>
    <contour>
      <point x="543.6666666666667" y="-18.22222222222222" type="curve" smooth="yes"/>
      <point x="922.5555555555557" y="-18.22222222222222"/>
      <point x="1118.0" y="173.22222222222223"/>
      <point x="1118.0" y="561.1111111111111" type="curve" smooth="yes"/>
      <point x="1118.0" y="947.5555555555555"/>
      <point x="914.4444444444446" y="1097.2222222222222"/>
      <point x="652.1111111111112" y="1097.2222222222222" type="curve" smooth="yes"/>
      <point x="499.1111111111112" y="1097.2222222222222"/>
      <point x="374.1111111111112" y="1042.2222222222222"/>
      <point x="288.33333333333337" y="955.0" type="curve"/>
      <point x="281.5555555555556" y="955.0" type="line"/>
      <point x="281.5555555555556" y="1616.0" type="line"/>
      <point x="191.55555555555554" y="1616.0" type="line"/>
      <point x="191.55555555555554" y="31.111111111111114" type="line"/>
      <point x="306.77777777777777" y="-2.0"/>
      <point x="422.0" y="-18.22222222222222"/>
    </contour>
    <contour>
      <point x="553.5555555555555" y="63.00000000000005" type="curve" smooth="yes"/>
      <point x="444.8888888888889" y="63.00000000000005"/>
      <point x="351.5555555555556" y="78.4444444444445"/>
      <point x="281.5555555555556" y="99.66666666666671" type="curve"/>
      <point x="281.5555555555556" y="855.7777777777777" type="line"/>
      <point x="375.1111111111112" y="968.6666666666666"/>
      <point x="505.2222222222223" y="1014.6666666666666"/>
      <point x="638.8888888888889" y="1014.6666666666666" type="curve" smooth="yes"/>
      <point x="859.5555555555555" y="1014.6666666666666"/>
      <point x="1024.5555555555557" y="896.2222222222222"/>
      <point x="1024.5555555555557" y="551.7777777777778" type="curve" smooth="yes"/>
      <point x="1024.5555555555557" y="216.44444444444449"/>
      <point x="865.2222222222222" y="63.00000000000005"/>
    </contour>
  </outline>
</glyph>
<glyph name="f" format="2">
  <advance width="783.5555555555557"/>
  <unicode hex="0066"/>
  <outline>
    <contour>
      <point x="260.22222222222223" y="0.0" type="line"/>
      <point x="350.2222222222223" y="0.0" type="line"/>
      <point x="350.2222222222223" y="1234.888888888889" type="line" smooth="yes"/>
      <point x="350.2222222222223" y="1469.4444444444443"/>
      <point x="452.1111111111112" y="1554.0"/>
      <point x="666.6666666666667" y="1554.0" type="curve" smooth="yes"/>
      <point x="716.0" y="1554.0"/>
      <point x="774.4444444444445" y="1548.2222222222222"/>
      <point x="827.6666666666667" y="1538.5555555555554" type="curve"/>
      <point x="827.6666666666667" y="1622.111111111111" type="line"/>
      <point x="776.7777777777778" y="1630.111111111111"/>
      <point x="719.4444444444445" y="1636.0"/>
      <point x="666.0" y="1636.0" type="curve" smooth="yes"/>
      <point x="395.6666666666667" y="1636.0"/>
      <point x="260.22222222222223" y="1503.3333333333333"/>
      <point x="260.22222222222223" y="1226.5555555555554" type="curve" smooth="yes"/>
    </contour>
    <contour>
      <point x="23.55555555555556" y="1000.6666666666666" type="line"/>
      <point x="783.0" y="1000.6666666666666" type="line"/>
      <point x="783.0" y="1081.111111111111" type="line"/>
      <point x="23.55555555555556" y="1081.111111111111" type="line"/>
    </contour>
  </outline>
</glyph>
<glyph name="l" format="2">
  <advance width="473.11111111111114"/>
  <unicode hex="006C"/>
  <anchor x="236.44444444444446" y="0.0" name="bottom"/>
  <anchor x="419.33333333333337" y="1616.0" name="caronalt"/>
  <anchor x="469.3333333333334" y="794.0" name="periodcentered"/>
  <anchor x="236.55555555555557" y="714.0" name="slash"/>
  <anchor x="236.55555555555557" y="1616.0" name="top"/>
  <outline>
    <contour>
      <point x="191.55555555555554" y="0.0" type="line"/>
      <point x="281.5555555555556" y="0.0" type="line"/>
      <point x="281.5555555555556" y="1616.0" type="line"/>
      <point x="191.55555555555554" y="1616.0" type="line"/>
    </contour>
  </outline>
</glyph>
<glyph name="n" format="2">
  <advance width="1256.111111111111"/>
  <unicode hex="006E"/>
  <anchor x="15.777777777777777" y="1200.0" name="apostrophe"/>
  <anchor x="637.7777777777778" y="0.0" name="bottom"/>
  <anchor x="637.7777777777778" y="1200.0" name="top"/>
  <outline>
    <contour>
      <point x="191.55555555555554" y="0.0" type="line"/>
      <point x="281.5555555555556" y="0.0" type="line"/>
      <point x="281.5555555555556" y="845.6666666666666" type="line"/>
      <point x="395.2222222222223" y="968.6666666666666"/>
      <point x="553.7777777777778" y="1013.5555555555555"/>
      <point x="682.3333333333334" y="1013.5555555555555" type="curve" smooth="yes"/>
      <point x="874.2222222222222" y="1013.5555555555555"/>
      <point x="992.0" y="928.4444444444443"/>
      <point x="992.0" y="695.3333333333333" type="curve" smooth="yes"/>
      <point x="992.0" y="0.0" type="line"/>
      <point x="1082.0" y="0.0" type="line"/>
      <point x="1082.0" y="694.8888888888889" type="line" smooth="yes"/>
      <point x="1082.0" y="985.0"/>
      <point x="925.8888888888889" y="1097.2222222222222"/>
      <point x="690.0" y="1097.2222222222222" type="curve" smooth="yes"/>
      <point x="540.5555555555557" y="1097.2222222222222"/>
      <point x="395.66666666666674" y="1045.7777777777778"/>
      <point x="285.11111111111114" y="949.2222222222223" type="curve"/>
      <point x="276.4444444444445" y="949.2222222222223" type="line"/>
      <point x="269.2222222222223" y="1081.111111111111" type="line"/>
      <point x="191.55555555555554" y="1081.111111111111" type="line"/>
    </contour>
  </outline>
</glyph>
<glyph name="p" format="2">
  <advance width="1242.5555555555557"/>
  <unicode hex="0070"/>
  <outline>
    <contour>
      <point x="191.55555555555554" y="-440.0" type="line"/>
      <point x="281.5555555555556" y="-440.0" type="line"/>
      <point x="281.5555555555556" y="4.888888888888884" type="line"/>
      <point x="352.33333333333337" y="-6.66666666666667"/>
      <point x="442.5555555555556" y="-18.22222222222222"/>
      <point x="534.6666666666667" y="-18.22222222222222" type="curve" smooth="yes"/>
      <point x="922.2222222222223" y="-18.22222222222222"/>
      <point x="1118.0" y="173.55555555555557"/>
      <point x="1118.0" y="560.7777777777778" type="curve" smooth="yes"/>
      <point x="1118.0" y="948.5555555555555"/>
      <point x="911.6666666666667" y="1097.2222222222222"/>
      <point x="642.4444444444445" y="1097.2222222222222" type="curve" smooth="yes"/>
      <point x="496.44444444444446" y="1097.2222222222222"/>
      <point x="369.2222222222223" y="1041.5555555555557"/>
      <point x="285.33333333333337" y="948.6666666666666" type="curve"/>
      <point x="278.5555555555556" y="948.6666666666666" type="line"/>
      <point x="269.66666666666674" y="1081.111111111111" type="line"/>
      <point x="191.55555555555554" y="1081.111111111111" type="line"/>
    </contour>
    <contour>
      <point x="536.5555555555557" y="63.111111111111164" type="curve" smooth="yes"/>
      <point x="444.8888888888889" y="63.111111111111164"/>
      <point x="351.5555555555556" y="74.77777777777783"/>
      <point x="281.5555555555556" y="94.00000000000006" type="curve"/>
      <point x="281.5555555555556" y="843.8888888888889" type="line"/>
      <point x="374.8888888888889" y="968.5555555555555"/>
      <point x="503.33333333333337" y="1014.6666666666666"/>
      <point x="631.4444444444445" y="1014.6666666666666" type="curve" smooth="yes"/>
      <point x="859.4444444444445" y="1014.6666666666666"/>
      <point x="1024.5555555555557" y="896.2222222222222"/>
      <point x="1024.5555555555557" y="551.5555555555555" type="curve" smooth="yes"/>
      <point x="1024.5555555555557" y="216.5555555555556"/>
      <point x="865.2222222222222" y="63.111111111111164"/>
    </contour>
  </outline>
</glyph>
<glyph name="q" format="2">
  <advance width="1242.5555555555557"/>
  <unicode hex="0071"/>
  <outline>
    <contour>
      <point x="961.0" y="-440.0" type="line"/>
      <point x="1051.0" y="-440.0" type="line"/>
      <point x="1051.0" y="1047.888888888889" type="line"/>
      <point x="936.7777777777778" y="1080.6666666666667"/>
      <point x="820.5555555555557" y="1097.2222222222222"/>
      <point x="698.8888888888889" y="1097.2222222222222" type="curve" smooth="yes"/>
      <point x="320.0" y="1097.2222222222222"/>
      <point x="124.55555555555554" y="905.7777777777778"/>
      <point x="124.55555555555554" y="517.8888888888889" type="curve" smooth="yes"/>
      <point x="124.55555555555554" y="131.44444444444446"/>
      <point x="328.1111111111111" y="-18.22222222222222"/>
      <point x="590.4444444444445" y="-18.22222222222222" type="curve" smooth="yes"/>
      <point x="743.4444444444445" y="-18.22222222222222"/>
      <point x="868.4444444444445" y="36.77777777777777"/>
      <point x="954.2222222222222" y="124.0" type="curve"/>
      <point x="961.0" y="124.0" type="line"/>
    </contour>
    <contour>
      <point x="603.6666666666667" y="64.33333333333339" type="curve" smooth="yes"/>
      <point x="383.00000000000006" y="64.33333333333339"/>
      <point x="218.00000000000006" y="182.77777777777783"/>
      <point x="218.00000000000006" y="527.2222222222222" type="curve" smooth="yes"/>
      <point x="218.00000000000006" y="862.5555555555555"/>
      <point x="377.7777777777778" y="1016.0"/>
      <point x="689.0" y="1016.0" type="curve" smooth="yes"/>
      <point x="797.7777777777778" y="1016.0"/>
      <point x="891.0" y="1002.4444444444443"/>
      <point x="961.0" y="983.1111111111111" type="curve"/>
      <point x="961.0" y="223.22222222222226" type="line"/>
      <point x="867.4444444444445" y="110.33333333333339"/>
      <point x="733.5555555555555" y="64.33333333333339"/>
    </contour>
  </outline>
</glyph>
<glyph name="r" format="2">
  <advance width="789.8888888888889"/>
  <unicode hex="0072"/>
  <anchor x="236.55555555555557" y="0.0" name="bottom"/>
  <anchor x="482.8888888888889" y="1200.0" name="top"/>
  <outline>
    <contour>
      <point x="191.55555555555554" y="0.0" type="line"/>
      <point x="281.5555555555556" y="0.0" type="line"/>
      <point x="281.5555555555556" y="832.7777777777777" type="line"/>
      <point x="380.66666666666674" y="952.5555555555555"/>
      <point x="543.0" y="1001.1111111111111"/>
      <point x="659.3333333333334" y="1001.1111111111111" type="curve" smooth="yes"/>
      <point x="701.1111111111111" y="1001.1111111111111"/>
      <point x="737.8888888888889" y="999.1111111111111"/>
      <point x="774.1111111111111" y="992.9999999999999" type="curve"/>
      <point x="774.1111111111111" y="1079.7777777777778" type="line"/>
      <point x="733.0" y="1087.5555555555557"/>
      <point x="702.5555555555557" y="1089.6666666666667"/>
      <point x="660.8888888888889" y="1089.6666666666667" type="curve" smooth="yes"/>
      <point x="525.1111111111111" y="1089.6666666666667"/>
      <point x="375.7777777777778" y="1030.4444444444443"/>
      <point x="285.4444444444445" y="934.4444444444445" type="curve"/>
      <point x="276.7777777777778" y="934.4444444444445" type="line"/>
      <point x="269.11111111111114" y="1081.111111111111" type="line"/>
      <point x="191.55555555555554" y="1081.111111111111" type="line"/>
    </contour>
  </outline>
</glyph>
<glyph name="v" format="2">
  <advance width="1148.2222222222222"/>
  <unicode hex="0076"/>
  <anchor x="576.0" y="0.0" name="bottom"/>
  <anchor x="576.0" y="1200.0" name="top"/>
  <outline>
    <contour>
      <point x="515.1111111111111" y="0.0" type="line"/>
      <point x="633.0" y="0.0" type="line"/>
      <point x="1113.1111111111113" y="1081.111111111111" type="line"/>
      <point x="1021.8888888888889" y="1081.111111111111" type="line"/>
      <point x="570.6666666666667" y="56.44444444444451" type="line"/>
      <point x="585.2222222222223" y="56.44444444444451" type="line"/>
      <point x="134.00000000000006" y="1081.111111111111" type="line"/>
      <point x="35.1111111111111" y="1081.111111111111" type="line"/>
    </contour>
  </outline>
</glyph>
<glyph name="x" format="2">
  <advance width="1110.4444444444446"/>
  <unicode hex="0078"/>
  <anchor x="557.1111111111111" y="0.0" name="bottom"/>
  <anchor x="557.1111111111111" y="1200.0" name="top"/>
  <outline>
    <contour>
      <point x="959.8888888888889" y="0.0" type="line"/>
      <point x="1075.1111111111113" y="0.0" type="line"/>
      <point x="613.3333333333334" y="546.7777777777778" type="line"/>
      <point x="557.4444444444445" y="610.4444444444445" type="line"/>
      <point x="164.1111111111112" y="1081.111111111111" type="line"/>
      <point x="48.88888888888888" y="1081.111111111111" type="line"/>
      <point x="498.77777777777777" y="544.5555555555555" type="line"/>
      <point x="555.0" y="480.88888888888886" type="line"/>
    </contour>
    <contour>
      <point x="38.99999999999999" y="0.0" type="line"/>
      <point x="153.4444444444445" y="0.0" type="line"/>
      <point x="555.0" y="480.88888888888886" type="line"/>
      <point x="613.3333333333334" y="546.7777777777778" type="line"/>
      <point x="1063.0" y="1081.111111111111" type="line"/>
      <point x="952.3333333333333" y="1081.111111111111" type="line"/>
      <point x="557.4444444444445" y="610.4444444444445" type="line"/>
      <point x="498.77777777777777" y="544.5555555555555" type="line"/>
    </contour>
  </outline>
</glyph>
<glyph name="z" format="2">
  <advance width="1003.8888888888889"/>
  <unicode hex="007A"/>
  <anchor x="504.5555555555556" y="0.0" name="bottom"/>
  <anchor x="504.5555555555556" y="1200.0" name="top"/>
  <outline>
    <contour>
      <point x="69.33333333333334" y="0.0" type="line"/>
      <point x="939.6666666666667" y="0.0" type="line"/>
      <point x="939.6666666666667" y="80.4444444444445" type="line"/>
      <point x="177.1111111111112" y="80.4444444444445" type="line"/>
      <point x="177.1111111111112" y="53.77777777777783" type="line"/>
      <point x="925.8888888888889" y="1026.6666666666665" type="line"/>
      <point x="925.8888888888889" y="1081.111111111111" type="line"/>
      <point x="83.11111111111111" y="1081.111111111111" type="line"/>
      <point x="83.11111111111111" y="1000.6666666666666" type="line"/>
      <point x="818.1111111111111" y="1000.6666666666666" type="line"/>
      <point x="818.1111111111111" y="1027.3333333333333" type="line"/>
      <point x="69.33333333333334" y="54.44444444444449" type="line"/>
    </contour>
  </outline>
</glyph>
<glyph name="braceleft" format="2">
  <advance width="753.1111111111111"/>
  <unicode hex="007B"/>
  <outline>
    <contour>
      <point x="666.8888888888889" y="-460.0" type="curve" smooth="yes"/>
      <point x="713.1111111111111" y="-460.0"/>
      <point x="760.3333333333334" y="-455.8888888888889"/>
      <point x="792.1111111111111" y="-449.77777777777777" type="curve"/>
      <point x="792.1111111111111" y="-377.33333333333326" type="line"/>
      <point x="668.0" y="-377.33333333333326" type="line" smooth="yes"/>
      <point x="463.5555555555556" y="-377.33333333333326"/>
      <point x="361.2222222222223" y="-298.4444444444444"/>
      <point x="361.2222222222223" y="-91.99999999999997" type="curve" smooth="yes"/>
      <point x="361.2222222222223" y="372.77777777777777" type="line" smooth="yes"/>
      <point x="361.2222222222223" y="531.0"/>
      <point x="311.11111111111114" y="605.0"/>
      <point x="198.55555555555557" y="629.5555555555555" type="curve"/>
      <point x="198.55555555555557" y="615.5555555555555" type="line"/>
      <point x="311.11111111111114" y="640.1111111111111"/>
      <point x="361.2222222222223" y="714.1111111111111"/>
      <point x="361.2222222222223" y="872.3333333333334" type="curve" smooth="yes"/>
      <point x="361.2222222222223" y="1268.0" type="line" smooth="yes"/>
      <point x="361.2222222222223" y="1474.4444444444443"/>
      <point x="463.5555555555556" y="1553.3333333333333"/>
      <point x="668.0" y="1553.3333333333333" type="curve" smooth="yes"/>
      <point x="792.1111111111111" y="1553.3333333333333" type="line"/>
      <point x="792.1111111111111" y="1625.7777777777778" type="line"/>
      <point x="760.3333333333334" y="1631.888888888889"/>
      <point x="713.1111111111111" y="1636.0"/>
      <point x="666.8888888888889" y="1636.0" type="curve" smooth="yes"/>
      <point x="405.1111111111111" y="1636.0"/>
      <point x="271.22222222222223" y="1515.888888888889"/>
      <point x="271.22222222222223" y="1264.3333333333333" type="curve" smooth="yes"/>
      <point x="271.22222222222223" y="854.4444444444445" type="line" smooth="yes"/>
      <point x="271.22222222222223" y="716.4444444444445"/>
      <point x="210.0" y="662.7777777777778"/>
      <point x="81.44444444444444" y="662.7777777777778" type="curve" smooth="yes"/>
      <point x="52.777777777777764" y="662.7777777777778" type="line"/>
      <point x="52.777777777777764" y="582.3333333333333" type="line"/>
      <point x="81.44444444444444" y="582.3333333333333" type="line" smooth="yes"/>
      <point x="210.0" y="582.3333333333333"/>
      <point x="271.22222222222223" y="528.6666666666666"/>
      <point x="271.22222222222223" y="390.66666666666663" type="curve" smooth="yes"/>
      <point x="271.22222222222223" y="-88.33333333333333" type="line" smooth="yes"/>
      <point x="271.22222222222223" y="-339.88888888888886"/>
      <point x="405.1111111111111" y="-460.0"/>
    </contour>
  </outline>
</glyph>
<glyph name="bar" format="2">
  <advance width="510.0"/>
  <unicode hex="007C"/>
  <outline>
    <contour>
      <point x="211.2222222222222" y="-440.0" type="line"/>
      <point x="298.7777777777778" y="-440.0" type="line"/>
      <point x="298.7777777777778" y="1616.0" type="line"/>
      <point x="211.2222222222222" y="1616.0" type="line"/>
    </contour>
  </outline>
</glyph>
<glyph name="braceright" format="2">
  <advance width="753.1111111111111"/>
  <unicode hex="007D"/>
  <outline>
    <contour>
      <point x="86.22222222222224" y="-460.0" type="curve" smooth="yes"/>
      <point x="348.0" y="-460.0"/>
      <point x="481.8888888888889" y="-339.88888888888886"/>
      <point x="481.8888888888889" y="-88.33333333333333" type="curve" smooth="yes"/>
      <point x="481.8888888888889" y="390.66666666666663" type="line" smooth="yes"/>
      <point x="481.8888888888889" y="528.6666666666666"/>
      <point x="543.1111111111111" y="582.3333333333333"/>
      <point x="671.6666666666667" y="582.3333333333333" type="curve" smooth="yes"/>
      <point x="700.3333333333334" y="582.3333333333333" type="line"/>
      <point x="700.3333333333334" y="662.7777777777778" type="line"/>
      <point x="671.6666666666667" y="662.7777777777778" type="line" smooth="yes"/>
      <point x="543.1111111111111" y="662.7777777777778"/>
      <point x="481.8888888888889" y="716.4444444444445"/>
      <point x="481.8888888888889" y="854.4444444444445" type="curve" smooth="yes"/>
      <point x="481.8888888888889" y="1264.3333333333333" type="line" smooth="yes"/>
      <point x="481.8888888888889" y="1515.888888888889"/>
      <point x="348.0" y="1636.0"/>
      <point x="86.22222222222224" y="1636.0" type="curve" smooth="yes"/>
      <point x="40.000000000000014" y="1636.0"/>
      <point x="-7.2222222222222126" y="1631.888888888889"/>
      <point x="-39.0" y="1625.7777777777778" type="curve"/>
      <point x="-39.0" y="1553.3333333333333" type="line"/>
      <point x="85.11111111111111" y="1553.3333333333333" type="line" smooth="yes"/>
      <point x="289.55555555555554" y="1553.3333333333333"/>
      <point x="391.88888888888886" y="1474.4444444444443"/>
      <point x="391.88888888888886" y="1268.0" type="curve" smooth="yes"/>
      <point x="391.88888888888886" y="872.3333333333334" type="line" smooth="yes"/>
      <point x="391.88888888888886" y="714.1111111111111"/>
      <point x="442.0" y="640.1111111111111"/>
      <point x="554.5555555555555" y="615.5555555555555" type="curve"/>
      <point x="554.5555555555555" y="629.5555555555555" type="line"/>
      <point x="442.0" y="605.0"/>
      <point x="391.88888888888886" y="531.0"/>
      <point x="391.88888888888886" y="372.77777777777777" type="curve" smooth="yes"/>
      <point x="391.88888888888886" y="-91.99999999999997" type="line" smooth="yes"/>
      <point x="391.88888888888886" y="-298.4444444444444"/>
      <point x="289.55555555555554" y="-377.33333333333326"/>
      <point x="85.11111111111111" y="-377.33333333333326" type="curve" smooth="yes"/>
      <point x="-39.0" y="-377.33333333333326" type="line"/>
      <point x="-39.0" y="-449.77777777777777" type="line"/>
      <point x="-7.2222222222222126" y="-455.8888888888889"/>
      <point x="40.000000000000014" y="-460.0"/>
    </contour>
  </outline>
</glyph>
<glyph name="asciitilde" format="2">
  <advance width="1112.888888888889"/>
  <unicode hex="007E"/>
  <outline>
    <contour>
      <point x="730.8888888888889" y="656.7777777777777" type="curve" smooth="yes"/>
      <point x="811.0" y="656.7777777777777"/>
      <point x="881.5555555555555" y="688.6666666666666"/>
      <point x="927.1111111111111" y="747.4444444444445" type="curve"/>
      <point x="927.1111111111111" y="843.8888888888889" type="line"/>
      <point x="871.3333333333334" y="771.5555555555555"/>
      <point x="806.6666666666667" y="735.7777777777778"/>
      <point x="729.2222222222223" y="735.7777777777778" type="curve" smooth="yes"/>
      <point x="623.3333333333334" y="735.7777777777778"/>
      <point x="516.2222222222222" y="851.8888888888889"/>
      <point x="382.0" y="851.8888888888889" type="curve" smooth="yes"/>
      <point x="301.88888888888886" y="851.8888888888889"/>
      <point x="231.33333333333331" y="820.0"/>
      <point x="185.77777777777777" y="761.2222222222223" type="curve"/>
      <point x="185.77777777777777" y="664.7777777777777" type="line"/>
      <point x="241.55555555555554" y="737.1111111111111"/>
      <point x="306.22222222222223" y="772.8888888888889"/>
      <point x="383.6666666666667" y="772.8888888888889" type="curve" smooth="yes"/>
      <point x="489.55555555555554" y="772.8888888888889"/>
      <point x="596.6666666666666" y="656.7777777777777"/>
    </contour>
  </outline>
</glyph>
<glyph name="exclamdown" format="2">
  <advance width="505.5555555555556"/>
  <unicode hex="00A1"/>
  <outline>
    <contour>
      <point x="222.55555555555554" y="750.8888888888888" type="line"/>
      <point x="205.2222222222222" y="184.1111111111111" type="line"/>
      <point x="205.2222222222222" y="-380.0" type="line"/>
      <point x="300.33333333333337" y="-380.0" type="line"/>
      <point x="300.33333333333337" y="184.1111111111111" type="line"/>
      <point x="283.33333333333337" y="750.8888888888888" type="line"/>
    </contour>
    <contour>
      <point x="252.7777777777778" y="1091.6666666666667" type="curve" smooth="yes"/>
      <point x="208.66666666666666" y="1091.6666666666667"/>
      <point x="178.1111111111111" y="1063.5555555555557"/>
      <point x="178.1111111111111" y="1018.8888888888889" type="curve" smooth="yes"/>
      <point x="178.1111111111111" y="974.2222222222222"/>
      <point x="208.44444444444446" y="944.2222222222222"/>
      <point x="252.7777777777778" y="944.2222222222222" type="curve" smooth="yes"/>
      <point x="297.11111111111114" y="944.2222222222222"/>
      <point x="327.4444444444445" y="974.4444444444443"/>
      <point x="327.4444444444445" y="1018.8888888888889" type="curve" smooth="yes"/>
      <point x="327.4444444444445" y="1063.3333333333333"/>
      <point x="296.8888888888889" y="1091.6666666666667"/>
    </contour>
  </outline>
</glyph>
<glyph name="cent" format="2">
  <advance width="979.1111111111111"/>
  <unicode hex="00A2"/>
  <outline>
    <contour>
      <point x="618.2222222222223" y="-18.22222222222222" type="curve" smooth="yes"/>
      <point x="716.3333333333334" y="-18.22222222222222"/>
      <point x="817.3333333333334" y="-0.2222222222222232"/>
      <point x="912.5555555555557" y="35.11111111111111" type="curve"/>
      <point x="912.5555555555557" y="118.66666666666671" type="line"/>
      <point x="799.8888888888889" y="79.5555555555556"/>
      <point x="709.0" y="63.88888888888894"/>
      <point x="626.5555555555557" y="63.88888888888894" type="curve" smooth="yes"/>
      <point x="362.33333333333337" y="63.88888888888894"/>
      <point x="218.77777777777783" y="204.11111111111114"/>
      <point x="218.77777777777783" y="544.1111111111111" type="curve" smooth="yes"/>
      <point x="218.77777777777783" y="876.6666666666666"/>
      <point x="361.7777777777778" y="1015.1111111111111"/>
      <point x="661.6666666666667" y="1015.1111111111111" type="curve" smooth="yes"/>
      <point x="753.6666666666667" y="1015.1111111111111"/>
      <point x="829.6666666666667" y="1001.4444444444443"/>
      <point x="912.5555555555557" y="978.0" type="curve"/>
      <point x="912.5555555555557" y="1061.5555555555557" type="line"/>
      <point x="830.0" y="1085.3333333333333"/>
      <point x="750.6666666666667" y="1097.2222222222222"/>
      <point x="660.8888888888889" y="1097.2222222222222" type="curve" smooth="yes"/>
      <point x="312.66666666666663" y="1097.2222222222222"/>
      <point x="124.55555555555554" y="921.1111111111111"/>
      <point x="124.55555555555554" y="540.3333333333334" type="curve" smooth="yes"/>
      <point x="124.55555555555554" y="157.66666666666669"/>
      <point x="302.8888888888889" y="-18.22222222222222"/>
    </contour>
    <contour>
      <point x="573.7777777777778" y="-240.0" type="line"/>
      <point x="656.4444444444446" y="-240.0" type="line"/>
      <point x="656.4444444444446" y="3.3333333333333446" type="line"/>
      <point x="573.7777777777778" y="3.3333333333333446" type="line"/>
    </contour>
    <contour>
      <point x="573.7777777777778" y="1077.7777777777778" type="line"/>
      <point x="656.4444444444446" y="1077.7777777777778" type="line"/>
      <point x="656.4444444444446" y="1321.111111111111" type="line"/>
      <point x="573.7777777777778" y="1321.111111111111" type="line"/>
    </contour>
  </outline>
</glyph>
<glyph name="sterling" format="2">
  <advance width="1406.4444444444446"/>
  <unicode hex="00A3"/>
  <outline>
    <contour>
      <point x="337.22222222222223" y="37.11111111111113" type="line"/>
      <point x="426.66666666666674" y="37.11111111111113" type="line"/>
      <point x="426.66666666666674" y="1032.4444444444443" type="line" smooth="yes"/>
      <point x="426.66666666666674" y="1316.888888888889"/>
      <point x="587.1111111111112" y="1415.6666666666665"/>
      <point x="881.1111111111112" y="1415.6666666666665" type="curve" smooth="yes"/>
      <point x="1005.2222222222223" y="1415.6666666666665"/>
      <point x="1129.2222222222222" y="1397.5555555555554"/>
      <point x="1251.888888888889" y="1360.111111111111" type="curve"/>
      <point x="1251.888888888889" y="1444.7777777777778" type="line"/>
      <point x="1138.3333333333335" y="1480.111111111111"/>
      <point x="1011.3333333333334" y="1498.111111111111"/>
      <point x="883.5555555555555" y="1498.111111111111" type="curve" smooth="yes"/>
      <point x="526.5555555555555" y="1498.111111111111"/>
      <point x="337.22222222222223" y="1355.2222222222222"/>
      <point x="337.22222222222223" y="1031.0" type="curve" smooth="yes"/>
    </contour>
    <contour>
      <point x="80.55555555555556" y="0.0" type="line"/>
      <point x="1298.6666666666667" y="0.0" type="line"/>
      <point x="1298.6666666666667" y="79.88888888888894" type="line"/>
      <point x="80.55555555555556" y="79.88888888888894" type="line"/>
    </contour>
    <contour>
      <point x="80.55555555555556" y="710.8888888888889" type="line"/>
      <point x="1049.6666666666667" y="710.8888888888889" type="line"/>
      <point x="1049.6666666666667" y="789.1111111111111" type="line"/>
      <point x="80.55555555555556" y="789.1111111111111" type="line"/>
    </contour>
  </outline>
</glyph>
<glyph name="currency" format="2">
  <advance width="1213.3333333333335"/>
  <unicode hex="00A4"/>
  <outline>
    <contour>
      <point x="382.6666666666667" y="932.2222222222222" type="line"/>
      <point x="414.44444444444446" y="962.1111111111111" type="line"/>
      <point x="308.6666666666667" y="1096.111111111111" type="line"/>
      <point x="210.22222222222223" y="1198.4444444444446" type="line"/>
      <point x="146.33333333333331" y="1134.5555555555557" type="line"/>
      <point x="250.55555555555554" y="1036.111111111111" type="line"/>
    </contour>
    <contour>
      <point x="830.6666666666667" y="932.2222222222222" type="line"/>
      <point x="962.7777777777778" y="1036.111111111111" type="line"/>
      <point x="1067.0" y="1134.5555555555557" type="line"/>
      <point x="1003.1111111111111" y="1198.4444444444446" type="line"/>
      <point x="904.6666666666667" y="1096.111111111111" type="line"/>
      <point x="798.8888888888889" y="962.1111111111111" type="line"/>
    </contour>
    <contour>
      <point x="1001.2222222222223" y="281.55555555555554" type="line"/>
      <point x="1065.111111111111" y="345.44444444444446" type="line"/>
      <point x="962.7777777777778" y="443.8888888888889" type="line"/>
      <point x="840.1111111111111" y="538.3333333333334" type="line"/>
      <point x="808.3333333333334" y="504.6666666666667" type="line"/>
      <point x="902.7777777777778" y="383.88888888888886" type="line"/>
    </contour>
    <contour>
      <point x="212.11111111111114" y="281.55555555555554" type="line"/>
      <point x="310.5555555555556" y="383.88888888888886" type="line"/>
      <point x="405.00000000000006" y="504.6666666666667" type="line"/>
      <point x="373.22222222222223" y="538.3333333333334" type="line"/>
      <point x="250.55555555555554" y="443.8888888888889" type="line"/>
      <point x="148.22222222222223" y="345.44444444444446" type="line"/>
    </contour>
    <contour>
      <point x="606.6666666666667" y="405.1111111111111" type="curve" smooth="yes"/>
      <point x="796.4444444444445" y="405.1111111111111"/>
      <point x="924.8888888888889" y="538.3333333333334"/>
      <point x="924.8888888888889" y="740.0" type="curve" smooth="yes"/>
      <point x="924.8888888888889" y="939.6666666666666"/>
      <point x="796.4444444444445" y="1072.888888888889"/>
      <point x="606.6666666666667" y="1072.888888888889" type="curve" smooth="yes"/>
      <point x="415.0" y="1072.888888888889"/>
      <point x="288.44444444444446" y="939.6666666666666"/>
      <point x="288.44444444444446" y="740.0" type="curve" smooth="yes"/>
      <point x="288.44444444444446" y="538.3333333333334"/>
      <point x="415.0" y="405.1111111111111"/>
    </contour>
    <contour>
      <point x="606.6666666666667" y="476.11111111111114" type="curve" smooth="yes"/>
      <point x="460.33333333333337" y="476.11111111111114"/>
      <point x="360.44444444444446" y="573.8888888888889"/>
      <point x="360.44444444444446" y="740.0" type="curve" smooth="yes"/>
      <point x="360.44444444444446" y="906.1111111111111"/>
      <point x="460.33333333333337" y="1003.8888888888889"/>
      <point x="608.6666666666667" y="1003.8888888888889" type="curve" smooth="yes"/>
      <point x="766.4444444444445" y="1003.8888888888889"/>
      <point x="852.8888888888889" y="894.3333333333334"/>
      <point x="852.8888888888889" y="740.0" type="curve" smooth="yes"/>
      <point x="852.8888888888889" y="572.0"/>
      <point x="753.0" y="476.11111111111114"/>
    </contour>
  </outline>
</glyph>
<glyph name="yen" format="2">
  <advance width="1305.111111111111"/>
  <unicode hex="00A5"/>
  <outline>
    <contour>
      <point x="607.4444444444445" y="0.0" type="line"/>
      <point x="698.1111111111112" y="0.0" type="line"/>
      <point x="698.1111111111112" y="709.8888888888889" type="line"/>
      <point x="674.1111111111111" y="641.6666666666666" type="line"/>
      <point x="1296.111111111111" y="1480.0" type="line"/>
      <point x="1190.7777777777778" y="1480.0" type="line"/>
      <point x="632.5555555555555" y="724.6666666666667" type="line"/>
      <point x="677.6666666666667" y="724.6666666666667" type="line"/>
      <point x="118.88888888888896" y="1480.0" type="line"/>
      <point x="7.888888888888875" y="1480.0" type="line"/>
      <point x="631.4444444444445" y="641.6666666666666" type="line"/>
      <point x="607.4444444444445" y="710.2222222222223" type="line"/>
    </contour>
    <contour>
      <point x="268.0" y="314.55555555555554" type="line"/>
      <point x="1037.5555555555557" y="314.55555555555554" type="line"/>
      <point x="1037.5555555555557" y="388.8888888888889" type="line"/>
      <point x="268.0" y="388.8888888888889" type="line"/>
    </contour>
    <contour>
      <point x="268.0" y="659.1111111111111" type="line"/>
      <point x="1037.5555555555557" y="659.1111111111111" type="line"/>
      <point x="1037.5555555555557" y="733.4444444444445" type="line"/>
      <point x="268.0" y="733.4444444444445" type="line"/>
    </contour>
  </outline>
</glyph>
<glyph name="brokenbar" format="2">
  <advance width="510.0"/>
  <unicode hex="00A6"/>
  <outline>
    <contour>
      <point x="211.2222222222222" y="836.0" type="line"/>
      <point x="298.7777777777778" y="836.0" type="line"/>
      <point x="298.7777777777778" y="1616.0" type="line"/>
      <point x="211.2222222222222" y="1616.0" type="line"/>
    </contour>
    <contour>
      <point x="211.2222222222222" y="-440.0" type="line"/>
      <point x="298.7777777777778" y="-440.0" type="line"/>
      <point x="298.7777777777778" y="340.0" type="line"/>
      <point x="211.2222222222222" y="340.0" type="line"/>
    </contour>
  </outline>
</glyph>
<glyph name="section" format="2">
  <advance width="1118.4444444444446"/>
  <unicode hex="00A7"/>
  <outline>
    <contour>
      <point x="498.44444444444446" y="-18.22222222222222" type="curve" smooth="yes"/>
      <point x="801.7777777777778" y="-18.22222222222222"/>
      <point x="937.3333333333334" y="101.11111111111111"/>
      <point x="937.3333333333334" y="285.77777777777777" type="curve" smooth="yes"/>
      <point x="937.3333333333334" y="438.8888888888889"/>
      <point x="849.0" y="523.0"/>
      <point x="636.1111111111112" y="560.6666666666666" type="curve" smooth="yes"/>
      <point x="462.22222222222223" y="591.7777777777778" type="line" smooth="yes"/>
      <point x="291.8888888888889" y="622.6666666666666"/>
      <point x="243.44444444444449" y="701.6666666666666"/>
      <point x="243.44444444444449" y="799.8888888888889" type="curve" smooth="yes"/>
      <point x="243.44444444444449" y="872.7777777777777"/>
      <point x="276.11111111111114" y="934.8888888888889"/>
      <point x="350.0" y="977.1111111111111" type="curve"/>
      <point x="288.44444444444446" y="1025.0" type="line"/>
      <point x="202.0" y="970.5555555555555"/>
      <point x="158.1111111111111" y="890.1111111111111"/>
      <point x="158.1111111111111" y="796.2222222222222" type="curve" smooth="yes"/>
      <point x="158.1111111111111" y="644.0"/>
      <point x="243.11111111111111" y="548.0"/>
      <point x="450.0" y="510.4444444444444" type="curve" smooth="yes"/>
      <point x="623.7777777777778" y="479.4444444444444" type="line" smooth="yes"/>
      <point x="794.3333333333334" y="448.88888888888886"/>
      <point x="846.3333333333333" y="389.55555555555554"/>
      <point x="846.3333333333333" y="276.6666666666667" type="curve" smooth="yes"/>
      <point x="846.3333333333333" y="141.00000000000003"/>
      <point x="753.7777777777778" y="60.222222222222264"/>
      <point x="503.66666666666663" y="60.222222222222264" type="curve" smooth="yes"/>
      <point x="394.11111111111114" y="60.222222222222264"/>
      <point x="299.3333333333333" y="70.44444444444449"/>
      <point x="174.88888888888889" y="106.22222222222226" type="curve"/>
      <point x="174.88888888888889" y="25.88888888888889" type="line"/>
      <point x="278.22222222222223" y="-6.0"/>
      <point x="380.11111111111114" y="-18.22222222222222"/>
    </contour>
    <contour>
      <point x="838.2222222222223" y="458.1111111111111" type="line"/>
      <point x="915.8888888888889" y="512.6666666666666"/>
      <point x="960.3333333333334" y="589.5555555555555"/>
      <point x="960.3333333333334" y="685.7777777777778" type="curve" smooth="yes"/>
      <point x="960.3333333333334" y="840.0"/>
      <point x="872.0" y="926.3333333333334"/>
      <point x="659.2222222222223" y="963.7777777777778" type="curve" smooth="yes"/>
      <point x="484.33333333333337" y="994.6666666666667" type="line" smooth="yes"/>
      <point x="315.66666666666674" y="1025.2222222222222"/>
      <point x="271.00000000000006" y="1101.4444444444443"/>
      <point x="271.00000000000006" y="1199.111111111111" type="curve" smooth="yes"/>
      <point x="271.00000000000006" y="1325.111111111111"/>
      <point x="358.2222222222223" y="1417.6666666666665"/>
      <point x="618.2222222222223" y="1417.6666666666665" type="curve" smooth="yes"/>
      <point x="712.5555555555557" y="1417.6666666666665"/>
      <point x="789.8888888888889" y="1407.6666666666665"/>
      <point x="895.3333333333334" y="1378.2222222222222" type="curve"/>
      <point x="895.3333333333334" y="1458.5555555555557" type="line"/>
      <point x="803.3333333333334" y="1484.111111111111"/>
      <point x="713.0" y="1496.111111111111"/>
      <point x="616.1111111111111" y="1496.111111111111" type="curve" smooth="yes"/>
      <point x="305.3333333333333" y="1496.111111111111"/>
      <point x="180.0" y="1367.0"/>
      <point x="180.0" y="1195.6666666666667" type="curve" smooth="yes"/>
      <point x="180.0" y="1045.111111111111"/>
      <point x="264.8888888888889" y="951.2222222222222"/>
      <point x="473.1111111111111" y="913.4444444444445" type="curve" smooth="yes"/>
      <point x="646.8888888888889" y="882.3333333333333" type="line" smooth="yes"/>
      <point x="819.1111111111111" y="851.4444444444445"/>
      <point x="875.0" y="789.3333333333334"/>
      <point x="875.0" y="675.8888888888889" type="curve" smooth="yes"/>
      <point x="875.0" y="598.2222222222223"/>
      <point x="841.5555555555555" y="538.3333333333334"/>
      <point x="768.3333333333334" y="499.77777777777777" type="curve"/>
    </contour>
  </outline>
</glyph>
<glyph name="copyright" format="2">
  <advance width="1758.6666666666667"/>
  <unicode hex="00A9"/>
  <outline>
    <contour>
      <point x="879.3333333333334" y="-22.0" type="curve" smooth="yes"/>
      <point x="1325.6666666666667" y="-22.0"/>
      <point x="1623.6666666666667" y="282.0"/>
      <point x="1623.6666666666667" y="740.0" type="curve" smooth="yes"/>
      <point x="1623.6666666666667" y="1198.0"/>
      <point x="1325.6666666666667" y="1502.0"/>
      <point x="879.3333333333334" y="1502.0" type="curve" smooth="yes"/>
      <point x="433.0" y="1502.0"/>
      <point x="135.0" y="1198.0"/>
      <point x="135.0" y="740.0" type="curve" smooth="yes"/>
      <point x="135.0" y="282.0"/>
      <point x="433.0" y="-22.0"/>
    </contour>
    <contour>
      <point x="915.3333333333334" y="324.0" type="curve" smooth="yes"/>
      <point x="993.5555555555555" y="324.0"/>
      <point x="1065.5555555555557" y="336.0"/>
      <point x="1132.5555555555557" y="365.3333333333333" type="curve"/>
      <point x="1132.5555555555557" y="441.5555555555556" type="line"/>
      <point x="1050.7777777777778" y="410.33333333333337"/>
      <point x="980.4444444444445" y="400.5555555555556"/>
      <point x="922.5555555555555" y="400.5555555555556" type="curve" smooth="yes"/>
      <point x="731.2222222222223" y="400.5555555555556"/>
      <point x="612.5555555555555" y="507.44444444444446"/>
      <point x="612.5555555555555" y="737.6666666666666" type="curve" smooth="yes"/>
      <point x="612.5555555555555" y="962.3333333333333"/>
      <point x="730.8888888888889" y="1067.4444444444443"/>
      <point x="944.0" y="1067.4444444444443" type="curve" smooth="yes"/>
      <point x="1013.2222222222222" y="1067.4444444444443"/>
      <point x="1070.6666666666667" y="1057.6666666666667"/>
      <point x="1132.5555555555557" y="1040.111111111111" type="curve"/>
      <point x="1132.5555555555557" y="1116.3333333333333" type="line"/>
      <point x="1069.0" y="1136.0"/>
      <point x="1008.8888888888889" y="1144.0"/>
      <point x="940.5555555555555" y="1144.0" type="curve" smooth="yes"/>
      <point x="675.6666666666666" y="1144.0"/>
      <point x="527.8888888888889" y="995.7777777777778"/>
      <point x="527.8888888888889" y="733.8888888888889" type="curve" smooth="yes"/>
      <point x="527.8888888888889" y="462.6666666666667"/>
      <point x="683.0" y="324.0"/>
    </contour>
    <contour>
      <point x="879.3333333333334" y="54.00000000000003" type="curve" smooth="yes"/>
      <point x="477.1111111111111" y="54.00000000000003"/>
      <point x="211.55555555555557" y="326.33333333333337"/>
      <point x="211.55555555555557" y="740.0" type="curve" smooth="yes"/>
      <point x="211.55555555555557" y="1153.6666666666667"/>
      <point x="477.1111111111111" y="1426.0"/>
      <point x="879.3333333333334" y="1426.0" type="curve" smooth="yes"/>
      <point x="1281.5555555555554" y="1426.0"/>
      <point x="1547.111111111111" y="1153.6666666666667"/>
      <point x="1547.111111111111" y="740.0" type="curve" smooth="yes"/>
      <point x="1547.111111111111" y="326.33333333333337"/>
      <point x="1281.5555555555554" y="54.00000000000003"/>
    </contour>
  </outline>
</glyph>
<glyph name="ordfeminine" format="2">
  <advance width="950.3333333333334"/>
  <unicode hex="00AA"/>
  <outline>
    <contour>
      <point x="399.55555555555554" y="595.7777777777778" type="curve" smooth="yes"/>
      <point x="524.2222222222222" y="595.7777777777778"/>
      <point x="644.7777777777778" y="644.5555555555555"/>
      <point x="716.1111111111111" y="714.2222222222222" type="curve"/>
      <point x="722.7777777777778" y="714.2222222222222" type="line"/>
      <point x="730.1111111111111" y="610.0" type="line"/>
      <point x="803.0" y="610.0" type="line"/>
      <point x="803.0" y="1187.6666666666667" type="line" smooth="yes"/>
      <point x="803.0" y="1420.0"/>
      <point x="675.0" y="1492.5555555555557"/>
      <point x="443.0" y="1492.5555555555557" type="curve" smooth="yes"/>
      <point x="348.22222222222223" y="1492.5555555555557"/>
      <point x="244.22222222222223" y="1478.6666666666667"/>
      <point x="160.0" y="1448.6666666666667" type="curve"/>
      <point x="160.0" y="1372.4444444444443" type="line"/>
      <point x="259.3333333333333" y="1405.7777777777778"/>
      <point x="358.1111111111111" y="1417.888888888889"/>
      <point x="436.77777777777777" y="1417.888888888889" type="curve" smooth="yes"/>
      <point x="618.8888888888889" y="1417.888888888889"/>
      <point x="718.6666666666666" y="1370.6666666666665"/>
      <point x="718.6666666666666" y="1191.6666666666667" type="curve" smooth="yes"/>
      <point x="718.6666666666666" y="791.7777777777778" type="line"/>
      <point x="634.0" y="710.2222222222223"/>
      <point x="524.5555555555555" y="668.5555555555555"/>
      <point x="411.8888888888889" y="668.5555555555555" type="curve" smooth="yes"/>
      <point x="259.00000000000006" y="668.5555555555555"/>
      <point x="191.4444444444445" y="732.2222222222223"/>
      <point x="191.4444444444445" y="836.0" type="curve" smooth="yes"/>
      <point x="191.4444444444445" y="936.1111111111111"/>
      <point x="260.66666666666674" y="992.1111111111111"/>
      <point x="445.7777777777778" y="1013.0" type="curve" smooth="yes"/>
      <point x="757.2222222222222" y="1047.3333333333333" type="line"/>
      <point x="756.5555555555555" y="1112.111111111111" type="line"/>
      <point x="439.77777777777777" y="1077.6666666666667" type="line" smooth="yes"/>
      <point x="201.66666666666666" y="1052.5555555555557"/>
      <point x="103.66666666666666" y="973.7777777777778"/>
      <point x="103.66666666666666" y="829.7777777777778" type="curve" smooth="yes"/>
      <point x="103.66666666666666" y="685.3333333333334"/>
      <point x="211.44444444444443" y="595.7777777777778"/>
    </contour>
  </outline>
</glyph>
<glyph name="guillemetleft" format="2">
  <advance width="1083.888888888889"/>
  <unicode hex="00AB"/>
  <outline>
    <contour>
      <point x="464.44444444444446" y="139.44444444444443" type="line"/>
      <point x="566.6666666666667" y="139.44444444444443" type="line"/>
      <point x="244.11111111111117" y="560.5555555555555" type="line"/>
      <point x="566.6666666666667" y="981.6666666666666" type="line"/>
      <point x="464.44444444444446" y="981.6666666666666" type="line"/>
      <point x="141.88888888888889" y="560.5555555555555" type="line"/>
    </contour>
    <contour>
      <point x="879.7777777777778" y="139.44444444444443" type="line"/>
      <point x="982.0000000000001" y="139.44444444444443" type="line"/>
      <point x="659.4444444444446" y="560.5555555555555" type="line"/>
      <point x="982.0000000000001" y="981.6666666666666" type="line"/>
      <point x="879.7777777777778" y="981.6666666666666" type="line"/>
      <point x="557.2222222222223" y="560.5555555555555" type="line"/>
    </contour>
  </outline>
</glyph>
<glyph name="logicalnot" format="2">
  <advance width="1427.7777777777778"/>
  <unicode hex="00AC"/>
  <outline>
    <contour>
      <point x="1169.6666666666665" y="193.0" type="line"/>
      <point x="1253.6666666666667" y="193.0" type="line"/>
      <point x="1253.6666666666667" y="799.6666666666667" type="line"/>
      <point x="185.77777777777777" y="799.6666666666667" type="line"/>
      <point x="185.77777777777777" y="720.3333333333333" type="line"/>
      <point x="1169.6666666666665" y="720.3333333333333" type="line"/>
    </contour>
  </outline>
</glyph>
<glyph name="softhyphen" format="2">
  <advance width="932.7777777777778"/>
  <unicode hex="00AD"/>
  <outline>
    <contour>
      <point x="185.77777777777777" y="520.0" type="line"/>
      <point x="747.0" y="520.0" type="line"/>
      <point x="747.0" y="601.1111111111111" type="line"/>
      <point x="185.77777777777777" y="601.1111111111111" type="line"/>
    </contour>
  </outline>
</glyph>
<glyph name="registered" format="2">
  <advance width="1583.111111111111"/>
  <unicode hex="00AE"/>
  <outline>
    <contour>
      <point x="791.5555555555555" y="268.0" type="curve" smooth="yes"/>
      <point x="1153.5555555555557" y="268.0"/>
      <point x="1401.5555555555557" y="518.0"/>
      <point x="1401.5555555555557" y="882.0" type="curve" smooth="yes"/>
      <point x="1401.5555555555557" y="1246.0"/>
      <point x="1153.5555555555557" y="1498.0"/>
      <point x="791.5555555555555" y="1498.0" type="curve" smooth="yes"/>
      <point x="429.55555555555554" y="1498.0"/>
      <point x="181.55555555555554" y="1246.0"/>
      <point x="181.55555555555554" y="882.0" type="curve" smooth="yes"/>
      <point x="181.55555555555554" y="518.0"/>
      <point x="429.55555555555554" y="268.0"/>
    </contour>
    <contour>
      <point x="965.5555555555555" y="600.0" type="line"/>
      <point x="1047.4444444444443" y="600.0" type="line"/>
      <point x="872.7777777777778" y="857.7777777777777" type="line"/>
      <point x="807.0" y="831.7777777777777" type="line"/>
    </contour>
    <contour>
      <point x="791.5555555555555" y="339.0" type="curve" smooth="yes"/>
      <point x="466.8888888888889" y="339.0"/>
      <point x="255.11111111111111" y="553.0"/>
      <point x="255.11111111111111" y="882.0" type="curve" smooth="yes"/>
      <point x="255.11111111111111" y="1211.111111111111"/>
      <point x="466.8888888888889" y="1427.0"/>
      <point x="791.5555555555555" y="1427.0" type="curve" smooth="yes"/>
      <point x="1116.2222222222222" y="1427.0"/>
      <point x="1328.0" y="1211.111111111111"/>
      <point x="1328.0" y="882.0" type="curve" smooth="yes"/>
      <point x="1328.0" y="553.0"/>
      <point x="1116.2222222222222" y="339.0"/>
    </contour>
    <contour>
      <point x="582.7777777777777" y="600.0" type="line"/>
      <point x="654.3333333333334" y="600.0" type="line"/>
      <point x="654.6666666666666" y="823.7777777777777" type="line"/>
      <point x="777.8888888888889" y="823.7777777777777" type="line" smooth="yes"/>
      <point x="940.8888888888889" y="823.7777777777777"/>
      <point x="1023.0" y="889.6666666666666"/>
      <point x="1023.0" y="1006.8888888888889" type="curve" smooth="yes"/>
      <point x="1023.0" y="1124.111111111111"/>
      <point x="938.8888888888889" y="1192.0"/>
      <point x="777.8888888888889" y="1192.0" type="curve" smooth="yes"/>
      <point x="582.7777777777777" y="1192.0" type="line"/>
    </contour>
    <contour>
      <point x="654.6666666666666" y="889.6666666666666" type="line"/>
      <point x="654.6666666666666" y="1126.111111111111" type="line"/>
      <point x="790.6666666666666" y="1126.111111111111" type="line" smooth="yes"/>
      <point x="899.1111111111111" y="1126.111111111111"/>
      <point x="951.6666666666666" y="1087.0"/>
      <point x="951.6666666666666" y="1006.8888888888889" type="curve" smooth="yes"/>
      <point x="951.6666666666666" y="926.7777777777778"/>
      <point x="901.1111111111111" y="889.6666666666666"/>
      <point x="790.6666666666666" y="889.6666666666666" type="curve" smooth="yes"/>
    </contour>
  </outline>
</glyph>
<glyph name="degree" format="2">
  <advance width="1054.2222222222222"/>
  <unicode hex="00B0"/>
  <outline>
    <contour>
      <point x="527.1111111111111" y="805.8888888888889" type="curve" smooth="yes"/>
      <point x="729.0" y="805.8888888888889"/>
      <point x="872.6666666666666" y="951.2222222222222"/>
      <point x="872.6666666666666" y="1151.111111111111" type="curve" smooth="yes"/>
      <point x="872.6666666666666" y="1351.0"/>
      <point x="729.0" y="1496.2222222222222"/>
      <point x="527.1111111111111" y="1496.2222222222222" type="curve" smooth="yes"/>
      <point x="325.22222222222223" y="1496.2222222222222"/>
      <point x="181.55555555555554" y="1351.0"/>
      <point x="181.55555555555554" y="1151.111111111111" type="curve" smooth="yes"/>
      <point x="181.55555555555554" y="951.2222222222222"/>
      <point x="325.22222222222223" y="805.8888888888889"/>
    </contour>
    <contour>
      <point x="527.1111111111111" y="880.1111111111111" type="curve" smooth="yes"/>
      <point x="369.6666666666667" y="880.1111111111111"/>
      <point x="258.5555555555556" y="985.3333333333334"/>
      <point x="258.5555555555556" y="1151.111111111111" type="curve" smooth="yes"/>
      <point x="258.5555555555556" y="1317.0"/>
      <point x="369.77777777777777" y="1422.0"/>
      <point x="527.1111111111111" y="1422.0" type="curve" smooth="yes"/>
      <point x="684.4444444444445" y="1422.0"/>
      <point x="795.6666666666666" y="1317.0"/>
      <point x="795.6666666666666" y="1151.111111111111" type="curve" smooth="yes"/>
      <point x="795.6666666666666" y="985.3333333333334"/>
      <point x="684.5555555555555" y="880.1111111111111"/>
    </contour>
  </outline>
</glyph>
<glyph name="plusminus" format="2">
  <advance width="1112.888888888889"/>
  <unicode hex="00B1"/>
  <outline>
    <contour>
      <point x="514.4444444444445" y="321.22222222222223" type="line"/>
      <point x="598.4444444444445" y="321.22222222222223" type="line"/>
      <point x="598.4444444444445" y="666.2222222222222" type="line"/>
      <point x="927.1111111111111" y="666.2222222222222" type="line"/>
      <point x="927.1111111111111" y="745.5555555555557" type="line"/>
      <point x="598.4444444444445" y="745.5555555555557" type="line"/>
      <point x="598.4444444444445" y="1090.5555555555557" type="line"/>
      <point x="514.4444444444445" y="1090.5555555555557" type="line"/>
      <point x="514.4444444444445" y="745.5555555555557" type="line"/>
      <point x="185.77777777777777" y="745.5555555555557" type="line"/>
      <point x="185.77777777777777" y="666.2222222222222" type="line"/>
      <point x="514.4444444444445" y="666.2222222222222" type="line"/>
    </contour>
    <contour>
      <point x="185.77777777777777" y="0.0" type="line"/>
      <point x="927.1111111111111" y="0.0" type="line"/>
      <point x="927.1111111111111" y="79.33333333333339" type="line"/>
      <point x="185.77777777777777" y="79.33333333333339" type="line"/>
    </contour>
  </outline>
</glyph>
<glyph name="threesuperior" format="2">
  <advance width="827.0"/>
  <unicode hex="00B3"/>
  <outline>
    <contour>
      <point x="345.22222222222223" y="-148.11111111111111" type="curve" smooth="yes"/>
      <point x="621.6666666666667" y="-148.11111111111111"/>
      <point x="746.4444444444445" y="-39.44444444444444"/>
      <point x="746.4444444444445" y="138.77777777777777" type="curve" smooth="yes"/>
      <point x="746.4444444444445" y="284.3333333333333"/>
      <point x="645.4444444444445" y="375.1111111111111"/>
      <point x="466.8888888888889" y="393.3333333333333" type="curve"/>
      <point x="466.8888888888889" y="374.1111111111111" type="line"/>
      <point x="610.4444444444445" y="403.77777777777777"/>
      <point x="710.3333333333334" y="489.55555555555554"/>
      <point x="710.3333333333334" y="623.7777777777777" type="curve" smooth="yes"/>
      <point x="710.3333333333334" y="781.4444444444445"/>
      <point x="587.1111111111111" y="876.1111111111111"/>
      <point x="368.8888888888889" y="876.1111111111111" type="curve" smooth="yes"/>
      <point x="276.22222222222223" y="876.1111111111111"/>
      <point x="182.0" y="863.7777777777778"/>
      <point x="104.33333333333333" y="839.8888888888889" type="curve"/>
      <point x="104.33333333333333" y="765.7777777777777" type="line"/>
      <point x="191.66666666666666" y="795.5555555555555"/>
      <point x="281.1111111111111" y="806.0"/>
      <point x="363.1111111111111" y="806.0" type="curve" smooth="yes"/>
      <point x="535.8888888888889" y="806.0"/>
      <point x="630.5555555555555" y="736.3333333333333"/>
      <point x="630.5555555555555" y="618.5555555555555" type="curve" smooth="yes"/>
      <point x="630.5555555555555" y="478.6666666666667"/>
      <point x="515.8888888888889" y="412.8888888888889"/>
      <point x="302.33333333333337" y="412.8888888888889" type="curve" smooth="yes"/>
      <point x="231.55555555555554" y="412.8888888888889" type="line"/>
      <point x="231.55555555555554" y="342.66666666666663" type="line"/>
      <point x="384.66666666666663" y="342.66666666666663" type="line" smooth="yes"/>
      <point x="576.5555555555555" y="342.66666666666663"/>
      <point x="667.2222222222222" y="271.22222222222223"/>
      <point x="667.2222222222222" y="143.77777777777777" type="curve" smooth="yes"/>
      <point x="667.2222222222222" y="3.1111111111111356"/>
      <point x="568.4444444444445" y="-77.88888888888886"/>
      <point x="345.8888888888889" y="-77.88888888888886" type="curve" smooth="yes"/>
      <point x="259.3333333333333" y="-77.88888888888886"/>
      <point x="162.11111111111111" y="-63.88888888888886"/>
      <point x="69.55555555555556" y="-32.3333333333333" type="curve"/>
      <point x="69.55555555555556" y="-106.44444444444444" type="line"/>
      <point x="154.66666666666666" y="-134.22222222222223"/>
      <point x="255.33333333333334" y="-148.11111111111111"/>
    </contour>
  </outline>
</glyph>
<glyph name="acute" format="2">
  <advance width="1200.0"/>
  <unicode hex="00B4"/>
  <anchor x="600.0" y="1200.0" name="_top"/>
  <anchor x="600.0" y="1561.5555555555557" name="top"/>
  <outline>
    <contour>
      <point x="553.7777777777777" y="1261.5555555555557" type="line"/>
      <point x="646.2222222222223" y="1261.5555555555557" type="line"/>
      <point x="928.7777777777778" y="1616.0" type="line"/>
      <point x="821.2222222222222" y="1616.0" type="line"/>
    </contour>
  </outline>
</glyph>
<glyph name="micro" format="2">
  <advance width="1246.111111111111"/>
  <unicode hex="00B5"/>
  <outline>
    <contour>
      <point x="564.3333333333334" y="-18.0" type="curve" smooth="yes"/>
      <point x="712.8888888888889" y="-18.0"/>
      <point x="853.6666666666666" y="31.555555555555554"/>
      <point x="961.2222222222222" y="126.22222222222221" type="curve"/>
      <point x="969.6666666666667" y="126.22222222222221" type="line"/>
      <point x="976.8888888888889" y="0.0" type="line"/>
      <point x="1054.5555555555557" y="0.0" type="line"/>
      <point x="1054.5555555555557" y="1081.111111111111" type="line"/>
      <point x="964.5555555555555" y="1081.111111111111" type="line"/>
      <point x="964.5555555555555" y="235.44444444444449" type="line"/>
      <point x="854.6666666666667" y="118.11111111111117"/>
      <point x="703.6666666666667" y="65.66666666666673"/>
      <point x="567.7777777777778" y="65.66666666666673" type="curve" smooth="yes"/>
      <point x="387.5555555555556" y="65.66666666666673"/>
      <point x="264.1111111111112" y="147.00000000000006"/>
      <point x="264.1111111111112" y="380.11111111111114" type="curve" smooth="yes"/>
      <point x="264.1111111111112" y="492.2222222222223" type="line"/>
      <point x="204.7777777777778" y="492.2222222222223" type="line"/>
      <point x="204.7777777777778" y="376.7777777777778" type="line" smooth="yes"/>
      <point x="204.7777777777778" y="92.33333333333334"/>
      <point x="339.33333333333337" y="-18.0"/>
    </contour>
    <contour>
      <point x="174.1111111111111" y="-440.0" type="line"/>
      <point x="264.1111111111112" y="-440.0" type="line"/>
      <point x="264.1111111111112" y="1081.0" type="line"/>
      <point x="174.1111111111111" y="1081.0" type="line"/>
    </contour>
  </outline>
</glyph>
<glyph name="paragraph" format="2">
  <advance width="1325.888888888889"/>
  <unicode hex="00B6"/>
  <outline>
    <contour>
      <point x="819.7777777777777" y="0.0" type="line"/>
      <point x="901.6666666666666" y="0.0" type="line"/>
      <point x="901.6666666666666" y="1480.0" type="line"/>
      <point x="808.7777777777778" y="1488.3333333333333"/>
      <point x="698.6666666666666" y="1494.3333333333333"/>
      <point x="584.7777777777778" y="1494.3333333333333" type="curve" smooth="yes"/>
      <point x="276.0" y="1494.3333333333333"/>
      <point x="104.44444444444444" y="1345.111111111111"/>
      <point x="104.44444444444444" y="1006.3333333333334" type="curve" smooth="yes"/>
      <point x="104.44444444444444" y="689.2222222222222"/>
      <point x="256.8888888888889" y="510.77777777777777"/>
      <point x="623.2222222222222" y="510.77777777777777" type="curve" smooth="yes"/>
      <point x="696.3333333333333" y="510.77777777777777"/>
      <point x="756.2222222222222" y="514.6666666666666"/>
      <point x="819.7777777777777" y="524.1111111111111" type="curve"/>
    </contour>
    <contour>
      <point x="1032.7777777777778" y="0.0" type="line"/>
      <point x="1114.6666666666667" y="0.0" type="line"/>
      <point x="1114.6666666666667" y="1480.0" type="line"/>
      <point x="1032.7777777777778" y="1480.0" type="line"/>
    </contour>
  </outline>
</glyph>
<glyph name="ordmasculine" format="2">
  <advance width="1053.888888888889"/>
  <unicode hex="00BA"/>
  <outline>
    <contour>
      <point x="526.8888888888889" y="595.7777777777778" type="curve" smooth="yes"/>
      <point x="772.3333333333334" y="595.7777777777778"/>
      <point x="942.5555555555557" y="738.3333333333334"/>
      <point x="942.5555555555557" y="1046.2222222222222" type="curve" smooth="yes"/>
      <point x="942.5555555555557" y="1354.111111111111"/>
      <point x="772.3333333333334" y="1492.5555555555557"/>
      <point x="526.8888888888889" y="1492.5555555555557" type="curve" smooth="yes"/>
      <point x="281.44444444444446" y="1492.5555555555557"/>
      <point x="111.33333333333331" y="1354.111111111111"/>
      <point x="111.33333333333331" y="1046.2222222222222" type="curve" smooth="yes"/>
      <point x="111.33333333333331" y="738.3333333333334"/>
      <point x="281.44444444444446" y="595.7777777777778"/>
    </contour>
    <contour>
      <point x="526.8888888888889" y="673.6666666666667" type="curve" smooth="yes"/>
      <point x="329.00000000000006" y="673.6666666666667"/>
      <point x="199.22222222222229" y="780.5555555555555"/>
      <point x="199.22222222222229" y="1046.2222222222222" type="curve" smooth="yes"/>
      <point x="199.22222222222229" y="1311.888888888889"/>
      <point x="329.00000000000006" y="1414.6666666666665"/>
      <point x="526.8888888888889" y="1414.6666666666665" type="curve" smooth="yes"/>
      <point x="725.0" y="1414.6666666666665"/>
      <point x="854.6666666666666" y="1311.888888888889"/>
      <point x="854.6666666666666" y="1046.2222222222222" type="curve" smooth="yes"/>
      <point x="854.6666666666666" y="780.5555555555555"/>
      <point x="725.0" y="673.6666666666667"/>
    </contour>
  </outline>
</glyph>
<glyph name="guillemetright" format="2">
  <advance width="1083.888888888889"/>
  <unicode hex="00BB"/>
  <outline>
    <contour>
      <point x="101.88888888888887" y="139.44444444444443" type="line"/>
      <point x="204.11111111111117" y="139.44444444444443" type="line"/>
      <point x="526.6666666666667" y="560.5555555555555" type="line"/>
      <point x="204.11111111111117" y="981.6666666666666" type="line"/>
      <point x="101.88888888888887" y="981.6666666666666" type="line"/>
      <point x="424.44444444444446" y="560.5555555555555" type="line"/>
    </contour>
    <contour>
      <point x="517.2222222222223" y="139.44444444444443" type="line"/>
      <point x="619.4444444444446" y="139.44444444444443" type="line"/>
      <point x="942.0000000000001" y="560.5555555555555" type="line"/>
      <point x="619.4444444444446" y="981.6666666666666" type="line"/>
      <point x="517.2222222222223" y="981.6666666666666" type="line"/>
      <point x="839.7777777777778" y="560.5555555555555" type="line"/>
    </contour>
  </outline>
</glyph>
<glyph name="onequarter" format="2">
  <advance width="1930.1111111111113"/>
  <unicode hex="00BC"/>
  <outline>
    <contour>
      <point x="418.44444444444446" y="637.1111111111111" type="line"/>
      <point x="499.33333333333337" y="637.1111111111111" type="line"/>
      <point x="499.33333333333337" y="1620.0" type="line"/>
      <point x="444.0" y="1620.0" type="line"/>
      <point x="146.77777777777777" y="1407.888888888889" type="line"/>
      <point x="146.77777777777777" y="1321.3333333333333" type="line"/>
      <point x="444.0" y="1533.4444444444443" type="line"/>
      <point x="418.44444444444446" y="1553.5555555555554" type="line"/>
    </contour>
    <contour>
      <point x="146.77777777777777" y="616.0" type="line"/>
      <point x="757.0" y="616.0" type="line"/>
      <point x="757.0" y="689.7777777777778" type="line"/>
      <point x="146.77777777777777" y="689.7777777777778" type="line"/>
    </contour>
    <contour>
      <point x="494.22222222222223" y="-136.0" type="line"/>
      <point x="577.7777777777778" y="-136.0" type="line"/>
      <point x="1435.888888888889" y="1616.0" type="line"/>
      <point x="1352.3333333333335" y="1616.0" type="line"/>
    </contour>
    <contour>
      <point x="1134.4444444444446" y="110.99999999999999" type="line"/>
      <point x="1906.3333333333335" y="110.99999999999999" type="line"/>
      <point x="1906.3333333333335" y="182.55555555555557" type="line"/>
      <point x="1202.7777777777778" y="182.55555555555557" type="line"/>
      <point x="1217.0000000000002" y="157.22222222222223" type="line"/>
      <point x="1641.0" y="864.0" type="line"/>
      <point x="1558.4444444444446" y="864.0" type="line"/>
      <point x="1134.4444444444446" y="159.11111111111111" type="line"/>
    </contour>
    <contour>
      <point x="1672.0" y="-136.0" type="line"/>
      <point x="1748.3333333333335" y="-136.0" type="line"/>
      <point x="1748.3333333333335" y="526.0" type="line"/>
      <point x="1686.1111111111113" y="526.0" type="line"/>
      <point x="1672.0" y="182.55555555555557" type="line"/>
    </contour>
  </outline>
</glyph>
<glyph name="onehalf" format="2">
  <advance width="1930.1111111111113"/>
  <unicode hex="00BD"/>
  <outline>
    <contour>
      <point x="418.44444444444446" y="637.1111111111111" type="line"/>
      <point x="499.33333333333337" y="637.1111111111111" type="line"/>
      <point x="499.33333333333337" y="1620.0" type="line"/>
      <point x="444.0" y="1620.0" type="line"/>
      <point x="146.77777777777777" y="1407.888888888889" type="line"/>
      <point x="146.77777777777777" y="1321.3333333333333" type="line"/>
      <point x="444.0" y="1533.4444444444443" type="line"/>
      <point x="418.44444444444446" y="1553.5555555555554" type="line"/>
    </contour>
    <contour>
      <point x="146.77777777777777" y="616.0" type="line"/>
      <point x="757.0" y="616.0" type="line"/>
      <point x="757.0" y="689.7777777777778" type="line"/>
      <point x="146.77777777777777" y="689.7777777777778" type="line"/>
    </contour>
    <contour>
      <point x="494.22222222222223" y="-136.0" type="line"/>
      <point x="577.7777777777778" y="-136.0" type="line"/>
      <point x="1435.888888888889" y="1616.0" type="line"/>
      <point x="1352.3333333333335" y="1616.0" type="line"/>
    </contour>
    <contour>
      <point x="1197.5555555555557" y="-136.0" type="line"/>
      <point x="1858.2222222222224" y="-136.0" type="line"/>
      <point x="1858.2222222222224" y="-62.222222222222186" type="line"/>
      <point x="1288.7777777777778" y="-62.222222222222186" type="line"/>
      <point x="1293.5555555555557" y="-87.99999999999997" type="line"/>
      <point x="1597.4444444444446" y="245.33333333333334" type="line" smooth="yes"/>
      <point x="1737.7777777777778" y="400.44444444444446"/>
      <point x="1789.6666666666667" y="490.55555555555554"/>
      <point x="1789.6666666666667" y="607.7777777777777" type="curve" smooth="yes"/>
      <point x="1789.6666666666667" y="791.1111111111111"/>
      <point x="1670.0" y="876.1111111111111"/>
      <point x="1452.888888888889" y="876.1111111111111" type="curve" smooth="yes"/>
      <point x="1350.111111111111" y="876.1111111111111"/>
      <point x="1256.4444444444446" y="862.1111111111111"/>
      <point x="1185.5555555555557" y="836.1111111111111" type="curve"/>
      <point x="1185.5555555555557" y="760.4444444444445" type="line"/>
      <point x="1264.6666666666667" y="788.1111111111111"/>
      <point x="1352.0" y="802.6666666666666"/>
      <point x="1448.2222222222222" y="802.6666666666666" type="curve" smooth="yes"/>
      <point x="1620.2222222222222" y="802.6666666666666"/>
      <point x="1707.3333333333335" y="738.7777777777777"/>
      <point x="1707.3333333333335" y="599.7777777777777" type="curve" smooth="yes"/>
      <point x="1707.3333333333335" y="508.77777777777777"/>
      <point x="1660.3333333333335" y="425.22222222222223"/>
      <point x="1535.1111111111113" y="286.8888888888889" type="curve" smooth="yes"/>
      <point x="1197.5555555555557" y="-90.11111111111109" type="line"/>
    </contour>
  </outline>
</glyph>
<glyph name="threequarters" format="2">
  <advance width="1930.1111111111113"/>
  <unicode hex="00BE"/>
  <outline>
    <contour>
      <point x="345.22222222222223" y="603.8888888888889" type="curve" smooth="yes"/>
      <point x="621.6666666666667" y="603.8888888888889"/>
      <point x="746.4444444444445" y="712.5555555555555"/>
      <point x="746.4444444444445" y="890.7777777777778" type="curve" smooth="yes"/>
      <point x="746.4444444444445" y="1036.3333333333333"/>
      <point x="645.4444444444445" y="1127.111111111111"/>
      <point x="466.8888888888889" y="1145.3333333333333" type="curve"/>
      <point x="466.8888888888889" y="1126.111111111111" type="line"/>
      <point x="610.4444444444445" y="1155.7777777777778"/>
      <point x="710.3333333333334" y="1241.5555555555557"/>
      <point x="710.3333333333334" y="1375.7777777777778" type="curve" smooth="yes"/>
      <point x="710.3333333333334" y="1533.4444444444443"/>
      <point x="587.1111111111111" y="1628.111111111111"/>
      <point x="368.8888888888889" y="1628.111111111111" type="curve" smooth="yes"/>
      <point x="276.22222222222223" y="1628.111111111111"/>
      <point x="182.0" y="1615.7777777777778"/>
      <point x="104.33333333333333" y="1591.888888888889" type="curve"/>
      <point x="104.33333333333333" y="1517.7777777777778" type="line"/>
      <point x="191.66666666666666" y="1547.5555555555554"/>
      <point x="281.1111111111111" y="1558.0"/>
      <point x="363.1111111111111" y="1558.0" type="curve" smooth="yes"/>
      <point x="535.8888888888889" y="1558.0"/>
      <point x="630.5555555555555" y="1488.3333333333333"/>
      <point x="630.5555555555555" y="1370.5555555555557" type="curve" smooth="yes"/>
      <point x="630.5555555555555" y="1230.6666666666667"/>
      <point x="515.8888888888889" y="1164.888888888889"/>
      <point x="302.33333333333337" y="1164.888888888889" type="curve" smooth="yes"/>
      <point x="231.55555555555554" y="1164.888888888889" type="line"/>
      <point x="231.55555555555554" y="1094.6666666666667" type="line"/>
      <point x="384.66666666666663" y="1094.6666666666667" type="line" smooth="yes"/>
      <point x="576.5555555555555" y="1094.6666666666667"/>
      <point x="667.2222222222222" y="1023.2222222222222"/>
      <point x="667.2222222222222" y="895.7777777777778" type="curve" smooth="yes"/>
      <point x="667.2222222222222" y="755.1111111111111"/>
      <point x="568.4444444444445" y="674.1111111111112"/>
      <point x="345.8888888888889" y="674.1111111111112" type="curve" smooth="yes"/>
      <point x="259.3333333333333" y="674.1111111111112"/>
      <point x="162.11111111111111" y="688.1111111111112"/>
      <point x="69.55555555555556" y="719.6666666666667" type="curve"/>
      <point x="69.55555555555556" y="645.5555555555555" type="line"/>
      <point x="154.66666666666666" y="617.7777777777778"/>
      <point x="255.33333333333334" y="603.8888888888889"/>
    </contour>
    <contour>
      <point x="494.22222222222223" y="-136.0" type="line"/>
      <point x="577.7777777777778" y="-136.0" type="line"/>
      <point x="1435.888888888889" y="1616.0" type="line"/>
      <point x="1352.3333333333335" y="1616.0" type="line"/>
    </contour>
    <contour>
      <point x="1134.4444444444446" y="110.99999999999999" type="line"/>
      <point x="1906.3333333333335" y="110.99999999999999" type="line"/>
      <point x="1906.3333333333335" y="182.55555555555557" type="line"/>
      <point x="1202.7777777777778" y="182.55555555555557" type="line"/>
      <point x="1217.0000000000002" y="157.22222222222223" type="line"/>
      <point x="1641.0" y="864.0" type="line"/>
      <point x="1558.4444444444446" y="864.0" type="line"/>
      <point x="1134.4444444444446" y="159.11111111111111" type="line"/>
    </contour>
    <contour>
      <point x="1672.0" y="-136.0" type="line"/>
      <point x="1748.3333333333335" y="-136.0" type="line"/>
      <point x="1748.3333333333335" y="526.0" type="line"/>
      <point x="1686.1111111111113" y="526.0" type="line"/>
      <point x="1672.0" y="182.55555555555557" type="line"/>
    </contour>
  </outline>
</glyph>
<glyph name="questiondown" format="2">
  <advance width="959.4444444444446"/>
  <unicode hex="00BF"/>
  <outline>
    <contour>
      <point x="545.8888888888889" y="768.2222222222222" type="line"/>
      <point x="485.1111111111111" y="768.2222222222222" type="line"/>
      <point x="474.1111111111111" y="406.11111111111114" type="line"/>
      <point x="169.33333333333334" y="299.0"/>
      <point x="67.55555555555556" y="172.8888888888889"/>
      <point x="67.55555555555556" y="-39.66666666666666" type="curve" smooth="yes"/>
      <point x="67.55555555555556" y="-261.0"/>
      <point x="239.55555555555554" y="-400.0"/>
      <point x="540.0" y="-400.0" type="curve" smooth="yes"/>
      <point x="670.8888888888889" y="-400.0"/>
      <point x="796.2222222222223" y="-381.55555555555554"/>
      <point x="911.7777777777778" y="-345.6666666666667" type="curve"/>
      <point x="911.7777777777778" y="-261.99999999999994" type="line"/>
      <point x="786.4444444444445" y="-301.88888888888886"/>
      <point x="663.0" y="-318.33333333333326"/>
      <point x="544.5555555555557" y="-318.33333333333326" type="curve" smooth="yes"/>
      <point x="296.5555555555556" y="-318.33333333333326"/>
      <point x="158.77777777777786" y="-210.1111111111111"/>
      <point x="158.77777777777786" y="-36.11111111111109" type="curve" smooth="yes"/>
      <point x="158.77777777777786" y="147.0"/>
      <point x="257.2222222222223" y="252.66666666666666"/>
      <point x="561.6666666666667" y="348.55555555555554" type="curve"/>
    </contour>
    <contour>
      <point x="515.4444444444445" y="1091.6666666666667" type="curve" smooth="yes"/>
      <point x="469.44444444444446" y="1091.6666666666667"/>
      <point x="440.77777777777777" y="1061.888888888889"/>
      <point x="440.77777777777777" y="1020.0" type="curve" smooth="yes"/>
      <point x="440.77777777777777" y="976.2222222222222"/>
      <point x="471.1111111111111" y="946.4444444444443"/>
      <point x="515.4444444444445" y="946.4444444444443" type="curve" smooth="yes"/>
      <point x="559.7777777777778" y="946.4444444444443"/>
      <point x="590.1111111111112" y="976.0"/>
      <point x="590.1111111111112" y="1020.0" type="curve" smooth="yes"/>
      <point x="590.1111111111112" y="1062.111111111111"/>
      <point x="559.5555555555557" y="1091.6666666666667"/>
    </contour>
  </outline>
</glyph>
<glyph name="Acircumflex" format="2">
  <advance width="1459.6666666666667"/>
  <unicode hex="00C2"/>
  <anchor x="730.6666666666667" y="1520.0" name="_top"/>
  <anchor x="730.7777777777778" y="0.0" name="bottom"/>
  <anchor x="1413.4444444444446" y="0.0" name="ogonek"/>
  <anchor x="730.6666666666667" y="1520.0" name="top"/>
  <outline>
    <contour>
      <point x="46.222222222222214" y="0.0" type="line"/>
      <point x="141.66666666666674" y="0.0" type="line"/>
      <point x="741.2222222222223" y="1431.3333333333333" type="line"/>
      <point x="716.3333333333334" y="1431.3333333333333" type="line"/>
      <point x="1315.888888888889" y="0.0" type="line"/>
      <point x="1413.4444444444446" y="0.0" type="line"/>
      <point x="789.5555555555557" y="1480.0" type="line"/>
      <point x="670.1111111111111" y="1480.0" type="line"/>
    </contour>
    <contour>
      <point x="331.8888888888889" y="517.2222222222222" type="line"/>
      <point x="1127.5555555555557" y="517.2222222222222" type="line"/>
      <point x="1102.6666666666667" y="599.0" type="line"/>
      <point x="356.8888888888889" y="599.0" type="line"/>
    </contour>
    <contour>
      <point x="397.44444444444446" y="1614.3333333333333" type="line"/>
      <point x="504.5555555555556" y="1614.3333333333333" type="line"/>
      <point x="749.7777777777778" y="1855.4444444444443" type="line"/>
      <point x="711.5555555555557" y="1855.4444444444443" type="line"/>
      <point x="956.7777777777778" y="1614.3333333333333" type="line"/>
      <point x="1063.888888888889" y="1614.3333333333333" type="line"/>
      <point x="777.2222222222223" y="1888.7777777777778" type="line"/>
      <point x="684.1111111111111" y="1888.7777777777778" type="line"/>
    </contour>
  </outline>
</glyph>
<glyph name="Atilde" format="2">
  <advance width="1459.6666666666667"/>
  <unicode hex="00C3"/>
  <anchor x="730.6666666666667" y="1520.0" name="_top"/>
  <anchor x="730.7777777777778" y="0.0" name="bottom"/>
  <anchor x="1413.4444444444446" y="0.0" name="ogonek"/>
  <anchor x="730.6666666666667" y="1520.0" name="top"/>
  <outline>
    <contour>
      <point x="46.222222222222214" y="0.0" type="line"/>
      <point x="141.66666666666674" y="0.0" type="line"/>
      <point x="741.2222222222223" y="1431.3333333333333" type="line"/>
      <point x="716.3333333333334" y="1431.3333333333333" type="line"/>
      <point x="1315.888888888889" y="0.0" type="line"/>
      <point x="1413.4444444444446" y="0.0" type="line"/>
      <point x="789.5555555555557" y="1480.0" type="line"/>
      <point x="670.1111111111111" y="1480.0" type="line"/>
    </contour>
    <contour>
      <point x="331.8888888888889" y="517.2222222222222" type="line"/>
      <point x="1127.5555555555557" y="517.2222222222222" type="line"/>
      <point x="1102.6666666666667" y="599.0" type="line"/>
      <point x="356.8888888888889" y="599.0" type="line"/>
    </contour>
    <contour>
      <point x="892.7777777777778" y="1691.7777777777778" type="curve" smooth="yes"/>
      <point x="974.3333333333334" y="1691.7777777777778"/>
      <point x="1031.2222222222222" y="1711.888888888889"/>
      <point x="1072.6666666666667" y="1752.5555555555554" type="curve"/>
      <point x="1072.6666666666667" y="1829.6666666666667" type="line"/>
      <point x="1023.1111111111111" y="1781.888888888889"/>
      <point x="970.4444444444445" y="1760.0"/>
      <point x="893.4444444444445" y="1760.0" type="curve" smooth="yes"/>
      <point x="789.1111111111111" y="1760.0"/>
      <point x="694.5555555555555" y="1834.0"/>
      <point x="568.5555555555555" y="1834.0" type="curve" smooth="yes"/>
      <point x="487.0" y="1834.0"/>
      <point x="430.11111111111114" y="1813.7777777777778"/>
      <point x="388.6666666666667" y="1773.111111111111" type="curve"/>
      <point x="388.6666666666667" y="1696.0" type="line"/>
      <point x="438.22222222222223" y="1743.7777777777778"/>
      <point x="490.8888888888889" y="1765.6666666666667"/>
      <point x="567.8888888888889" y="1765.6666666666667" type="curve" smooth="yes"/>
      <point x="672.2222222222223" y="1765.6666666666667"/>
      <point x="766.7777777777778" y="1691.7777777777778"/>
    </contour>
  </outline>
</glyph>
<glyph name="Adieresis" format="2">
  <advance width="1459.6666666666667"/>
  <unicode hex="00C4"/>
  <anchor x="730.6666666666667" y="1520.0" name="_top"/>
  <anchor x="730.7777777777778" y="0.0" name="bottom"/>
  <anchor x="1413.4444444444446" y="0.0" name="ogonek"/>
  <anchor x="730.6666666666667" y="1520.0" name="top"/>
  <outline>
    <contour>
      <point x="46.222222222222214" y="0.0" type="line"/>
      <point x="141.66666666666674" y="0.0" type="line"/>
      <point x="741.2222222222223" y="1431.3333333333333" type="line"/>
      <point x="716.3333333333334" y="1431.3333333333333" type="line"/>
      <point x="1315.888888888889" y="0.0" type="line"/>
      <point x="1413.4444444444446" y="0.0" type="line"/>
      <point x="789.5555555555557" y="1480.0" type="line"/>
      <point x="670.1111111111111" y="1480.0" type="line"/>
    </contour>
    <contour>
      <point x="331.8888888888889" y="517.2222222222222" type="line"/>
      <point x="1127.5555555555557" y="517.2222222222222" type="line"/>
      <point x="1102.6666666666667" y="599.0" type="line"/>
      <point x="356.8888888888889" y="599.0" type="line"/>
    </contour>
    <contour>
      <point x="992.6666666666667" y="1683.3333333333333" type="curve" smooth="yes"/>
      <point x="1035.5555555555557" y="1683.3333333333333"/>
      <point x="1063.888888888889" y="1709.7777777777778"/>
      <point x="1063.888888888889" y="1751.888888888889" type="curve" smooth="yes"/>
      <point x="1063.888888888889" y="1794.0"/>
      <point x="1035.5555555555557" y="1822.3333333333333"/>
      <point x="992.6666666666667" y="1822.3333333333333" type="curve" smooth="yes"/>
      <point x="949.7777777777778" y="1822.3333333333333"/>
      <point x="921.4444444444445" y="1794.0"/>
      <point x="921.4444444444445" y="1751.888888888889" type="curve" smooth="yes"/>
      <point x="921.4444444444445" y="1709.7777777777778"/>
      <point x="949.7777777777778" y="1683.3333333333333"/>
    </contour>
    <contour>
      <point x="468.6666666666667" y="1683.3333333333333" type="curve" smooth="yes"/>
      <point x="511.5555555555556" y="1683.3333333333333"/>
      <point x="539.8888888888889" y="1709.7777777777778"/>
      <point x="539.8888888888889" y="1751.888888888889" type="curve" smooth="yes"/>
      <point x="539.8888888888889" y="1794.0"/>
      <point x="511.5555555555556" y="1822.3333333333333"/>
      <point x="468.6666666666667" y="1822.3333333333333" type="curve" smooth="yes"/>
      <point x="425.77777777777777" y="1822.3333333333333"/>
      <point x="397.44444444444446" y="1794.0"/>
      <point x="397.44444444444446" y="1751.888888888889" type="curve" smooth="yes"/>
      <point x="397.44444444444446" y="1709.7777777777778"/>
      <point x="425.77777777777777" y="1683.3333333333333"/>
    </contour>
  </outline>
</glyph>
<glyph name="Aring" format="2">
  <advance width="1459.6666666666667"/>
  <unicode hex="00C5"/>
  <anchor x="732.5555555555555" y="1350.0" name="_top"/>
  <anchor x="730.7777777777778" y="0.0" name="bottom"/>
  <anchor x="1413.4444444444446" y="0.0" name="ogonek"/>
  <anchor x="730.6666666666667" y="1520.0" name="top"/>
  <outline>
    <contour>
      <point x="46.222222222222214" y="0.0" type="line"/>
      <point x="141.66666666666674" y="0.0" type="line"/>
      <point x="741.2222222222223" y="1431.3333333333333" type="line"/>
      <point x="716.3333333333334" y="1431.3333333333333" type="line"/>
      <point x="1315.888888888889" y="0.0" type="line"/>
      <point x="1413.4444444444446" y="0.0" type="line"/>
      <point x="789.5555555555557" y="1480.0" type="line"/>
      <point x="670.1111111111111" y="1480.0" type="line"/>
    </contour>
    <contour>
      <point x="331.8888888888889" y="517.2222222222222" type="line"/>
      <point x="1127.5555555555557" y="517.2222222222222" type="line"/>
      <point x="1102.6666666666667" y="599.0" type="line"/>
      <point x="356.8888888888889" y="599.0" type="line"/>
    </contour>
    <contour>
      <point x="732.5555555555555" y="1439.6666666666667" type="curve" smooth="yes"/>
      <point x="840.0" y="1439.6666666666667"/>
      <point x="919.0" y="1518.4444444444446"/>
      <point x="919.0" y="1625.6666666666667" type="curve" smooth="yes"/>
      <point x="919.0" y="1732.888888888889"/>
      <point x="840.0" y="1811.6666666666667"/>
      <point x="732.5555555555555" y="1811.6666666666667" type="curve" smooth="yes"/>
      <point x="625.1111111111111" y="1811.6666666666667"/>
      <point x="546.1111111111111" y="1732.888888888889"/>
      <point x="546.1111111111111" y="1625.6666666666667" type="curve" smooth="yes"/>
      <point x="546.1111111111111" y="1518.4444444444446"/>
      <point x="625.1111111111111" y="1439.6666666666667"/>
    </contour>
    <contour>
      <point x="732.5555555555555" y="1496.4444444444446" type="curve" smooth="yes"/>
      <point x="658.2222222222223" y="1496.4444444444446"/>
      <point x="605.4444444444445" y="1545.4444444444446"/>
      <point x="605.4444444444445" y="1625.6666666666667" type="curve" smooth="yes"/>
      <point x="605.4444444444445" y="1705.888888888889"/>
      <point x="658.2222222222223" y="1754.888888888889"/>
      <point x="732.5555555555555" y="1754.888888888889" type="curve" smooth="yes"/>
      <point x="806.8888888888889" y="1754.888888888889"/>
      <point x="859.6666666666667" y="1705.888888888889"/>
      <point x="859.6666666666667" y="1625.6666666666667" type="curve" smooth="yes"/>
      <point x="859.6666666666667" y="1545.4444444444446"/>
      <point x="806.8888888888889" y="1496.4444444444446"/>
    </contour>
  </outline>
</glyph>
<glyph name="AE" format="2">
  <advance width="1987.2222222222224"/>
  <unicode hex="00C6"/>
  <anchor x="1060.3333333333335" y="0.0" name="bottom"/>
  <anchor x="947.0" y="1520.0" name="top"/>
  <outline>
    <contour>
      <point x="46.222222222222214" y="0.0" type="line"/>
      <point x="141.66666666666674" y="0.0" type="line"/>
      <point x="736.4444444444445" y="1398.2222222222222" type="line"/>
      <point x="931.8888888888889" y="1398.2222222222222" type="line"/>
      <point x="935.6666666666667" y="1480.0" type="line"/>
      <point x="679.5555555555555" y="1480.0" type="line"/>
    </contour>
    <contour>
      <point x="341.33333333333337" y="517.2222222222222" type="line"/>
      <point x="1024.0" y="517.2222222222222" type="line"/>
      <point x="1024.0" y="599.0" type="line"/>
      <point x="366.33333333333337" y="599.0" type="line"/>
    </contour>
    <contour>
      <point x="1023.4444444444445" y="0.0" type="line"/>
      <point x="1880.4444444444446" y="0.0" type="line"/>
      <point x="1880.4444444444446" y="81.77777777777783" type="line"/>
      <point x="1108.6666666666667" y="81.77777777777783" type="line"/>
      <point x="994.7777777777778" y="1398.2222222222222" type="line"/>
      <point x="1870.4444444444446" y="1398.2222222222222" type="line"/>
      <point x="1870.4444444444446" y="1480.0" type="line"/>
      <point x="899.2222222222223" y="1480.0" type="line"/>
    </contour>
    <contour>
      <point x="1019.1111111111111" y="719.7777777777777" type="line"/>
      <point x="1770.1111111111113" y="719.7777777777777" type="line"/>
      <point x="1770.1111111111113" y="801.5555555555555" type="line"/>
      <point x="1019.1111111111111" y="801.5555555555555" type="line"/>
    </contour>
  </outline>
</glyph>
<glyph name="Egrave" format="2">
  <advance width="1295.888888888889"/>
  <unicode hex="00C8"/>
  <anchor x="716.2222222222222" y="1520.0" name="_top"/>
  <anchor x="720.0" y="0.0" name="bottom"/>
  <anchor x="1108.0" y="0.0" name="ogonek"/>
  <anchor x="716.2222222222222" y="1520.0" name="top"/>
  <anchor x="45.666666666666664" y="1480.0" name="topleft"/>
  <outline>
    <contour>
      <point x="211.2222222222222" y="0.0" type="line"/>
      <point x="1189.1111111111113" y="0.0" type="line"/>
      <point x="1189.1111111111113" y="81.77777777777783" type="line"/>
      <point x="301.5555555555556" y="81.77777777777783" type="line"/>
      <point x="301.5555555555556" y="1398.2222222222222" type="line"/>
      <point x="1179.1111111111113" y="1398.2222222222222" type="line"/>
      <point x="1179.1111111111113" y="1480.0" type="line"/>
      <point x="211.2222222222222" y="1480.0" type="line"/>
    </contour>
    <contour>
      <point x="261.6666666666667" y="719.7777777777777" type="line"/>
      <point x="1078.7777777777778" y="719.7777777777777" type="line"/>
      <point x="1078.7777777777778" y="801.5555555555555" type="line"/>
      <point x="261.6666666666667" y="801.5555555555555" type="line"/>
    </contour>
    <contour>
      <point x="670.5555555555555" y="1614.3333333333333" type="line"/>
      <point x="761.8888888888889" y="1614.3333333333333" type="line"/>
      <point x="540.8888888888889" y="1888.7777777777778" type="line"/>
      <point x="432.55555555555554" y="1888.7777777777778" type="line"/>
    </contour>
  </outline>
</glyph>
<glyph name="Eacute" format="2">
  <advance width="1295.888888888889"/>
  <unicode hex="00C9"/>
  <anchor x="716.2222222222222" y="1520.0" name="_top"/>
  <anchor x="720.0" y="0.0" name="bottom"/>
  <anchor x="1108.0" y="0.0" name="ogonek"/>
  <anchor x="716.2222222222222" y="1520.0" name="top"/>
  <anchor x="45.666666666666664" y="1480.0" name="topleft"/>
  <outline>
    <contour>
      <point x="211.2222222222222" y="0.0" type="line"/>
      <point x="1189.1111111111113" y="0.0" type="line"/>
      <point x="1189.1111111111113" y="81.77777777777783" type="line"/>
      <point x="301.5555555555556" y="81.77777777777783" type="line"/>
      <point x="301.5555555555556" y="1398.2222222222222" type="line"/>
      <point x="1179.1111111111113" y="1398.2222222222222" type="line"/>
      <point x="1179.1111111111113" y="1480.0" type="line"/>
      <point x="211.2222222222222" y="1480.0" type="line"/>
    </contour>
    <contour>
      <point x="261.6666666666667" y="719.7777777777777" type="line"/>
      <point x="1078.7777777777778" y="719.7777777777777" type="line"/>
      <point x="1078.7777777777778" y="801.5555555555555" type="line"/>
      <point x="261.6666666666667" y="801.5555555555555" type="line"/>
    </contour>
    <contour>
      <point x="670.3333333333333" y="1614.3333333333333" type="line"/>
      <point x="761.6666666666667" y="1614.3333333333333" type="line"/>
      <point x="999.6666666666667" y="1888.7777777777778" type="line"/>
      <point x="891.3333333333333" y="1888.7777777777778" type="line"/>
    </contour>
  </outline>
</glyph>
<glyph name="Ecircumflex" format="2">
  <advance width="1295.888888888889"/>
  <unicode hex="00CA"/>
  <anchor x="716.2222222222222" y="1520.0" name="_top"/>
  <anchor x="720.0" y="0.0" name="bottom"/>
  <anchor x="1108.0" y="0.0" name="ogonek"/>
  <anchor x="716.2222222222222" y="1520.0" name="top"/>
  <anchor x="45.666666666666664" y="1480.0" name="topleft"/>
  <outline>
    <contour>
      <point x="211.2222222222222" y="0.0" type="line"/>
      <point x="1189.1111111111113" y="0.0" type="line"/>
      <point x="1189.1111111111113" y="81.77777777777783" type="line"/>
      <point x="301.5555555555556" y="81.77777777777783" type="line"/>
      <point x="301.5555555555556" y="1398.2222222222222" type="line"/>
      <point x="1179.1111111111113" y="1398.2222222222222" type="line"/>
      <point x="1179.1111111111113" y="1480.0" type="line"/>
      <point x="211.2222222222222" y="1480.0" type="line"/>
    </contour>
    <contour>
      <point x="261.6666666666667" y="719.7777777777777" type="line"/>
      <point x="1078.7777777777778" y="719.7777777777777" type="line"/>
      <point x="1078.7777777777778" y="801.5555555555555" type="line"/>
      <point x="261.6666666666667" y="801.5555555555555" type="line"/>
    </contour>
    <contour>
      <point x="383.0" y="1614.3333333333333" type="line"/>
      <point x="490.11111111111114" y="1614.3333333333333" type="line"/>
      <point x="735.3333333333334" y="1855.4444444444443" type="line"/>
      <point x="697.1111111111111" y="1855.4444444444443" type="line"/>
      <point x="942.3333333333333" y="1614.3333333333333" type="line"/>
      <point x="1049.4444444444446" y="1614.3333333333333" type="line"/>
      <point x="762.7777777777778" y="1888.7777777777778" type="line"/>
      <point x="669.6666666666666" y="1888.7777777777778" type="line"/>
    </contour>
  </outline>
</glyph>
<glyph name="Edieresis" format="2">
  <advance width="1295.888888888889"/>
  <unicode hex="00CB"/>
  <anchor x="716.2222222222222" y="1520.0" name="_top"/>
  <anchor x="720.0" y="0.0" name="bottom"/>
  <anchor x="1108.0" y="0.0" name="ogonek"/>
  <anchor x="716.2222222222222" y="1520.0" name="top"/>
  <anchor x="45.666666666666664" y="1480.0" name="topleft"/>
  <outline>
    <contour>
      <point x="211.2222222222222" y="0.0" type="line"/>
      <point x="1189.1111111111113" y="0.0" type="line"/>
      <point x="1189.1111111111113" y="81.77777777777783" type="line"/>
      <point x="301.5555555555556" y="81.77777777777783" type="line"/>
      <point x="301.5555555555556" y="1398.2222222222222" type="line"/>
      <point x="1179.1111111111113" y="1398.2222222222222" type="line"/>
      <point x="1179.1111111111113" y="1480.0" type="line"/>
      <point x="211.2222222222222" y="1480.0" type="line"/>
    </contour>
    <contour>
      <point x="261.6666666666667" y="719.7777777777777" type="line"/>
      <point x="1078.7777777777778" y="719.7777777777777" type="line"/>
      <point x="1078.7777777777778" y="801.5555555555555" type="line"/>
      <point x="261.6666666666667" y="801.5555555555555" type="line"/>
    </contour>
    <contour>
      <point x="978.2222222222223" y="1683.3333333333333" type="curve" smooth="yes"/>
      <point x="1021.1111111111112" y="1683.3333333333333"/>
      <point x="1049.4444444444446" y="1709.7777777777778"/>
      <point x="1049.4444444444446" y="1751.888888888889" type="curve" smooth="yes"/>
      <point x="1049.4444444444446" y="1794.0"/>
      <point x="1021.1111111111112" y="1822.3333333333333"/>
      <point x="978.2222222222223" y="1822.3333333333333" type="curve" smooth="yes"/>
      <point x="935.3333333333333" y="1822.3333333333333"/>
      <point x="907.0" y="1794.0"/>
      <point x="907.0" y="1751.888888888889" type="curve" smooth="yes"/>
      <point x="907.0" y="1709.7777777777778"/>
      <point x="935.3333333333333" y="1683.3333333333333"/>
    </contour>
    <contour>
      <point x="454.22222222222223" y="1683.3333333333333" type="curve" smooth="yes"/>
      <point x="497.11111111111114" y="1683.3333333333333"/>
      <point x="525.4444444444445" y="1709.7777777777778"/>
      <point x="525.4444444444445" y="1751.888888888889" type="curve" smooth="yes"/>
      <point x="525.4444444444445" y="1794.0"/>
      <point x="497.11111111111114" y="1822.3333333333333"/>
      <point x="454.22222222222223" y="1822.3333333333333" type="curve" smooth="yes"/>
      <point x="411.3333333333333" y="1822.3333333333333"/>
      <point x="383.0" y="1794.0"/>
      <point x="383.0" y="1751.888888888889" type="curve" smooth="yes"/>
      <point x="383.0" y="1709.7777777777778"/>
      <point x="411.3333333333333" y="1683.3333333333333"/>
    </contour>
  </outline>
</glyph>
<glyph name="Iacute" format="2">
  <advance width="513.1111111111112"/>
  <unicode hex="00CD"/>
  <anchor x="256.5555555555556" y="1520.0" name="_top"/>
  <anchor x="256.44444444444446" y="0.0" name="bottom"/>
  <anchor x="301.88888888888897" y="0.0" name="ogonek"/>
  <anchor x="256.5555555555556" y="1520.0" name="top"/>
  <outline>
    <contour>
      <point x="211.2222222222222" y="0.0" type="line"/>
      <point x="301.88888888888897" y="0.0" type="line"/>
      <point x="301.88888888888897" y="1480.0" type="line"/>
      <point x="211.2222222222222" y="1480.0" type="line"/>
    </contour>
    <contour>
      <point x="210.66666666666666" y="1614.3333333333333" type="line"/>
      <point x="302.00000000000006" y="1614.3333333333333" type="line"/>
      <point x="540.0" y="1888.7777777777778" type="line"/>
      <point x="431.66666666666663" y="1888.7777777777778" type="line"/>
    </contour>
  </outline>
</glyph>
<glyph name="Idieresis" format="2">
  <advance width="513.1111111111112"/>
  <unicode hex="00CF"/>
  <anchor x="256.5555555555556" y="1520.0" name="_top"/>
  <anchor x="256.44444444444446" y="0.0" name="bottom"/>
  <anchor x="301.88888888888897" y="0.0" name="ogonek"/>
  <anchor x="256.5555555555556" y="1520.0" name="top"/>
  <outline>
    <contour>
      <point x="211.2222222222222" y="0.0" type="line"/>
      <point x="301.88888888888897" y="0.0" type="line"/>
      <point x="301.88888888888897" y="1480.0" type="line"/>
      <point x="211.2222222222222" y="1480.0" type="line"/>
    </contour>
    <contour>
      <point x="518.5555555555555" y="1683.3333333333333" type="curve" smooth="yes"/>
      <point x="561.4444444444446" y="1683.3333333333333"/>
      <point x="589.7777777777778" y="1709.7777777777778"/>
      <point x="589.7777777777778" y="1751.888888888889" type="curve" smooth="yes"/>
      <point x="589.7777777777778" y="1794.0"/>
      <point x="561.4444444444446" y="1822.3333333333333"/>
      <point x="518.5555555555555" y="1822.3333333333333" type="curve" smooth="yes"/>
      <point x="475.66666666666663" y="1822.3333333333333"/>
      <point x="447.33333333333337" y="1794.0"/>
      <point x="447.33333333333337" y="1751.888888888889" type="curve" smooth="yes"/>
      <point x="447.33333333333337" y="1709.7777777777778"/>
      <point x="475.66666666666663" y="1683.3333333333333"/>
    </contour>
    <contour>
      <point x="-5.444444444444429" y="1683.3333333333333" type="curve" smooth="yes"/>
      <point x="37.444444444444485" y="1683.3333333333333"/>
      <point x="65.77777777777783" y="1709.7777777777778"/>
      <point x="65.77777777777783" y="1751.888888888889" type="curve" smooth="yes"/>
      <point x="65.77777777777783" y="1794.0"/>
      <point x="37.444444444444485" y="1822.3333333333333"/>
      <point x="-5.444444444444429" y="1822.3333333333333" type="curve" smooth="yes"/>
      <point x="-48.33333333333334" y="1822.3333333333333"/>
      <point x="-76.66666666666669" y="1794.0"/>
      <point x="-76.66666666666669" y="1751.888888888889" type="curve" smooth="yes"/>
      <point x="-76.66666666666669" y="1709.7777777777778"/>
      <point x="-48.33333333333334" y="1683.3333333333333"/>
    </contour>
  </outline>
</glyph>
<glyph name="Ntilde" format="2">
  <advance width="1617.0"/>
  <unicode hex="00D1"/>
  <anchor x="809.4444444444445" y="1520.0" name="_top"/>
  <anchor x="809.4444444444445" y="0.0" name="bottom"/>
  <anchor x="809.4444444444445" y="1520.0" name="top"/>
  <outline>
    <contour>
      <point x="211.2222222222222" y="0.0" type="line"/>
      <point x="298.4444444444445" y="0.0" type="line"/>
      <point x="298.4444444444445" y="1393.0" type="line"/>
      <point x="266.00000000000006" y="1393.0" type="line"/>
      <point x="1309.4444444444443" y="0.0" type="line"/>
      <point x="1405.7777777777778" y="0.0" type="line"/>
      <point x="1405.7777777777778" y="1480.0" type="line"/>
      <point x="1318.5555555555557" y="1480.0" type="line"/>
      <point x="1318.5555555555557" y="87.0000000000001" type="line"/>
      <point x="1351.0" y="87.0000000000001" type="line"/>
      <point x="307.5555555555556" y="1480.0" type="line"/>
      <point x="211.2222222222222" y="1480.0" type="line"/>
    </contour>
    <contour>
      <point x="971.5555555555557" y="1691.7777777777778" type="curve" smooth="yes"/>
      <point x="1053.111111111111" y="1691.7777777777778"/>
      <point x="1110.0" y="1711.888888888889"/>
      <point x="1151.4444444444446" y="1752.5555555555554" type="curve"/>
      <point x="1151.4444444444446" y="1829.6666666666667" type="line"/>
      <point x="1101.888888888889" y="1781.888888888889"/>
      <point x="1049.2222222222222" y="1760.0"/>
      <point x="972.2222222222223" y="1760.0" type="curve" smooth="yes"/>
      <point x="867.8888888888889" y="1760.0"/>
      <point x="773.3333333333334" y="1834.0"/>
      <point x="647.3333333333334" y="1834.0" type="curve" smooth="yes"/>
      <point x="565.7777777777778" y="1834.0"/>
      <point x="508.8888888888889" y="1813.7777777777778"/>
      <point x="467.44444444444446" y="1773.111111111111" type="curve"/>
      <point x="467.44444444444446" y="1696.0" type="line"/>
      <point x="517.0" y="1743.7777777777778"/>
      <point x="569.6666666666667" y="1765.6666666666667"/>
      <point x="646.6666666666667" y="1765.6666666666667" type="curve" smooth="yes"/>
      <point x="751.0" y="1765.6666666666667"/>
      <point x="845.5555555555557" y="1691.7777777777778"/>
    </contour>
  </outline>
</glyph>
<glyph name="Odieresis" format="2">
  <advance width="1589.7777777777778"/>
  <unicode hex="00D6"/>
  <anchor x="794.8888888888889" y="1520.0" name="_top"/>
  <anchor x="794.8888888888889" y="0.0" name="bottom"/>
  <anchor x="794.8888888888889" y="740.0" name="center"/>
  <anchor x="973.6666666666667" y="0.0" name="ogonek"/>
  <anchor x="794.8888888888889" y="1520.0" name="top"/>
  <anchor x="50.55555555555556" y="1480.0" name="topleft"/>
  <anchor x="975.7777777777778" y="1480.0" name="topright"/>
  <outline>
    <contour>
      <point x="794.8888888888889" y="-18.11111111111111" type="curve" smooth="yes"/>
      <point x="1179.6666666666667" y="-18.11111111111111"/>
      <point x="1454.7777777777778" y="211.66666666666669"/>
      <point x="1454.7777777777778" y="740.0" type="curve" smooth="yes"/>
      <point x="1454.7777777777778" y="1268.3333333333333"/>
      <point x="1185.4444444444446" y="1498.111111111111"/>
      <point x="794.8888888888889" y="1498.111111111111" type="curve" smooth="yes"/>
      <point x="410.0" y="1498.111111111111"/>
      <point x="135.0" y="1268.5555555555557"/>
      <point x="135.0" y="740.0" type="curve" smooth="yes"/>
      <point x="135.0" y="211.44444444444446"/>
      <point x="404.44444444444446" y="-18.11111111111111"/>
    </contour>
    <contour>
      <point x="794.8888888888889" y="66.55555555555561" type="curve" smooth="yes"/>
      <point x="460.1111111111112" y="66.55555555555561"/>
      <point x="229.88888888888897" y="255.22222222222229"/>
      <point x="229.88888888888897" y="744.2222222222222" type="curve" smooth="yes"/>
      <point x="229.88888888888897" y="1224.7777777777778"/>
      <point x="460.4444444444445" y="1413.4444444444443"/>
      <point x="794.8888888888889" y="1413.4444444444443" type="curve" smooth="yes"/>
      <point x="1129.3333333333335" y="1413.4444444444443"/>
      <point x="1359.888888888889" y="1224.4444444444443"/>
      <point x="1359.888888888889" y="735.7777777777778" type="curve" smooth="yes"/>
      <point x="1359.888888888889" y="255.5555555555556"/>
      <point x="1129.6666666666667" y="66.55555555555561"/>
    </contour>
    <contour>
      <point x="1056.888888888889" y="1683.3333333333333" type="curve" smooth="yes"/>
      <point x="1099.7777777777778" y="1683.3333333333333"/>
      <point x="1128.1111111111113" y="1709.7777777777778"/>
      <point x="1128.1111111111113" y="1751.888888888889" type="curve" smooth="yes"/>
      <point x="1128.1111111111113" y="1794.0"/>
      <point x="1099.7777777777778" y="1822.3333333333333"/>
      <point x="1056.888888888889" y="1822.3333333333333" type="curve" smooth="yes"/>
      <point x="1014.0" y="1822.3333333333333"/>
      <point x="985.6666666666667" y="1794.0"/>
      <point x="985.6666666666667" y="1751.888888888889" type="curve" smooth="yes"/>
      <point x="985.6666666666667" y="1709.7777777777778"/>
      <point x="1014.0" y="1683.3333333333333"/>
    </contour>
    <contour>
      <point x="532.8888888888889" y="1683.3333333333333" type="curve" smooth="yes"/>
      <point x="575.7777777777778" y="1683.3333333333333"/>
      <point x="604.1111111111112" y="1709.7777777777778"/>
      <point x="604.1111111111112" y="1751.888888888889" type="curve" smooth="yes"/>
      <point x="604.1111111111112" y="1794.0"/>
      <point x="575.7777777777778" y="1822.3333333333333"/>
      <point x="532.8888888888889" y="1822.3333333333333" type="curve" smooth="yes"/>
      <point x="490.0" y="1822.3333333333333"/>
      <point x="461.66666666666663" y="1794.0"/>
      <point x="461.66666666666663" y="1751.888888888889" type="curve" smooth="yes"/>
      <point x="461.66666666666663" y="1709.7777777777778"/>
      <point x="490.0" y="1683.3333333333333"/>
    </contour>
  </outline>
</glyph>
<glyph name="multiply" format="2">
  <advance width="1010.8888888888889"/>
  <unicode hex="00D7"/>
  <outline>
    <contour>
      <point x="200.66666666666669" y="400.3333333333333" type="line"/>
      <point x="505.44444444444446" y="705.1111111111111" type="line"/>
      <point x="810.2222222222222" y="400.3333333333333" type="line"/>
      <point x="865.1111111111112" y="455.22222222222223" type="line"/>
      <point x="560.3333333333334" y="760.0" type="line"/>
      <point x="865.1111111111112" y="1064.7777777777778" type="line"/>
      <point x="810.2222222222222" y="1119.6666666666667" type="line"/>
      <point x="505.44444444444446" y="814.8888888888889" type="line"/>
      <point x="200.66666666666669" y="1119.6666666666667" type="line"/>
      <point x="145.77777777777777" y="1064.7777777777778" type="line"/>
      <point x="450.55555555555554" y="760.0" type="line"/>
      <point x="145.77777777777777" y="455.22222222222223" type="line"/>
    </contour>
  </outline>
</glyph>
<glyph name="Udieresis" format="2">
  <advance width="1557.6666666666667"/>
  <unicode hex="00DC"/>
  <anchor x="780.0" y="1520.0" name="_top"/>
  <anchor x="780.0" y="0.0" name="bottom"/>
  <anchor x="937.8888888888889" y="3.777777777777777" name="ogonek"/>
  <anchor x="780.0" y="1520.0" name="top"/>
  <anchor x="1266.0" y="1480.0" name="topright"/>
  <outline>
    <contour>
      <point x="780.0" y="-18.11111111111111" type="curve" smooth="yes"/>
      <point x="1170.3333333333335" y="-18.11111111111111"/>
      <point x="1354.3333333333335" y="159.11111111111114"/>
      <point x="1354.3333333333335" y="573.1111111111111" type="curve" smooth="yes"/>
      <point x="1354.3333333333335" y="1480.0" type="line"/>
      <point x="1266.0" y="1480.0" type="line"/>
      <point x="1266.0" y="561.5555555555555" type="line" smooth="yes"/>
      <point x="1266.0" y="212.00000000000006"/>
      <point x="1111.5555555555557" y="65.11111111111117"/>
      <point x="780.0" y="65.11111111111117" type="curve" smooth="yes"/>
      <point x="448.44444444444446" y="65.11111111111117"/>
      <point x="294.00000000000006" y="212.00000000000006"/>
      <point x="294.00000000000006" y="561.5555555555555" type="curve" smooth="yes"/>
      <point x="294.00000000000006" y="1480.0" type="line"/>
      <point x="203.33333333333331" y="1480.0" type="line"/>
      <point x="203.33333333333331" y="573.1111111111111" type="line" smooth="yes"/>
      <point x="203.33333333333331" y="159.11111111111114"/>
      <point x="389.1111111111111" y="-18.11111111111111"/>
    </contour>
    <contour>
      <point x="1042.0" y="1683.3333333333333" type="curve" smooth="yes"/>
      <point x="1084.888888888889" y="1683.3333333333333"/>
      <point x="1113.2222222222222" y="1709.7777777777778"/>
      <point x="1113.2222222222222" y="1751.888888888889" type="curve" smooth="yes"/>
      <point x="1113.2222222222222" y="1794.0"/>
      <point x="1084.888888888889" y="1822.3333333333333"/>
      <point x="1042.0" y="1822.3333333333333" type="curve" smooth="yes"/>
      <point x="999.1111111111111" y="1822.3333333333333"/>
      <point x="970.7777777777778" y="1794.0"/>
      <point x="970.7777777777778" y="1751.888888888889" type="curve" smooth="yes"/>
      <point x="970.7777777777778" y="1709.7777777777778"/>
      <point x="999.1111111111111" y="1683.3333333333333"/>
    </contour>
    <contour>
      <point x="518.0" y="1683.3333333333333" type="curve" smooth="yes"/>
      <point x="560.8888888888889" y="1683.3333333333333"/>
      <point x="589.2222222222223" y="1709.7777777777778"/>
      <point x="589.2222222222223" y="1751.888888888889" type="curve" smooth="yes"/>
      <point x="589.2222222222223" y="1794.0"/>
      <point x="560.8888888888889" y="1822.3333333333333"/>
      <point x="518.0" y="1822.3333333333333" type="curve" smooth="yes"/>
      <point x="475.1111111111111" y="1822.3333333333333"/>
      <point x="446.77777777777777" y="1794.0"/>
      <point x="446.77777777777777" y="1751.888888888889" type="curve" smooth="yes"/>
      <point x="446.77777777777777" y="1709.7777777777778"/>
      <point x="475.1111111111111" y="1683.3333333333333"/>
    </contour>
  </outline>
</glyph>
<glyph name="Thorn" format="2">
  <advance width="1335.888888888889"/>
  <unicode hex="00DE"/>
  <outline>
    <contour>
      <point x="211.2222222222222" y="0.0" type="line"/>
      <point x="301.88888888888897" y="0.0" type="line"/>
      <point x="301.88888888888897" y="281.55555555555554" type="line"/>
      <point x="398.44444444444446" y="272.1111111111111"/>
      <point x="472.8888888888889" y="268.22222222222223"/>
      <point x="565.8888888888889" y="268.22222222222223" type="curve" smooth="yes"/>
      <point x="1028.2222222222222" y="268.22222222222223"/>
      <point x="1221.4444444444443" y="446.66666666666663"/>
      <point x="1221.4444444444443" y="763.7777777777778" type="curve" smooth="yes"/>
      <point x="1221.4444444444443" y="1102.5555555555557"/>
      <point x="1005.4444444444445" y="1251.7777777777778"/>
      <point x="614.2222222222222" y="1251.7777777777778" type="curve" smooth="yes"/>
      <point x="478.7777777777778" y="1251.7777777777778"/>
      <point x="386.33333333333337" y="1240.3333333333333"/>
      <point x="301.88888888888897" y="1225.2222222222222" type="curve"/>
      <point x="301.88888888888897" y="1481.888888888889" type="line"/>
      <point x="211.2222222222222" y="1481.888888888889" type="line"/>
    </contour>
    <contour>
      <point x="565.8888888888889" y="348.6666666666667" type="curve" smooth="yes"/>
      <point x="465.00000000000006" y="348.6666666666667"/>
      <point x="385.66666666666674" y="354.44444444444446"/>
      <point x="301.88888888888897" y="366.00000000000006" type="curve"/>
      <point x="301.88888888888897" y="1144.4444444444443" type="line"/>
      <point x="394.66666666666674" y="1161.7777777777778"/>
      <point x="492.8888888888889" y="1171.3333333333333"/>
      <point x="616.2222222222222" y="1171.3333333333333" type="curve" smooth="yes"/>
      <point x="955.3333333333333" y="1171.3333333333333"/>
      <point x="1128.0" y="1046.6666666666667"/>
      <point x="1128.0" y="761.8888888888889" type="curve" smooth="yes"/>
      <point x="1128.0" y="489.77777777777777"/>
      <point x="972.3333333333333" y="348.6666666666667"/>
    </contour>
  </outline>
</glyph>
<glyph name="germandbls" format="2">
  <advance width="1475.3333333333335"/>
  <unicode hex="00DF"/>
  <outline>
    <contour>
      <point x="941.6666666666667" y="-18.22222222222222" type="curve" smooth="yes"/>
      <point x="1245.0" y="-18.22222222222222"/>
      <point x="1381.6666666666667" y="101.11111111111111"/>
      <point x="1381.6666666666667" y="286.11111111111114" type="curve" smooth="yes"/>
      <point x="1381.6666666666667" y="442.33333333333337"/>
      <point x="1296.7777777777778" y="526.1111111111111"/>
      <point x="1078.4444444444446" y="565.4444444444445" type="curve" smooth="yes"/>
      <point x="908.5555555555557" y="595.4444444444445" type="line" smooth="yes"/>
      <point x="743.3333333333335" y="626.0"/>
      <point x="695.4444444444446" y="702.1111111111111"/>
      <point x="695.4444444444446" y="799.4444444444445" type="curve" smooth="yes"/>
      <point x="695.4444444444446" y="925.6666666666666"/>
      <point x="782.0000000000001" y="1018.0"/>
      <point x="1040.2222222222224" y="1018.0" type="curve" smooth="yes"/>
      <point x="1117.888888888889" y="1018.0"/>
      <point x="1166.6666666666667" y="1010.3333333333333"/>
      <point x="1202.0" y="1004.4444444444445" type="curve"/>
      <point x="1218.1111111111113" y="1061.6666666666667"/>
      <point x="1228.3333333333335" y="1144.111111111111"/>
      <point x="1228.3333333333335" y="1197.888888888889" type="curve" smooth="yes"/>
      <point x="1228.3333333333335" y="1505.5555555555554"/>
      <point x="1028.2222222222224" y="1636.0"/>
      <point x="765.1111111111111" y="1636.0" type="curve" smooth="yes"/>
      <point x="442.55555555555554" y="1636.0"/>
      <point x="260.22222222222223" y="1468.7777777777778"/>
      <point x="260.22222222222223" y="1122.0" type="curve" smooth="yes"/>
      <point x="260.22222222222223" y="0.0" type="line"/>
      <point x="350.2222222222223" y="0.0" type="line"/>
      <point x="350.2222222222223" y="1117.2222222222222" type="line" smooth="yes"/>
      <point x="350.2222222222223" y="1429.2222222222222"/>
      <point x="498.4444444444445" y="1557.2222222222222"/>
      <point x="765.5555555555557" y="1557.2222222222222" type="curve" smooth="yes"/>
      <point x="986.4444444444445" y="1557.2222222222222"/>
      <point x="1150.2222222222222" y="1463.888888888889"/>
      <point x="1148.3333333333335" y="1197.888888888889" type="curve" smooth="yes"/>
      <point x="1148.3333333333335" y="1160.0"/>
      <point x="1142.0" y="1101.6666666666667"/>
      <point x="1129.5555555555557" y="1056.5555555555554" type="curve"/>
      <point x="1186.3333333333335" y="1084.888888888889" type="line"/>
      <point x="1134.6666666666667" y="1090.7777777777778"/>
      <point x="1087.0" y="1094.6666666666667"/>
      <point x="1035.4444444444446" y="1094.6666666666667" type="curve" smooth="yes"/>
      <point x="730.1111111111112" y="1094.6666666666667"/>
      <point x="603.2222222222223" y="968.1111111111111"/>
      <point x="603.2222222222223" y="792.6666666666666" type="curve" smooth="yes"/>
      <point x="603.2222222222223" y="644.5555555555555"/>
      <point x="685.8888888888889" y="547.5555555555555"/>
      <point x="897.1111111111112" y="509.77777777777777" type="curve" smooth="yes"/>
      <point x="1067.0" y="479.77777777777777" type="line" smooth="yes"/>
      <point x="1237.888888888889" y="449.22222222222223"/>
      <point x="1289.4444444444443" y="390.1111111111111"/>
      <point x="1289.4444444444443" y="277.44444444444446" type="curve" smooth="yes"/>
      <point x="1289.4444444444443" y="141.44444444444449"/>
      <point x="1196.5555555555557" y="61.00000000000004"/>
      <point x="946.8888888888889" y="61.00000000000004" type="curve" smooth="yes"/>
      <point x="838.0" y="61.00000000000004"/>
      <point x="741.1111111111111" y="71.77777777777783"/>
      <point x="618.1111111111112" y="107.11111111111116" type="curve"/>
      <point x="618.1111111111112" y="25.88888888888889" type="line"/>
      <point x="721.4444444444446" y="-6.0"/>
      <point x="823.6666666666667" y="-18.22222222222222"/>
    </contour>
    <contour>
      <point x="23.55555555555556" y="998.1111111111111" type="line"/>
      <point x="315.8888888888889" y="998.1111111111111" type="line"/>
      <point x="315.8888888888889" y="1081.111111111111" type="line"/>
      <point x="23.55555555555556" y="1081.111111111111" type="line"/>
    </contour>
  </outline>
</glyph>
<glyph name="iacute" format="2">
  <advance width="473.11111111111114"/>
  <unicode hex="00ED"/>
  <anchor x="236.55555555555557" y="1200.0" name="_top"/>
  <anchor x="236.55555555555557" y="0.0" name="bottom"/>
  <anchor x="281.5555555555556" y="0.0" name="ogonek"/>
  <anchor x="236.55555555555557" y="1200.0" name="top"/>
  <outline>
    <contour>
      <point x="191.55555555555554" y="0.0" type="line"/>
      <point x="281.5555555555556" y="0.0" type="line"/>
      <point x="281.5555555555556" y="1081.111111111111" type="line"/>
      <point x="191.55555555555554" y="1081.111111111111" type="line"/>
    </contour>
    <contour>
      <point x="190.33333333333331" y="1261.5555555555557" type="line"/>
      <point x="282.7777777777778" y="1261.5555555555557" type="line"/>
      <point x="565.3333333333334" y="1616.0" type="line"/>
      <point x="457.7777777777777" y="1616.0" type="line"/>
    </contour>
  </outline>
</glyph>
<glyph name="icircumflex" format="2">
  <advance width="473.11111111111114"/>
  <unicode hex="00EE"/>
  <anchor x="236.55555555555557" y="1200.0" name="_top"/>
  <anchor x="236.55555555555557" y="0.0" name="bottom"/>
  <anchor x="281.5555555555556" y="0.0" name="ogonek"/>
  <anchor x="236.55555555555557" y="1200.0" name="top"/>
  <outline>
    <contour>
      <point x="191.55555555555554" y="0.0" type="line"/>
      <point x="281.5555555555556" y="0.0" type="line"/>
      <point x="281.5555555555556" y="1081.111111111111" type="line"/>
      <point x="191.55555555555554" y="1081.111111111111" type="line"/>
    </contour>
    <contour>
      <point x="-70.66666666666669" y="1261.5555555555557" type="line"/>
      <point x="21.555555555555596" y="1261.5555555555557" type="line"/>
      <point x="255.44444444444446" y="1584.4444444444443" type="line"/>
      <point x="217.66666666666669" y="1584.4444444444443" type="line"/>
      <point x="451.55555555555554" y="1261.5555555555557" type="line"/>
      <point x="543.7777777777778" y="1261.5555555555557" type="line"/>
      <point x="282.33333333333337" y="1616.0" type="line"/>
      <point x="190.77777777777777" y="1616.0" type="line"/>
    </contour>
  </outline>
</glyph>
<glyph name="idieresis" format="2">
  <advance width="473.11111111111114"/>
  <unicode hex="00EF"/>
  <anchor x="236.55555555555557" y="1200.0" name="_top"/>
  <anchor x="236.55555555555557" y="0.0" name="bottom"/>
  <anchor x="281.5555555555556" y="0.0" name="ogonek"/>
  <anchor x="236.55555555555557" y="1200.0" name="top"/>
  <outline>
    <contour>
      <point x="191.55555555555554" y="0.0" type="line"/>
      <point x="281.5555555555556" y="0.0" type="line"/>
      <point x="281.5555555555556" y="1081.111111111111" type="line"/>
      <point x="191.55555555555554" y="1081.111111111111" type="line"/>
    </contour>
    <contour>
      <point x="479.11111111111114" y="1351.6666666666667" type="curve" smooth="yes"/>
      <point x="522.1111111111112" y="1351.6666666666667"/>
      <point x="550.6666666666667" y="1378.6666666666667"/>
      <point x="550.6666666666667" y="1421.7777777777778" type="curve" smooth="yes"/>
      <point x="550.6666666666667" y="1464.888888888889"/>
      <point x="522.1111111111112" y="1493.7777777777778"/>
      <point x="479.11111111111114" y="1493.7777777777778" type="curve" smooth="yes"/>
      <point x="436.1111111111111" y="1493.7777777777778"/>
      <point x="407.55555555555554" y="1464.888888888889"/>
      <point x="407.55555555555554" y="1421.7777777777778" type="curve" smooth="yes"/>
      <point x="407.55555555555554" y="1378.6666666666667"/>
      <point x="436.1111111111111" y="1351.6666666666667"/>
    </contour>
    <contour>
      <point x="-5.999999999999986" y="1351.6666666666667" type="curve" smooth="yes"/>
      <point x="37.00000000000004" y="1351.6666666666667"/>
      <point x="65.5555555555556" y="1378.6666666666667"/>
      <point x="65.5555555555556" y="1421.7777777777778" type="curve" smooth="yes"/>
      <point x="65.5555555555556" y="1464.888888888889"/>
      <point x="37.00000000000004" y="1493.7777777777778"/>
      <point x="-5.999999999999986" y="1493.7777777777778" type="curve" smooth="yes"/>
      <point x="-49.000000000000014" y="1493.7777777777778"/>
      <point x="-77.55555555555557" y="1464.888888888889"/>
      <point x="-77.55555555555557" y="1421.7777777777778" type="curve" smooth="yes"/>
      <point x="-77.55555555555557" y="1378.6666666666667"/>
      <point x="-49.000000000000014" y="1351.6666666666667"/>
    </contour>
  </outline>
</glyph>
<glyph name="eth" format="2">
  <advance width="1218.4444444444443"/>
  <unicode hex="00F0"/>
  <outline>
    <contour>
      <point x="611.1111111111111" y="-18.22222222222222" type="curve" smooth="yes"/>
      <point x="897.0" y="-18.22222222222222"/>
      <point x="1092.111111111111" y="165.66666666666669"/>
      <point x="1092.3333333333335" y="572.8888888888889" type="curve" smooth="yes"/>
      <point x="1092.5555555555557" y="981.8888888888889"/>
      <point x="844.1111111111112" y="1400.888888888889"/>
      <point x="519.1111111111112" y="1616.0" type="curve"/>
      <point x="390.66666666666663" y="1616.0" type="line"/>
      <point x="696.5555555555555" y="1409.6666666666667"/>
      <point x="856.4444444444445" y="1177.2222222222222"/>
      <point x="944.0" y="919.6666666666666" type="curve"/>
      <point x="1019.8888888888889" y="825.6666666666667" type="line"/>
      <point x="929.5555555555555" y="1033.3333333333333"/>
      <point x="779.1111111111111" y="1096.4444444444443"/>
      <point x="606.3333333333334" y="1096.4444444444443" type="curve" smooth="yes"/>
      <point x="321.55555555555554" y="1096.4444444444443"/>
      <point x="124.55555555555554" y="924.8888888888889"/>
      <point x="124.55555555555554" y="540.5555555555555" type="curve" smooth="yes"/>
      <point x="124.55555555555554" y="149.0"/>
      <point x="318.33333333333337" y="-18.22222222222222"/>
    </contour>
    <contour>
      <point x="611.1111111111111" y="63.4444444444445" type="curve" smooth="yes"/>
      <point x="371.00000000000006" y="63.4444444444445"/>
      <point x="218.00000000000006" y="196.00000000000006"/>
      <point x="218.00000000000006" y="542.4444444444445" type="curve" smooth="yes"/>
      <point x="218.00000000000006" y="885.1111111111111"/>
      <point x="371.00000000000006" y="1015.7777777777777"/>
      <point x="609.2222222222222" y="1015.7777777777777" type="curve" smooth="yes"/>
      <point x="847.4444444444445" y="1015.7777777777777"/>
      <point x="1000.4444444444445" y="885.1111111111111"/>
      <point x="1000.4444444444445" y="538.6666666666666" type="curve" smooth="yes"/>
      <point x="1000.4444444444445" y="205.44444444444449"/>
      <point x="847.4444444444445" y="63.4444444444445"/>
    </contour>
    <contour>
      <point x="241.2222222222222" y="1230.6666666666667" type="line"/>
      <point x="1069.111111111111" y="1359.7777777777778" type="line"/>
      <point x="1059.2222222222222" y="1428.2222222222222" type="line"/>
      <point x="231.33333333333331" y="1299.111111111111" type="line"/>
    </contour>
  </outline>
</glyph>
<glyph name="ntilde" format="2">
  <advance width="1256.111111111111"/>
  <unicode hex="00F1"/>
  <anchor x="637.7777777777778" y="1200.0" name="_top"/>
  <anchor x="15.777777777777777" y="1200.0" name="apostrophe"/>
  <anchor x="637.7777777777778" y="0.0" name="bottom"/>
  <anchor x="637.7777777777778" y="1200.0" name="top"/>
  <outline>
    <contour>
      <point x="191.55555555555554" y="0.0" type="line"/>
      <point x="281.5555555555556" y="0.0" type="line"/>
      <point x="281.5555555555556" y="845.6666666666666" type="line"/>
      <point x="395.2222222222223" y="968.6666666666666"/>
      <point x="553.7777777777778" y="1013.5555555555555"/>
      <point x="682.3333333333334" y="1013.5555555555555" type="curve" smooth="yes"/>
      <point x="874.2222222222222" y="1013.5555555555555"/>
      <point x="992.0" y="928.4444444444443"/>
      <point x="992.0" y="695.3333333333333" type="curve" smooth="yes"/>
      <point x="992.0" y="0.0" type="line"/>
      <point x="1082.0" y="0.0" type="line"/>
      <point x="1082.0" y="694.8888888888889" type="line" smooth="yes"/>
      <point x="1082.0" y="985.0"/>
      <point x="925.8888888888889" y="1097.2222222222222"/>
      <point x="690.0" y="1097.2222222222222" type="curve" smooth="yes"/>
      <point x="540.5555555555557" y="1097.2222222222222"/>
      <point x="395.66666666666674" y="1045.7777777777778"/>
      <point x="285.11111111111114" y="949.2222222222223" type="curve"/>
      <point x="276.4444444444445" y="949.2222222222223" type="line"/>
      <point x="269.2222222222223" y="1081.111111111111" type="line"/>
      <point x="191.55555555555554" y="1081.111111111111" type="line"/>
    </contour>
    <contour>
      <point x="789.3333333333334" y="1372.2222222222222" type="curve" smooth="yes"/>
      <point x="861.0" y="1372.2222222222222"/>
      <point x="917.8888888888889" y="1392.5555555555554"/>
      <point x="959.3333333333334" y="1433.6666666666667" type="curve"/>
      <point x="959.3333333333334" y="1512.4444444444446" type="line"/>
      <point x="909.7777777777778" y="1463.4444444444443"/>
      <point x="857.1111111111111" y="1441.2222222222222"/>
      <point x="790.0" y="1441.2222222222222" type="curve" smooth="yes"/>
      <point x="696.2222222222222" y="1441.2222222222222"/>
      <point x="601.6666666666667" y="1516.7777777777778"/>
      <point x="486.22222222222223" y="1516.7777777777778" type="curve" smooth="yes"/>
      <point x="414.55555555555554" y="1516.7777777777778"/>
      <point x="357.6666666666667" y="1496.4444444444446"/>
      <point x="316.22222222222223" y="1455.3333333333333" type="curve"/>
      <point x="316.22222222222223" y="1376.5555555555554" type="line"/>
      <point x="365.77777777777777" y="1425.5555555555554"/>
      <point x="418.44444444444446" y="1447.7777777777778"/>
      <point x="485.55555555555554" y="1447.7777777777778" type="curve" smooth="yes"/>
      <point x="579.3333333333334" y="1447.7777777777778"/>
      <point x="673.8888888888889" y="1372.2222222222222"/>
    </contour>
  </outline>
</glyph>
